<svg xmlns="http://www.w3.org/2000/svg" viewBox="0 0 229.06 176.02"><defs><style>.cls-1{fill:#f4f3e4;}.cls-2{fill:#fff;}.cls-3{fill:#e6c0c0;}.cls-4{fill:#c00;}.cls-5{fill:#f1e3c6;}</style></defs><g id="Layer_2" data-name="Layer 2"><g id="Layer_1-2" data-name="Layer 1"><polygon class="cls-1" points="224.35 134.8 198.17 150.84 12.4 148.14 12.4 4.85 205.85 6.87 224.35 134.8"/><path class="cls-2" d="M198.24,151.09h-.07l-186-2.71V4.6h.26l193.66,2,0,.22,18.53,128.09-.14.09Zm-185.59-3.2,185.45,2.7,26-15.91L205.64,7.12l-193-2Z"/><path class="cls-3" d="M186.36,92.53a26.85,26.85,0,1,0,26.85,26.85A26.88,26.88,0,0,0,186.36,92.53Z"/><path d="M186.36,146.47a27.1,27.1,0,1,1,27.1-27.09A27.13,27.13,0,0,1,186.36,146.47Zm0-53.69a26.6,26.6,0,1,0,26.6,26.6A26.63,26.63,0,0,0,186.36,92.78Z"/><path class="cls-3" d="M165.16,146.84,159,145.16a26.67,26.67,0,0,1-3.09-1.08,6.5,6.5,0,0,0-2.54-.54H24c-3.57,0-6.48-1.61-6.48-3.57V13.33c0-2,2.91-3.58,6.48-3.58H197.86c3.57,0,6.49,1.6,6.49,3.58v76c2.89.38,4.05,9.39,6.47,10.39,4.73,1.86,9.88,14.34,10.76,17.59v-104C221.61,6.12,211,.25,197.86.25H24C10.9.25.25,6.13.25,13.34V140c0,7.22,10.67,13.09,23.74,13.09H153.86Z"/><path d="M153.93,153.33H24c-13.23,0-24-6-24-13.34V13.34C0,6,10.76,0,24,0H197.86c8.73,0,16.77,2.63,21,6.87a9.16,9.16,0,0,1,3,6.47V119.22l-.49-1.81c-.94-3.45-6.07-15.64-10.61-17.42-1.23-.5-2.08-2.7-3-5s-2-5.17-3.42-5.35l-.22,0V13.33c0-1.81-2.86-3.33-6.24-3.33H24c-3.43,0-6.23,1.49-6.23,3.33V140c0,1.8,2.85,3.32,6.23,3.32H153.41a6.85,6.85,0,0,1,2.64.56,26.53,26.53,0,0,0,3.06,1.07l6.71,1.84ZM24,.5C11,.5.5,6.26.5,13.34V140C.5,147.07,11,152.83,24,152.83H153.8l10.7-5.91L159,145.4a24.59,24.59,0,0,1-3.12-1.09,6.46,6.46,0,0,0-2.45-.52H24c-3.71,0-6.73-1.71-6.73-3.82V13.33c0-2.11,3-3.83,6.73-3.83H197.86c3.72,0,6.74,1.72,6.74,3.83V89.17c1.58.41,2.61,3.06,3.61,5.62.83,2.12,1.68,4.32,2.7,4.73,4.4,1.73,8.86,11.9,10.42,16.25V13.34a8.68,8.68,0,0,0-2.83-6.11C214.36,3.08,206.46.5,197.86.5Z"/><path d="M58.82,126.11H39.33a1.14,1.14,0,1,0,0,2.26H58.82a1.14,1.14,0,1,0,0-2.26Z"/><path d="M57,121.18H41.2a1,1,0,1,0,0,2H57a1,1,0,1,0,0-2Z"/><rect class="cls-4" x="39.35" y="14.41" width="148.1" height="20.21"/><path d="M187.7,34.87H39.1V14.16H187.7Zm-148.1-.5H187.2V14.66H39.6Z"/><path class="cls-2" d="M47.62,29.1V19.93h3l2.83,6.35h0V19.93h2.07V29.1H52.62l-2.89-6.7h0v6.7Z"/><path class="cls-2" d="M57.32,24.52c0-2.43,0-4.74,3.66-4.74,2.27,0,3.18,1.08,3.09,3H61.89c0-1.22-.25-1.68-.91-1.68-1.25,0-1.41,1-1.41,3.37s.16,3.36,1.41,3.36c1,0,1-1.14,1-1.86h2.19c0,2.45-1.13,3.24-3.21,3.24C57.32,29.26,57.32,26.92,57.32,24.52Z"/><path class="cls-2" d="M71.75,29.26c-2.75,0-3.27-1.4-3.15-3h2.22c0,.88,0,1.61,1.27,1.61a1,1,0,0,0,1.11-1c0-1.65-4.47-1.75-4.47-4.48,0-1.44.8-2.58,3.5-2.58,2.17,0,3.24.84,3.09,2.76H73.16c0-.69-.13-1.39-1-1.39-.72,0-1.15.35-1.15,1,0,1.74,4.47,1.59,4.47,4.47C75.45,29,73.44,29.26,71.75,29.26Z"/><path class="cls-2" d="M83.37,19.93v1.53H80.9V29.1H78.68V21.46H76.21V19.93Z"/><path class="cls-2" d="M82.71,29.1l2.93-9.17h2.93l2.88,9.17H89.11l-.58-2h-3l-.61,2ZM87,21.7h0l-1,4h2.12Z"/><path class="cls-2" d="M97.93,19.93v1.53H95.46V29.1H93.24V21.46H90.77V19.93Z"/><path class="cls-2" d="M99,29.1V19.93h5.79v1.41h-3.57v2.27h3.3V25h-3.3v2.68h3.69V29.1Z"/><path class="cls-2" d="M110.56,25.7c0,1.19,0,2.9,2.16,2.9s2.16-1.71,2.16-2.9V19.93h.94V26.3c0,2.36-1.44,3-3.1,3s-3.11-.62-3.11-3V19.93h1Z"/><path class="cls-2" d="M118.6,29.1V19.93h1.45l4.3,8.06,0,0v-8h.94V29.1h-1.43L119.58,21l0,0V29.1Z"/><path class="cls-2" d="M129.22,19.93V29.1h-.94V19.93Z"/><path class="cls-2" d="M137.34,19.93h.91l-2.94,9.17h-1.17l-3-9.17h1l2.52,8.21h0Z"/><path class="cls-2" d="M145,19.93v.69h-3.87v3.43h3.7v.69h-3.7v3.68h4v.68h-4.91V19.93Z"/><path class="cls-2" d="M148.2,24.66V29.1h-.94V19.93h2.93c2,0,2.56.59,2.56,2.2,0,1.15-.23,1.91-1.65,2.19v0c1.49.27,1.57.42,1.57,3.7,0,.35.08.71.1,1.06h-.89a20.39,20.39,0,0,1-.15-2.28c0-.4.3-2.16-1.75-2.16Zm0-.69h1.53c1.41,0,2.07-.31,2.07-1.85,0-1.26-.57-1.5-1.67-1.5H148.2Z"/><path class="cls-2" d="M159.83,22.26c0-1.13-.36-1.82-1.8-1.82-1.15,0-1.87.34-1.87,1.42,0,1.36.8,1.4,2,2.15s2.65,1,2.65,2.83-1,2.44-2.82,2.44c-2.08,0-3-1-2.92-2.76h1c0,1,.08,2.08,2,2.08,1.24,0,1.84-.58,1.84-1.63,0-1.25-1-1.6-2.49-2.41-2-1.1-2.14-1.64-2.16-2.56,0-1.58,1.15-2.24,2.88-2.24,2.21,0,2.68,1.18,2.68,2.5Z"/><path class="cls-2" d="M164.4,19.93V29.1h-.94V19.93Z"/><path class="cls-2" d="M169,20.62h-2.59v-.69h6.12v.69H170V29.1H169Z"/><path class="cls-2" d="M176.61,25.29l-3-5.36h1.06l2.43,4.56,2.54-4.56h.94l-3,5.36V29.1h-.95Z"/><path d="M164.23,92.73H53.85c-4,0-7.19-.5-7.19-1.11s3.2-1.11,7.19-1.11H164.23c4,0,7.19.5,7.19,1.11S168.18,92.73,164.23,92.73Z"/><path d="M182.27,81.29H46.89c-4.88,0-8.83.64-8.83,1.44s3.93,1.44,8.83,1.44H182.27c4.87,0,8.83-.64,8.83-1.44S187.12,81.29,182.27,81.29Z"/><path d="M156.55,100.7H58.79c-3.53,0-6.37-.49-6.37-1.09s2.83-1.11,6.37-1.11h97.76c3.51,0,6.37.49,6.37,1.1S160.05,100.7,156.55,100.7Z"/><path class="cls-3" d="M227.32,156.84l-14.61-14.62-.74,4.93a8.75,8.75,0,0,1-3.47,5.71A8.62,8.62,0,0,1,202,154.4l-8.16-1.33a1.59,1.59,0,0,0-1.38.45l-1.39,1.39L210.18,174a2.81,2.81,0,0,0,2.79.71,2.85,2.85,0,0,0,1.92-2.16l1.72-9.26,9.28-1.74a2.75,2.75,0,0,0,2.14-1.91A2.78,2.78,0,0,0,227.32,156.84Z"/><path d="M212.16,175.31a3.28,3.28,0,0,1-2.33-1l-19.44-19.43,1.74-1.76a2.09,2.09,0,0,1,1.77-.59l8.21,1.34a8.07,8.07,0,0,0,6.09-1.46,8.19,8.19,0,0,0,3.28-5.38l.88-5.91,15.31,15.32A3.28,3.28,0,0,1,226,162L217,163.71l-1.65,8.92a3.31,3.31,0,0,1-2.26,2.54A3.14,3.14,0,0,1,212.16,175.31Zm-20.36-20.4,18.73,18.73a2.28,2.28,0,0,0,3.87-1.19l1.78-9.6,9.62-1.8a2.23,2.23,0,0,0,1.75-1.57,2.26,2.26,0,0,0-.58-2.29l-13.91-13.92-.59,3.95a9.22,9.22,0,0,1-3.68,6,9,9,0,0,1-6.84,1.63l-8.17-1.33a1.11,1.11,0,0,0-.93.3Z"/><path class="cls-3" d="M178.42,153.73,170,155.1a8.68,8.68,0,0,1-10-7.27l-.74-4.91-14.6,14.62a2.78,2.78,0,0,0-.7,2.78,2.82,2.82,0,0,0,2.14,1.92l9.28,1.73,1.74,9.27a2.77,2.77,0,0,0,4.69,1.46l19.07-19.08-1.39-1.41A1.57,1.57,0,0,0,178.42,153.73Z"/><path d="M159.89,176a3.54,3.54,0,0,1-1-.14,3.29,3.29,0,0,1-2.25-2.54L155,164.4l-8.94-1.67a3.33,3.33,0,0,1-2.53-2.26,3.28,3.28,0,0,1,.82-3.28l15.31-15.32.88,5.88a8.19,8.19,0,0,0,9.39,6.86l8.49-1.38a2.08,2.08,0,0,1,1.48.63l1.74,1.76-19.43,19.44A3.29,3.29,0,0,1,159.89,176ZM159,144l-13.9,13.92a2.28,2.28,0,0,0-.57,2.29,2.33,2.33,0,0,0,1.76,1.57l9.61,1.79,1.8,9.61a2.29,2.29,0,0,0,1.57,1.77,2.25,2.25,0,0,0,2.27-.57l18.73-18.73-1-1.06a1.12,1.12,0,0,0-.74-.33l-8.36,1.37a9.18,9.18,0,0,1-10.53-7.7Z"/><path class="cls-5" d="M208.41,156.79a5.22,5.22,0,0,0,6-4.34l1.22-8.14a5.08,5.08,0,0,1,2.75-3.78l7.38-3.68a5.18,5.18,0,0,0,2.27-7l-3.8-7.34a5.13,5.13,0,0,1,0-4.64l3.8-7.34a5.16,5.16,0,0,0-2.27-7l-7.38-3.68a5.08,5.08,0,0,1-2.75-3.78l-1.22-8.14a5.11,5.11,0,0,0-2.08-3.4,5,5,0,0,0-3.87-.93L200.26,85a5,5,0,0,1-4.42-1.44l-5.79-5.88a5.2,5.2,0,0,0-7.37,0l-5.8,5.88A5,5,0,0,1,172.47,85l-8.14-1.34a5.12,5.12,0,0,0-3.88.93,5.17,5.17,0,0,0-2.08,3.4l-1.22,8.14a5.09,5.09,0,0,1-2.74,3.78L147,103.54a5.2,5.2,0,0,0-2.27,7l3.8,7.33a5.07,5.07,0,0,1,0,4.64l-3.8,7.34a5.2,5.2,0,0,0,2.27,7l7.39,3.68a5.09,5.09,0,0,1,2.74,3.78l1.22,8.14a5.22,5.22,0,0,0,6,4.34l8.14-1.34a5,5,0,0,1,4.41,1.43l5.8,5.87a5.16,5.16,0,0,0,7.37,0l5.79-5.87a5,5,0,0,1,4.42-1.43Zm-22.06-5.95a31.42,31.42,0,1,1,31.42-31.41A31.44,31.44,0,0,1,186.35,150.84Z"/><path d="M186.36,164.82a5.61,5.61,0,0,1-4-1.7l-5.79-5.87a4.52,4.52,0,0,0-4-1.29l-8.14,1.34a5.69,5.69,0,0,1-6.53-4.75l-1.22-8.15a4.55,4.55,0,0,0-2.48-3.4l-7.38-3.68a5.69,5.69,0,0,1-2.5-7.68l3.8-7.35a4.46,4.46,0,0,0,0-4.17l-3.8-7.34a5.77,5.77,0,0,1-.35-4.37,5.67,5.67,0,0,1,2.85-3.31l7.38-3.69A4.55,4.55,0,0,0,156.66,96l1.22-8.14a5.71,5.71,0,0,1,6.53-4.75l8.14,1.35a4.55,4.55,0,0,0,4-1.3l5.79-5.88a5.75,5.75,0,0,1,4-1.68,5.66,5.66,0,0,1,4,1.67l5.8,5.89a4.56,4.56,0,0,0,4,1.3l8.16-1.37a5.57,5.57,0,0,1,4.25,1,5.65,5.65,0,0,1,2.27,3.72L216.08,96a4.61,4.61,0,0,0,2.48,3.41l7.37,3.68a5.68,5.68,0,0,1,2.86,3.32,5.75,5.75,0,0,1-.36,4.36l-3.8,7.34a4.54,4.54,0,0,0,0,4.18l3.8,7.34a5.74,5.74,0,0,1,.36,4.37,5.66,5.66,0,0,1-2.86,3.31L218.56,141a4.59,4.59,0,0,0-2.48,3.4l-1.23,8.14a5.68,5.68,0,0,1-6.52,4.76h0L200.18,156a4.55,4.55,0,0,0-4,1.29l-5.79,5.87A5.56,5.56,0,0,1,186.36,164.82Zm-13.05-9.93a5.54,5.54,0,0,1,3.93,1.65l5.79,5.88a4.66,4.66,0,0,0,6.66,0l5.79-5.88a5.54,5.54,0,0,1,4.86-1.57l8.15,1.32a4.68,4.68,0,0,0,5.37-3.91l1.23-8.15a5.59,5.59,0,0,1,3-4.15l7.37-3.68a4.68,4.68,0,0,0,2.06-6.33l-3.8-7.34a5.53,5.53,0,0,1,0-5.1l3.8-7.34a4.69,4.69,0,0,0-2.06-6.33l-7.37-3.68a5.59,5.59,0,0,1-3-4.15L213.86,88A4.63,4.63,0,0,0,212,84.93a4.56,4.56,0,0,0-3.5-.85l-8.15,1.36a5.57,5.57,0,0,1-4.86-1.57L189.69,78a4.67,4.67,0,0,0-3.33-1.38A4.73,4.73,0,0,0,183,78l-5.79,5.88a5.5,5.5,0,0,1-4.85,1.58l-8.15-1.34A4.7,4.7,0,0,0,158.87,88l-1.22,8.14a5.63,5.63,0,0,1-3,4.15L147.25,104a4.65,4.65,0,0,0-2.35,2.73,4.75,4.75,0,0,0,.29,3.6l3.8,7.33a5.53,5.53,0,0,1,0,5.1l-3.8,7.34a4.75,4.75,0,0,0-.29,3.6,4.66,4.66,0,0,0,2.35,2.73l7.38,3.68a5.66,5.66,0,0,1,3,4.15l1.22,8.15a4.69,4.69,0,0,0,5.38,3.91l8.14-1.34A5.82,5.82,0,0,1,173.31,154.89Zm13-3.55a31.92,31.92,0,1,1,31.92-31.91A31.94,31.94,0,0,1,186.35,151.34Zm0-62.84a30.92,30.92,0,1,0,30.92,30.93A31,31,0,0,0,186.35,88.5Z"/><path d="M177.56,100.59l-5.51,5.75v11.31l5.16,5.25h-5.16v8.29l5.53,5.58h18.84l5.53-5.58V119.28l-4.77-4.82H202v-8.12l-5.51-5.75Zm.56,1.31h17.76l4.76,5v6.28h-7v2H196l4.62,4.74v10.79l-4.77,4.81H178.13l-4.76-4.81v-6.44h6.74V122h-2l-4.76-4.85V106.87l4.75-5Zm7.59,6.84,4.33,3.38v-3.38Zm-2,3v3.39h4.41Zm0,11.69V127H190v-1.23h2.54v-1.13H190v-1.17Z"/><path class="cls-4" d="M178.4,102.56,174,107.13v9.71l4.38,4.46h2l2-1.44h9l2.25,1.63v3.1h-.37v1.13h.37V129l-2.22,1.6h-9l-2.31-1.68v-4H174v5.51l4.38,4.42h17.2l4.38-4.42V120.12l-4.26-4.34h-2.11v1h-3.3l-1.34-1H183.7v1h-3.59v-9.72h3.47l1.29,1H190v-1h3.57v5.42H200v-5.36l-4.38-4.57Zm2.37,5.17v8.41h2.28V110.4l7.48,5.76H193v-8.43H190.7v5.74l-7.34-5.74Zm1.83,12.79-1.83,1.3v6.75l1.85,1.37h8.56l1.78-1.28v-2.28H190.7v1.23h-7.65v-4.84h7.65v1.17H193v-2.12l-1.81-1.3Z"/><path class="cls-2" d="M202.93,131.59V118.91l-3.36-3.47h3.36v-9.5l-6.07-6.34H177.14l-6.07,6.34v12.11l3.79,3.86h-3.79v9.68l6.1,6.17h19.66Zm-25.37-31h18.88l5.51,5.75v8.12h-4.77l4.77,4.82v11.91l-5.53,5.58H177.58l-5.53-5.58V122.9h5.16l-5.16-5.25V106.34l5.51-5.75Zm.56,1.31-4.75,5v10.24l4.76,4.85h2v2.25h-6.74v6.44l4.76,4.81h17.74l4.77-4.81V119.86L196,115.12h-2.41v-2h7v-6.28l-4.76-5Zm.28.66h17.2l4.38,4.57v5.36h-6.37v-5.42H190v1h-5.17l-1.29-1h-3.47v9.72h3.59v-1H189l1.34,1h3.3v-1h2.11l4.26,4.34v10.26l-4.38,4.42H178.4L174,130.38v-5.51h6.09v4l2.31,1.68h9l2.22-1.6v-3.27h-.37v-1.13h.37v-3.1l-2.25-1.63h-9l-2,1.44h-2L174,116.84v-9.71Zm2.37,5.17h2.59l7.34,5.74v-5.74H193v8.43h-2.42l-7.48-5.76v5.74h-2.28Zm4.94,1H190v3.38Zm-2,3,4.41,3.39H183.7Zm-1.1,8.79h8.55l1.81,1.3v2.12H190.7v-1.17h-7.65v4.84h7.65v-1.23H193v2.28l-1.78,1.28h-8.56l-1.85-1.37v-6.75Zm1.11,2.9H190v1.17h2.54v1.13H190V127h-6.33Z"/><path d="M102.58,42.28V51H101V45.64c0-.11,0-.23,0-.36a2.56,2.56,0,0,1,0-.39l-2.49,4.72a.68.68,0,0,1-.63.39h-.25a.64.64,0,0,1-.37-.1.62.62,0,0,1-.26-.29l-2.5-4.74,0,.41c0,.13,0,.25,0,.36V51H93V42.28h1.57a.41.41,0,0,1,.16,0,.32.32,0,0,1,.12.08.5.5,0,0,1,.11.16l2.44,4.65a2.86,2.86,0,0,1,.21.43c.07.15.13.3.19.45.06-.16.13-.31.19-.47s.14-.29.22-.43l2.41-4.63a.74.74,0,0,1,.12-.16.35.35,0,0,1,.13-.08.33.33,0,0,1,.15,0h1.58Z"/><path d="M103.93,50.12a1,1,0,0,1,.08-.38,1,1,0,0,1,.21-.31,1,1,0,0,1,.3-.2,1.12,1.12,0,0,1,.78,0,.87.87,0,0,1,.51.51,1,1,0,0,1,.08.38.91.91,0,0,1-.08.37.87.87,0,0,1-.51.51,1.12,1.12,0,0,1-.78,0,1,1,0,0,1-.3-.2,1,1,0,0,1-.21-.31A.91.91,0,0,1,103.93,50.12Z"/><path d="M109.06,43.69v2.24H112v1.36h-2.91v2.29h3.74V51h-5.55V42.28h5.55v1.41Z"/><path d="M119.19,42v9h-1a.39.39,0,0,1-.41-.29l-.13-.54a4.61,4.61,0,0,1-.4.37,2.66,2.66,0,0,1-.45.29,2.56,2.56,0,0,1-.51.19,2.74,2.74,0,0,1-.6.07,2.1,2.1,0,0,1-.91-.21,2,2,0,0,1-.72-.62,3,3,0,0,1-.47-1,5,5,0,0,1-.17-1.35,4.09,4.09,0,0,1,.19-1.28,3.25,3.25,0,0,1,.54-1,2.65,2.65,0,0,1,.84-.68,2.45,2.45,0,0,1,1.09-.24,2.12,2.12,0,0,1,.85.15,2.16,2.16,0,0,1,.62.41V42Zm-1.66,4.37A1.26,1.26,0,0,0,117,46a1.62,1.62,0,0,0-.58-.11,1.26,1.26,0,0,0-.55.12,1.07,1.07,0,0,0-.42.35,1.69,1.69,0,0,0-.27.62,3.44,3.44,0,0,0-.1.9,4.33,4.33,0,0,0,.08.88,1.85,1.85,0,0,0,.22.58.84.84,0,0,0,.36.32,1,1,0,0,0,.47.1,1.46,1.46,0,0,0,.73-.17,2,2,0,0,0,.56-.5Z"/><path d="M120.33,50.12a1,1,0,0,1,.08-.38.87.87,0,0,1,.51-.51,1,1,0,0,1,.39-.07,1,1,0,0,1,.38.07,1.16,1.16,0,0,1,.32.2,1.1,1.1,0,0,1,.2.31,1,1,0,0,1,.08.38.91.91,0,0,1-.08.37,1.1,1.1,0,0,1-.2.31,1.16,1.16,0,0,1-.32.2,1.09,1.09,0,0,1-.77,0,.87.87,0,0,1-.51-.51A.91.91,0,0,1,120.33,50.12Z"/><path d="M128.17,43a.85.85,0,0,1-.08.39,1,1,0,0,1-.23.32.93.93,0,0,1-.33.21.9.9,0,0,1-.4.08.85.85,0,0,1-.39-.08,1,1,0,0,1-.32-.21,1.21,1.21,0,0,1-.22-.32,1,1,0,0,1,0-.78,1.21,1.21,0,0,1,.22-.32,1,1,0,0,1,.71-.3,1.06,1.06,0,0,1,.4.08,1,1,0,0,1,.33.22,1,1,0,0,1,.23.32A.85.85,0,0,1,128.17,43ZM128,44.8V51h-1.66V44.8Z"/><path d="M130.93,45.52a3.9,3.9,0,0,1,.38-.33,2.73,2.73,0,0,1,.43-.26,2.35,2.35,0,0,1,.49-.17,2.47,2.47,0,0,1,.56-.06,2.13,2.13,0,0,1,.9.18,1.75,1.75,0,0,1,.65.48,2.1,2.1,0,0,1,.41.75,3.14,3.14,0,0,1,.13.94V51h-1.65V47.05a1.21,1.21,0,0,0-.24-.8.86.86,0,0,0-.71-.28,1.44,1.44,0,0,0-.65.15,2.09,2.09,0,0,0-.58.42V51h-1.66V44.8h1a.39.39,0,0,1,.41.29Z"/><path d="M37.84,63.92v1.46H32.67v-8.7h1.8v7.24Z"/><path d="M39.77,62.55a1.93,1.93,0,0,0,.5,1.27,1.5,1.5,0,0,0,1.09.4,2.1,2.1,0,0,0,.59-.08,2.53,2.53,0,0,0,.44-.18l.34-.18a.67.67,0,0,1,.3-.08.36.36,0,0,1,.3.14l.48.6a2.5,2.5,0,0,1-.58.51,3.35,3.35,0,0,1-.66.32,3.44,3.44,0,0,1-.69.16,5.22,5.22,0,0,1-.67,0A3.38,3.38,0,0,1,40,65.26a2.67,2.67,0,0,1-1-.63,2.94,2.94,0,0,1-.66-1,4,4,0,0,1-.24-1.44A3.39,3.39,0,0,1,38.33,61a2.93,2.93,0,0,1,.6-1,2.87,2.87,0,0,1,.94-.65,3,3,0,0,1,1.26-.25,3.21,3.21,0,0,1,1.1.19,2.42,2.42,0,0,1,1.43,1.44,3.37,3.37,0,0,1,.2,1.19,2.41,2.41,0,0,1,0,.31.47.47,0,0,1-.06.19.26.26,0,0,1-.11.1.5.5,0,0,1-.19,0Zm2.61-1a2,2,0,0,0-.07-.49,1.25,1.25,0,0,0-.22-.41,1.1,1.1,0,0,0-.38-.29,1.5,1.5,0,0,0-1.48.23,1.71,1.71,0,0,0-.43,1Z"/><path d="M44.75,60.06a3.58,3.58,0,0,1,1.2-.74,4.17,4.17,0,0,1,1.43-.24,2.57,2.57,0,0,1,1,.18,2.25,2.25,0,0,1,.74.5,2.19,2.19,0,0,1,.46.77,2.74,2.74,0,0,1,.16,1v3.88H49a.84.84,0,0,1-.36-.06.48.48,0,0,1-.2-.28l-.13-.39-.46.36a2.51,2.51,0,0,1-.45.26,2.66,2.66,0,0,1-.5.16,3.64,3.64,0,0,1-.6,0,2.17,2.17,0,0,1-.74-.11,1.55,1.55,0,0,1-.58-.32,1.47,1.47,0,0,1-.38-.53,2,2,0,0,1-.13-.73,1.41,1.41,0,0,1,.18-.68,1.66,1.66,0,0,1,.59-.63A4,4,0,0,1,46.35,62a7.72,7.72,0,0,1,1.77-.2V61.5a1.23,1.23,0,0,0-.25-.86.91.91,0,0,0-.71-.27,1.91,1.91,0,0,0-.57.08,2.4,2.4,0,0,0-.39.17l-.33.18a.74.74,0,0,1-.34.08.44.44,0,0,1-.29-.09.67.67,0,0,1-.2-.21Zm3.37,2.74a7.8,7.8,0,0,0-1,.1,2.42,2.42,0,0,0-.64.2.77.77,0,0,0-.33.27.57.57,0,0,0-.1.34.55.55,0,0,0,.2.5.85.85,0,0,0,.56.16,1.66,1.66,0,0,0,.72-.15,2.19,2.19,0,0,0,.6-.46Z"/><path d="M52.58,60.22a2.91,2.91,0,0,1,.68-.84,1.44,1.44,0,0,1,.9-.3,1,1,0,0,1,.68.2l-.1,1.22a.26.26,0,0,1-.1.17.29.29,0,0,1-.17,0l-.27,0-.34,0a1.2,1.2,0,0,0-.4.06,1.13,1.13,0,0,0-.32.19,1.8,1.8,0,0,0-.25.29c-.07.12-.14.25-.21.4v3.78H51V59.2h1a.5.5,0,0,1,.34.09.53.53,0,0,1,.14.31Z"/><path d="M57.09,59.92a3.09,3.09,0,0,1,.39-.33,2.26,2.26,0,0,1,.42-.26,2.35,2.35,0,0,1,.49-.17A2.47,2.47,0,0,1,59,59.1a2.13,2.13,0,0,1,.9.18,1.76,1.76,0,0,1,.66.48,2.24,2.24,0,0,1,.4.75,3.12,3.12,0,0,1,.13,1v3.92H59.39V61.46a1.22,1.22,0,0,0-.24-.81.86.86,0,0,0-.71-.28,1.44,1.44,0,0,0-.65.15,2.25,2.25,0,0,0-.58.42v4.44H55.55V59.2h1a.4.4,0,0,1,.42.29Z"/><path d="M64.26,57.44a.86.86,0,0,1-.09.39,1,1,0,0,1-.22.32,1.12,1.12,0,0,1-.33.22,1.1,1.1,0,0,1-.41.07,1,1,0,0,1-.38-.07,1.07,1.07,0,0,1-.32-.22.87.87,0,0,1-.22-.32,1,1,0,0,1,0-.78.87.87,0,0,1,.22-.32.8.8,0,0,1,.32-.22,1,1,0,0,1,.38-.08,1.11,1.11,0,0,1,.41.08.83.83,0,0,1,.33.22,1,1,0,0,1,.22.32A.86.86,0,0,1,64.26,57.44Zm-.2,1.76v6.18H62.4V59.2Z"/><path d="M67,59.92q.19-.18.39-.33a2.34,2.34,0,0,1,.43-.26,2.3,2.3,0,0,1,1-.23,2.11,2.11,0,0,1,.89.18,1.76,1.76,0,0,1,.66.48,2.08,2.08,0,0,1,.4.75,3.11,3.11,0,0,1,.14,1v3.92H69.32V61.46a1.22,1.22,0,0,0-.24-.81.88.88,0,0,0-.71-.28,1.52,1.52,0,0,0-.66.15,2.43,2.43,0,0,0-.58.42v4.44H65.48V59.2h1a.4.4,0,0,1,.41.29Z"/><path d="M77.79,59.4V60a.3.3,0,0,1-.08.23.57.57,0,0,1-.26.12l-.51.1a1.89,1.89,0,0,1,.1.63,1.92,1.92,0,0,1-.18.84,2.09,2.09,0,0,1-.52.63,2.61,2.61,0,0,1-.78.4,3.41,3.41,0,0,1-1,.14A2.93,2.93,0,0,1,74,63c-.17.11-.26.22-.26.35a.26.26,0,0,0,.18.25,1.48,1.48,0,0,0,.44.11,5.92,5.92,0,0,0,.64,0l.73,0a5.68,5.68,0,0,1,.72.11,2.12,2.12,0,0,1,.64.24,1.49,1.49,0,0,1,.45.45,1.46,1.46,0,0,1,.17.73,1.8,1.8,0,0,1-.2.81,2.39,2.39,0,0,1-.59.69,2.89,2.89,0,0,1-1,.49,3.87,3.87,0,0,1-1.28.19,5,5,0,0,1-1.24-.14,2.92,2.92,0,0,1-.87-.36,1.55,1.55,0,0,1-.51-.51,1.29,1.29,0,0,1-.17-.62,1,1,0,0,1,.25-.7,1.82,1.82,0,0,1,.7-.46,1.07,1.07,0,0,1-.38-.35,1,1,0,0,1-.14-.55,1.09,1.09,0,0,1,.2-.58,1.45,1.45,0,0,1,.62-.51,2.14,2.14,0,0,1-.75-.68,1.93,1.93,0,0,1-.08-1.82,1.76,1.76,0,0,1,.52-.63,2.36,2.36,0,0,1,.79-.4,3.53,3.53,0,0,1,1-.14,3.1,3.1,0,0,1,1.4.31Zm-1.64,6.24a.36.36,0,0,0-.1-.27.72.72,0,0,0-.27-.16,2.09,2.09,0,0,0-.41-.09l-.5,0-.54,0a5.09,5.09,0,0,1-.56,0,1.43,1.43,0,0,0-.34.3.59.59,0,0,0-.07.66.61.61,0,0,0,.23.22,1.36,1.36,0,0,0,.43.14,4,4,0,0,0,.66,0,4.44,4.44,0,0,0,.69,0,1.54,1.54,0,0,0,.46-.16.54.54,0,0,0,.24-.23A.64.64,0,0,0,76.15,65.64Zm-1.57-3.58a1,1,0,0,0,.76-.26.92.92,0,0,0,.24-.66.9.9,0,0,0-.24-.67,1.05,1.05,0,0,0-.76-.25,1,1,0,0,0-.75.25.9.9,0,0,0-.24.67.93.93,0,0,0,.25.66A1,1,0,0,0,74.58,62.06Z"/><path d="M78.65,66.86a.31.31,0,0,1-.09-.11.25.25,0,0,1,0-.13.21.21,0,0,1,0-.12l.09-.11.17-.18L79,66a2.75,2.75,0,0,0,.17-.29,1.2,1.2,0,0,0,.13-.33.86.86,0,0,1-.36-.08,1,1,0,0,1-.28-.21,1.19,1.19,0,0,1-.18-.29,1.15,1.15,0,0,1-.06-.37.77.77,0,0,1,.07-.34.7.7,0,0,1,.19-.27,1,1,0,0,1,.29-.18,1.17,1.17,0,0,1,.38-.07.94.94,0,0,1,.43.09,1,1,0,0,1,.3.23,1,1,0,0,1,.18.34,1.4,1.4,0,0,1,.06.41,2.27,2.27,0,0,1-.09.62,3.06,3.06,0,0,1-.27.66,3.72,3.72,0,0,1-.44.65,3.26,3.26,0,0,1-.6.57Z"/><path d="M92.38,61a4.7,4.7,0,0,1-.32,1.75,4,4,0,0,1-.91,1.38,4.32,4.32,0,0,1-1.4.9,4.89,4.89,0,0,1-1.83.32H84.57v-8.7h3.35a5.09,5.09,0,0,1,1.83.32,4.18,4.18,0,0,1,1.4.91,4.06,4.06,0,0,1,.91,1.37A4.78,4.78,0,0,1,92.38,61Zm-1.85,0a3.88,3.88,0,0,0-.18-1.23,2.64,2.64,0,0,0-.51-.92,2.3,2.3,0,0,0-.82-.59,3,3,0,0,0-1.1-.2H86.39V64h1.53a2.77,2.77,0,0,0,1.1-.2,2.16,2.16,0,0,0,.82-.58,2.6,2.6,0,0,0,.51-.93A3.88,3.88,0,0,0,90.53,61Z"/><path d="M94.73,62.55a1.93,1.93,0,0,0,.49,1.27,1.5,1.5,0,0,0,1.09.4,2.05,2.05,0,0,0,.59-.08,2.24,2.24,0,0,0,.44-.18l.34-.18a.67.67,0,0,1,.3-.08.36.36,0,0,1,.3.14l.48.6a2.31,2.31,0,0,1-.58.51,3.35,3.35,0,0,1-.66.32,3.44,3.44,0,0,1-.69.16,5.22,5.22,0,0,1-.67,0A3.42,3.42,0,0,1,95,65.26a2.75,2.75,0,0,1-1-.63,2.92,2.92,0,0,1-.65-1,3.74,3.74,0,0,1-.25-1.44A3.39,3.39,0,0,1,93.28,61a2.93,2.93,0,0,1,.6-1,2.81,2.81,0,0,1,1-.65,3,3,0,0,1,1.26-.25,3.2,3.2,0,0,1,1.09.19,2.53,2.53,0,0,1,.87.55,2.46,2.46,0,0,1,.56.89,3.37,3.37,0,0,1,.2,1.19,1.37,1.37,0,0,1,0,.31.47.47,0,0,1-.06.19.21.21,0,0,1-.11.1.5.5,0,0,1-.19,0Zm2.6-1a1.61,1.61,0,0,0-.07-.49,1.25,1.25,0,0,0-.22-.41,1,1,0,0,0-.38-.29,1.27,1.27,0,0,0-.54-.1,1.26,1.26,0,0,0-.93.33,1.72,1.72,0,0,0-.44,1Z"/><path d="M103.68,60.47a.5.5,0,0,1-.13.15.36.36,0,0,1-.19,0,.61.61,0,0,1-.25-.06l-.28-.13a3.58,3.58,0,0,0-.36-.13,1.58,1.58,0,0,0-.46-.05,1,1,0,0,0-.62.16.52.52,0,0,0-.23.43.42.42,0,0,0,.13.32,1.26,1.26,0,0,0,.33.22,4.24,4.24,0,0,0,.47.17l.55.18c.18.06.36.14.54.22a1.92,1.92,0,0,1,.47.31,1.39,1.39,0,0,1,.33.46,1.42,1.42,0,0,1,.13.65,2.09,2.09,0,0,1-.17.83,1.81,1.81,0,0,1-.48.65,2.32,2.32,0,0,1-.79.44,3.64,3.64,0,0,1-1.09.15,3.21,3.21,0,0,1-.63-.06,2.94,2.94,0,0,1-.6-.16,4.27,4.27,0,0,1-.53-.24,2.25,2.25,0,0,1-.42-.3l.38-.62a.55.55,0,0,1,.17-.17.46.46,0,0,1,.25-.06.54.54,0,0,1,.28.08l.28.16a2.16,2.16,0,0,0,.37.16,1.6,1.6,0,0,0,.53.08,1.22,1.22,0,0,0,.41-.06.78.78,0,0,0,.29-.14,1,1,0,0,0,.16-.21.7.7,0,0,0,0-.25.49.49,0,0,0-.13-.33,1.26,1.26,0,0,0-.34-.23,3.61,3.61,0,0,0-.47-.17l-.55-.17a5.31,5.31,0,0,1-.55-.23,1.8,1.8,0,0,1-.47-.33,1.64,1.64,0,0,1-.34-.5,1.67,1.67,0,0,1-.13-.71,1.8,1.8,0,0,1,.15-.73,1.76,1.76,0,0,1,.45-.61,2.09,2.09,0,0,1,.75-.42,3.23,3.23,0,0,1,1-.16,3.09,3.09,0,0,1,1.2.22,2.56,2.56,0,0,1,.89.56Z"/><path d="M107.05,57.44a1,1,0,0,1-.08.39,1.24,1.24,0,0,1-.23.32,1.12,1.12,0,0,1-.33.22,1.09,1.09,0,0,1-.4.07,1,1,0,0,1-.39-.07,1.21,1.21,0,0,1-.32-.22.87.87,0,0,1-.22-.32,1,1,0,0,1,0-.78,1.07,1.07,0,0,1,.54-.54,1,1,0,0,1,.39-.08,1.1,1.1,0,0,1,.4.08.83.83,0,0,1,.33.22,1.24,1.24,0,0,1,.23.32A1,1,0,0,1,107.05,57.44Zm-.2,1.76v6.18h-1.66V59.2Z"/><path d="M113.78,59.4V60a.34.34,0,0,1-.08.23.57.57,0,0,1-.27.12l-.5.1a1.89,1.89,0,0,1,.1.63,1.79,1.79,0,0,1-.19.84,2,2,0,0,1-.52.63,2.61,2.61,0,0,1-.78.4,3.34,3.34,0,0,1-1,.14A3.11,3.11,0,0,1,110,63c-.16.11-.25.22-.25.35a.27.27,0,0,0,.17.25,1.65,1.65,0,0,0,.45.11,5.92,5.92,0,0,0,.64,0l.72,0a5.84,5.84,0,0,1,.73.11,2.12,2.12,0,0,1,.64.24,1.61,1.61,0,0,1,.45.45,1.46,1.46,0,0,1,.17.73,1.69,1.69,0,0,1-.21.81,2.11,2.11,0,0,1-.59.69,2.84,2.84,0,0,1-1,.49,3.87,3.87,0,0,1-1.28.19,5,5,0,0,1-1.24-.14,2.92,2.92,0,0,1-.87-.36,1.55,1.55,0,0,1-.51-.51,1.19,1.19,0,0,1-.17-.62,1,1,0,0,1,.25-.7,1.82,1.82,0,0,1,.7-.46,1,1,0,0,1-.52-.9,1.09,1.09,0,0,1,.2-.58,1.39,1.39,0,0,1,.62-.51,2.14,2.14,0,0,1-.75-.68,1.79,1.79,0,0,1-.27-1,1.74,1.74,0,0,1,.71-1.46,2.27,2.27,0,0,1,.79-.4,3.53,3.53,0,0,1,1-.14,3.1,3.1,0,0,1,1.4.31Zm-1.64,6.24a.41.41,0,0,0-.1-.27.69.69,0,0,0-.28-.16,2,2,0,0,0-.4-.09l-.5,0-.55,0a5.09,5.09,0,0,1-.55,0,1.43,1.43,0,0,0-.34.3.6.6,0,0,0-.14.39.5.5,0,0,0,.07.27.55.55,0,0,0,.23.22,1.36,1.36,0,0,0,.43.14,3.86,3.86,0,0,0,.66,0,4.44,4.44,0,0,0,.69,0,1.38,1.38,0,0,0,.45-.16.56.56,0,0,0,.25-.23A.64.64,0,0,0,112.14,65.64Zm-1.57-3.58a1,1,0,0,0,.75-.26.89.89,0,0,0,.25-.66.87.87,0,0,0-.25-.67,1.25,1.25,0,0,0-1.5,0,.9.9,0,0,0-.24.67.92.92,0,0,0,.24.66A1,1,0,0,0,110.57,62.06Z"/><path d="M116.18,59.92a4,4,0,0,1,.39-.33,2.26,2.26,0,0,1,.42-.26,2.58,2.58,0,0,1,.49-.17,2.49,2.49,0,0,1,.57-.06,2.11,2.11,0,0,1,.89.18,1.76,1.76,0,0,1,.66.48,2.08,2.08,0,0,1,.4.75,3.11,3.11,0,0,1,.14,1v3.92h-1.66V61.46a1.28,1.28,0,0,0-.23-.81.88.88,0,0,0-.71-.28,1.52,1.52,0,0,0-.66.15,2.25,2.25,0,0,0-.58.42v4.44h-1.65V59.2h1a.4.4,0,0,1,.41.29Z"/><path d="M132.35,65.38H130.5a.48.48,0,0,1-.18,0l-.17-.1-.16-.15-.49-.52a4.32,4.32,0,0,1-1.27.68,4.46,4.46,0,0,1-1.48.24,3,3,0,0,1-1-.18,2.6,2.6,0,0,1-.87-.5,2.53,2.53,0,0,1-.62-.79A2.25,2.25,0,0,1,124,63a2.37,2.37,0,0,1,.12-.76,2.89,2.89,0,0,1,.36-.67,3.23,3.23,0,0,1,.55-.56,4,4,0,0,1,.69-.43,3.05,3.05,0,0,1-.44-.86,2.79,2.79,0,0,1-.14-.84,2.36,2.36,0,0,1,.17-.87,2.05,2.05,0,0,1,.49-.72,2.36,2.36,0,0,1,.78-.49,2.91,2.91,0,0,1,1.06-.18,2.68,2.68,0,0,1,1,.17,2.19,2.19,0,0,1,1.21,1.07,2.09,2.09,0,0,1,.2.74l-1.05.21a.36.36,0,0,1-.43-.24,1.41,1.41,0,0,0-.33-.51.83.83,0,0,0-.58-.2,1.07,1.07,0,0,0-.41.08.84.84,0,0,0-.3.22.94.94,0,0,0-.19.32,1.23,1.23,0,0,0-.06.39,1.66,1.66,0,0,0,0,.32,1.52,1.52,0,0,0,.11.32,2.36,2.36,0,0,0,.2.32,2.48,2.48,0,0,0,.31.36l2.23,2.34a3.42,3.42,0,0,0,.3-.77,4.64,4.64,0,0,0,.14-.83.44.44,0,0,1,.11-.25.3.3,0,0,1,.23-.09h1a5,5,0,0,1-.23,1.57,5.31,5.31,0,0,1-.64,1.36Zm-5.87-4a1.84,1.84,0,0,0-.6.66,1.67,1.67,0,0,0-.18.76,1.64,1.64,0,0,0,.1.56,1.26,1.26,0,0,0,.71.7,1.55,1.55,0,0,0,.53.09,2.73,2.73,0,0,0,.87-.13,2.57,2.57,0,0,0,.73-.39Z"/><path d="M141.91,58.13h-2.55v7.25h-1.8V58.13H135V56.68h6.89Z"/><path d="M142.65,62.55a1.93,1.93,0,0,0,.5,1.27,1.5,1.5,0,0,0,1.09.4,2.1,2.1,0,0,0,.59-.08,2.53,2.53,0,0,0,.44-.18l.34-.18a.67.67,0,0,1,.3-.08.36.36,0,0,1,.3.14l.48.6a2.5,2.5,0,0,1-.58.51,3.35,3.35,0,0,1-.66.32,3.44,3.44,0,0,1-.69.16,5.22,5.22,0,0,1-.67,0,3.38,3.38,0,0,1-1.21-.21,2.67,2.67,0,0,1-1-.63,2.94,2.94,0,0,1-.66-1,4,4,0,0,1-.24-1.44,3.39,3.39,0,0,1,.21-1.19,2.93,2.93,0,0,1,.6-1,2.87,2.87,0,0,1,.94-.65A3.06,3.06,0,0,1,144,59.1a3.2,3.2,0,0,1,1.09.19,2.42,2.42,0,0,1,1.43,1.44,3.37,3.37,0,0,1,.2,1.19,2.41,2.41,0,0,1,0,.31.47.47,0,0,1-.06.19.26.26,0,0,1-.11.1.5.5,0,0,1-.19,0Zm2.61-1a2,2,0,0,0-.07-.49,1.25,1.25,0,0,0-.22-.41,1.1,1.1,0,0,0-.38-.29,1.5,1.5,0,0,0-1.48.23,1.71,1.71,0,0,0-.43,1Z"/><path d="M152.25,60.58a.67.67,0,0,1-.14.15.41.41,0,0,1-.21.05.51.51,0,0,1-.23-.07,1.83,1.83,0,0,0-.25-.15,1.52,1.52,0,0,0-.34-.15,1.47,1.47,0,0,0-.5-.07,1.44,1.44,0,0,0-.64.13,1.2,1.2,0,0,0-.45.39,1.8,1.8,0,0,0-.27.61,3.35,3.35,0,0,0-.09.81,2.42,2.42,0,0,0,.38,1.46,1.26,1.26,0,0,0,1.05.5,1.51,1.51,0,0,0,.39,0l.29-.1a1.07,1.07,0,0,0,.21-.13l.17-.13a.7.7,0,0,1,.16-.1.39.39,0,0,1,.18,0,.36.36,0,0,1,.3.14l.48.6a2.46,2.46,0,0,1-.57.51,2.8,2.8,0,0,1-.62.32,2.94,2.94,0,0,1-.65.16,4.82,4.82,0,0,1-.65,0,2.81,2.81,0,0,1-1.08-.21,2.51,2.51,0,0,1-.89-.62,2.86,2.86,0,0,1-.61-1,3.84,3.84,0,0,1-.23-1.36,4,4,0,0,1,.2-1.26,2.81,2.81,0,0,1,.58-1,2.7,2.7,0,0,1,.95-.66,3.19,3.19,0,0,1,1.31-.25,3.24,3.24,0,0,1,1.25.23,2.91,2.91,0,0,1,1,.66Z"/><path d="M155.23,59.8l.36-.28a2.24,2.24,0,0,1,.4-.22,3.53,3.53,0,0,1,.46-.15,2.89,2.89,0,0,1,.53,0,2.11,2.11,0,0,1,.89.18,1.76,1.76,0,0,1,.66.48,2.24,2.24,0,0,1,.4.75,3.12,3.12,0,0,1,.13,1v3.92h-1.65V61.46a1.22,1.22,0,0,0-.24-.81.86.86,0,0,0-.7-.28,1.49,1.49,0,0,0-.66.15,2.25,2.25,0,0,0-.58.42v4.44h-1.66V56.44h1.66Z"/><path d="M161.91,59.92q.19-.18.39-.33a2.34,2.34,0,0,1,.43-.26,2.48,2.48,0,0,1,.48-.17,2.56,2.56,0,0,1,.57-.06,2.11,2.11,0,0,1,.89.18,1.76,1.76,0,0,1,.66.48,2.08,2.08,0,0,1,.4.75,3.11,3.11,0,0,1,.14,1v3.92h-1.65V61.46a1.22,1.22,0,0,0-.24-.81.88.88,0,0,0-.71-.28,1.52,1.52,0,0,0-.66.15,2.43,2.43,0,0,0-.58.42v4.44h-1.65V59.2h1a.39.39,0,0,1,.41.29Z"/><path d="M170,59.1a3.46,3.46,0,0,1,1.27.23,2.55,2.55,0,0,1,1,.63,2.59,2.59,0,0,1,.63,1,3.93,3.93,0,0,1,0,2.65,2.62,2.62,0,0,1-.63,1,2.67,2.67,0,0,1-1,.63,3.46,3.46,0,0,1-1.27.22,3.42,3.42,0,0,1-1.27-.22,2.75,2.75,0,0,1-1-.63,2.89,2.89,0,0,1-.63-1,4.1,4.1,0,0,1,0-2.65,2.84,2.84,0,0,1,.63-1,2.62,2.62,0,0,1,1-.63A3.42,3.42,0,0,1,170,59.1Zm0,5.13a1.19,1.19,0,0,0,1.05-.49,3.26,3.26,0,0,0,0-2.9,1.19,1.19,0,0,0-1.05-.49,1.21,1.21,0,0,0-1.07.49,3.26,3.26,0,0,0,0,2.9A1.21,1.21,0,0,0,170,64.23Z"/><path d="M175.78,56.44v8.94h-1.66V56.44Z"/><path d="M180,59.1a3.4,3.4,0,0,1,1.26.23,2.59,2.59,0,0,1,1,.63,2.84,2.84,0,0,1,.63,1,4.1,4.1,0,0,1,0,2.65,2.89,2.89,0,0,1-.63,1,2.71,2.71,0,0,1-1,.63,3.4,3.4,0,0,1-1.26.22,3.51,3.51,0,0,1-1.28-.22,2.71,2.71,0,0,1-1-.63,2.89,2.89,0,0,1-.63-1,3.93,3.93,0,0,1,0-2.65,2.84,2.84,0,0,1,.63-1,2.59,2.59,0,0,1,1-.63A3.51,3.51,0,0,1,180,59.1Zm0,5.13a1.19,1.19,0,0,0,1.05-.49,3.26,3.26,0,0,0,0-2.9,1.19,1.19,0,0,0-1.05-.49,1.2,1.2,0,0,0-1.07.49,3.26,3.26,0,0,0,0,2.9A1.2,1.2,0,0,0,180,64.23Z"/><path d="M189.55,59.4V60a.34.34,0,0,1-.08.23.68.68,0,0,1-.27.12l-.5.1a2.19,2.19,0,0,1,.1.63,1.92,1.92,0,0,1-.19.84,2.09,2.09,0,0,1-.52.63,2.61,2.61,0,0,1-.78.4,3.34,3.34,0,0,1-1,.14,3,3,0,0,1-.62-.06c-.17.11-.25.22-.25.35a.27.27,0,0,0,.17.25,1.48,1.48,0,0,0,.45.11,5.92,5.92,0,0,0,.64,0l.72,0a5.84,5.84,0,0,1,.73.11,2.06,2.06,0,0,1,.63.24,1.38,1.38,0,0,1,.45.45,1.36,1.36,0,0,1,.17.73,1.68,1.68,0,0,1-.2.81,2.24,2.24,0,0,1-.59.69,2.94,2.94,0,0,1-.95.49,4,4,0,0,1-1.29.19,5,5,0,0,1-1.23-.14,2.92,2.92,0,0,1-.87-.36,1.59,1.59,0,0,1-.52-.51,1.29,1.29,0,0,1-.17-.62,1,1,0,0,1,.26-.7,1.78,1.78,0,0,1,.69-.46,1,1,0,0,1-.37-.35.92.92,0,0,1-.14-.55,1,1,0,0,1,.2-.58,1.39,1.39,0,0,1,.62-.51,2,2,0,0,1-.75-.68,1.72,1.72,0,0,1-.28-1,1.78,1.78,0,0,1,.72-1.46,2.18,2.18,0,0,1,.79-.4,3.43,3.43,0,0,1,1-.14,3.14,3.14,0,0,1,1.4.31Zm-1.65,6.24a.36.36,0,0,0-.1-.27.72.72,0,0,0-.27-.16,1.93,1.93,0,0,0-.41-.09l-.49,0-.55,0a4.91,4.91,0,0,1-.55,0,1.49,1.49,0,0,0-.35.3.59.59,0,0,0-.13.39.55.55,0,0,0,.3.49,1.38,1.38,0,0,0,.42.14,4,4,0,0,0,.66,0,4.25,4.25,0,0,0,.69,0,1.54,1.54,0,0,0,.46-.16.56.56,0,0,0,.25-.23A.63.63,0,0,0,187.9,65.64Zm-1.56-3.58a1,1,0,0,0,.75-.26.92.92,0,0,0,.24-.66.9.9,0,0,0-.24-.67,1.25,1.25,0,0,0-1.5,0,.9.9,0,0,0-.24.67.92.92,0,0,0,.24.66A1,1,0,0,0,186.34,62.06Z"/><path d="M196.15,59.2l-3.34,7.85a.62.62,0,0,1-.19.25.62.62,0,0,1-.35.08H191l1.17-2.49-2.48-5.69h1.45a.5.5,0,0,1,.31.09.51.51,0,0,1,.15.21l1.18,3,.12.35.09.35c.08-.24.16-.47.25-.71l1.09-3a.42.42,0,0,1,.18-.22.5.5,0,0,1,.27-.08Z"/></g></g></svg>