<svg xmlns="http://www.w3.org/2000/svg" viewBox="0 0 166.77 35.53"><defs><style>.cls-1,.cls-3{fill:#89b8e3;}.cls-2{fill:#00597f;}.cls-3{stroke:#00597f;stroke-miterlimit:10;}</style></defs><g id="Layer_2" data-name="Layer 2"><g id="Layer_1-2" data-name="Layer 1"><path class="cls-1" d="M.54,17.53l8.69-.43.29,5.84-3.85.18,0,.95,3.85-.19L9.77,28l-3.85.19,0,1L9.82,29l.27,5.55L1.4,35Z"/><path class="cls-2" d="M10.63,35.05l-9.72.48L0,17l9.72-.48Zm-8.74-.61,7.66-.37-.22-4.52-3.85.19-.1-2,3.85-.19-.16-3.11-3.85.19-.09-2L9,22.44l-.24-4.8L1.08,18Z"/><path class="cls-1" d="M10.44,17l4.82-.23c2.42-.12,5.77.61,6,5.26A5.76,5.76,0,0,1,20,26.29L23,33.92,18,34.17l-2-5.65h-.07l.29,5.74-4.84.24ZM16,24.5c.76,0,1.07-.66,1-1.4s-.42-1.31-1.17-1.27h-.35l.13,2.68Z"/><path class="cls-2" d="M23.79,34.4l-6.19.31-1.07-3,.15,3L10.8,35,9.9,16.55l5.34-.26c4-.2,6.34,1.9,6.53,5.75a6.46,6.46,0,0,1-1.2,4.34Zm-5.48-.77,4-.19-2.91-7.25.21-.24a5.29,5.29,0,0,0,1.15-3.86c-.21-4.15-3.08-4.88-5.45-4.77L11,17.53,11.79,34l3.8-.19L15.31,28l.9,0,.2.35ZM16,25l-.87,0L15,21.35l.88,0a1.64,1.64,0,0,1,1.71,1.76A1.64,1.64,0,0,1,16,25Z"/><path class="cls-1" d="M22.69,16.44l4.4-.22,3.83,7.28,0,0-.36-7.43,4.35-.21.86,17.45-4.41.22-3.82-7.28,0,0,.36,7.42-4.35.22Z"/><path class="cls-2" d="M36.34,33.79,31.09,34l-2.93-5.56.28,5.69-5.38.27L22.15,16l5.25-.26,2.92,5.57L30,15.56l5.39-.26ZM31.7,33l3.56-.18-.81-16.42-3.32.16.35,7.17-.69.57-.33-.53-3.67-7-3.56.17L24,33.35l3.32-.16L27,26l.69-.57L28,26Z"/><path class="cls-1" d="M36.37,15.77l8.69-.43.29,5.84-3.85.19,0,.94,3.85-.19.2,4.14-3.85.19,0,1,3.85-.19.27,5.55-8.69.42Z"/><path class="cls-2" d="M46.46,33.29l-9.72.48-.91-18.49,9.73-.48Zm-8.74-.61,7.66-.37-.22-4.52L41.31,28l-.1-2,3.85-.19-.15-3.11-3.85.19-.1-2,3.85-.18-.24-4.81-7.66.38Z"/><path class="cls-1" d="M46.81,25.65a6.66,6.66,0,0,0,4,1.88c.49,0,.59-.32.57-.61a.51.51,0,0,0-.38-.53,6.22,6.22,0,0,1-3.52-1.89,5.81,5.81,0,0,1-1.21-3.58c-.18-3.5,1.53-6,4.5-6.12A7.44,7.44,0,0,1,55,16l.28,5.71a7.12,7.12,0,0,0-3.63-1.37c-.48,0-.59.3-.58.56a.61.61,0,0,0,.4.59,6.92,6.92,0,0,1,3.36,1.69,5.73,5.73,0,0,1,1.37,3.7c.17,3.36-1.54,5.78-4.63,5.94a7.79,7.79,0,0,1-4.47-1.21Z"/><path class="cls-2" d="M51.6,33.3A8.22,8.22,0,0,1,46.8,32l-.2-.14-.37-7.4.92.8A6.3,6.3,0,0,0,50.75,27l.07-.15a3,3,0,0,1-.34-.07,6.09,6.09,0,0,1-3.42-1.95,6.37,6.37,0,0,1-1.34-3.9c-.19-3.89,1.77-6.5,5-6.66a8,8,0,0,1,4.58,1.26l.21.15.35,7L55,22.11a6.7,6.7,0,0,0-3.32-1.28l-.07.11a2.16,2.16,0,0,0,.43.14,6.48,6.48,0,0,1,3.18,1.72,6.22,6.22,0,0,1,1.51,4C56.9,30.6,54.89,33.14,51.6,33.3Zm-4-2a7.35,7.35,0,0,0,3.95,1c2.71-.13,4.29-2.2,4.13-5.39a5.17,5.17,0,0,0-1.23-3.38,5.38,5.38,0,0,0-2.7-1.42l-.46-.14a1.13,1.13,0,0,1-.74-1,1,1,0,0,1,1.07-1.11,6.75,6.75,0,0,1,3.09.95l-.22-4.48a7.07,7.07,0,0,0-3.72-1c-2.64.13-4.18,2.27-4,5.58a5.34,5.34,0,0,0,1.1,3.28,5.11,5.11,0,0,0,2.88,1.62l.4.11a1,1,0,0,1,.74,1,1,1,0,0,1-1.07,1.15,6.3,6.3,0,0,1-3.42-1.3Z"/><path class="cls-1" d="M59.51,20.58l-3.28.16-.29-5.93,11.4-.56.29,5.93-3.28.16.57,11.52-4.84.24Z"/><path class="cls-2" d="M65.46,32.36l-5.88.28L59,21.12l-3.28.16-.35-7,12.44-.61.35,7-3.29.16Zm-4.89-.8,3.8-.19-.56-11.52,3.28-.16-.24-4.9-10.37.51.24,4.9L60,20Z"/><path class="cls-1" d="M74.58,13.63c3.68-.18,6.75,3.6,7,8.67s-2.43,9.13-6.12,9.31-6.76-3.61-7-8.67S70.89,13.81,74.58,13.63Zm.58,11.81c1-.05,1.76-1.29,1.68-2.79S75.9,20,74.89,20s-1.76,1.29-1.69,2.79S74.15,25.49,75.16,25.44Z"/><path class="cls-2" d="M75.48,32.13c-4,.19-7.28-3.83-7.54-9.16s2.64-9.66,6.61-9.86,7.29,3.83,7.55,9.16S79.46,31.93,75.48,32.13Zm-.88-18c-3.39.17-5.86,4-5.63,8.78S72,31.26,75.43,31.1s5.87-4,5.64-8.78S78,14,74.6,14.14ZM75.18,26c-1.31.06-2.4-1.3-2.49-3.1s.87-3.27,2.18-3.34,2.4,1.3,2.49,3.11S76.49,25.89,75.18,26Z"/><path class="cls-1" d="M97.49,23.16a6.66,6.66,0,0,0,4,1.88c.49,0,.59-.32.57-.61a.5.5,0,0,0-.38-.53A6.21,6.21,0,0,1,98.14,22a5.8,5.8,0,0,1-1.22-3.59c-.17-3.5,1.53-6,4.5-6.12a7.44,7.44,0,0,1,4.26,1.17l.28,5.71a7.12,7.12,0,0,0-3.63-1.37c-.47,0-.59.3-.58.56a.63.63,0,0,0,.4.59,6.92,6.92,0,0,1,3.36,1.69,5.63,5.63,0,0,1,1.37,3.71c.17,3.35-1.54,5.78-4.62,5.93a7.72,7.72,0,0,1-4.48-1.21Z"/><path class="cls-2" d="M102.28,30.81a8,8,0,0,1-4.79-1.3l-.21-.14L96.92,22l.91.8a6.41,6.41,0,0,0,3.6,1.76l.07-.16a1.51,1.51,0,0,1-.33-.07,6.08,6.08,0,0,1-3.43-1.95,6.37,6.37,0,0,1-1.34-3.9c-.19-3.89,1.77-6.5,5-6.66A8,8,0,0,1,106,13.05l.21.15.35,7-.86-.57a6.67,6.67,0,0,0-3.32-1.28l-.06.11a2.07,2.07,0,0,0,.42.14,6.48,6.48,0,0,1,3.18,1.72,6.16,6.16,0,0,1,1.51,4C107.58,28.11,105.58,30.65,102.28,30.81Zm-4-2a7.2,7.2,0,0,0,3.94,1c2.71-.13,4.29-2.2,4.14-5.39A5.2,5.2,0,0,0,105.13,21a5.56,5.56,0,0,0-2.69-1.42l-.47-.14a1.11,1.11,0,0,1-.73-1,1,1,0,0,1,1.06-1.1,6.61,6.61,0,0,1,3.1.94l-.22-4.48a7.1,7.1,0,0,0-3.73-.94c-2.64.13-4.18,2.26-4,5.57a5.39,5.39,0,0,0,1.1,3.29,5.14,5.14,0,0,0,2.89,1.61,4,4,0,0,1,.39.11,1,1,0,0,1,.74,1,1,1,0,0,1-1.06,1.15,6.29,6.29,0,0,1-3.43-1.3Z"/><path class="cls-1" d="M113.61,11.71c3.69-.18,6.75,3.61,7,8.67s-2.43,9.13-6.12,9.32-6.76-3.61-7-8.68S109.92,11.89,113.61,11.71Zm.58,11.81c1-.05,1.76-1.29,1.68-2.79s-.94-2.66-2-2.61-1.76,1.3-1.68,2.79S113.18,23.57,114.19,23.52Z"/><path class="cls-2" d="M114.52,30.21c-4,.2-7.29-3.83-7.55-9.16s2.64-9.66,6.61-9.86,7.29,3.83,7.55,9.17S118.49,30,114.52,30.21Zm-.89-18c-3.39.16-5.86,4-5.63,8.77s3.07,8.35,6.47,8.18,5.86-4,5.63-8.77S117,12.06,113.63,12.23ZM114.21,24c-1.31.06-2.4-1.3-2.49-3.1s.87-3.27,2.18-3.33,2.4,1.3,2.49,3.1S115.52,24,114.21,24Z"/><path class="cls-1" d="M124.44,17.39l-3.28.16-.29-5.93,11.4-.56.29,5.93-3.28.16.57,11.53-4.84.23Z"/><path class="cls-2" d="M130.39,29.17l-5.87.29L124,17.93l-3.28.16-.34-7,12.43-.61.35,7-3.28.16Zm-4.89-.8,3.81-.19-.57-11.52L132,16.5l-.24-4.9-10.37.51.24,4.9,3.28-.16Z"/><path class="cls-1" d="M133.54,11l8.72-.43.28,5.83-3.87.19.05.94,3.85-.18.2,4.14-3.85.19.05,1,3.85-.19.27,5.55-8.69.42Z"/><path class="cls-2" d="M143.63,28.52l-9.72.47L133,10.51l9.75-.48Zm-8.74-.61,7.66-.38L142.33,23l-3.85.19-.1-2,3.85-.19-.15-3.11-3.85.19-.1-2,3.87-.19-.23-4.8-7.69.38Z"/><path class="cls-1" d="M143.44,10.51l4.84-.24.55,11.26,3.64-.18.31,6.2L144.3,28Z"/><path class="cls-2" d="M153.32,28l-9.51.47L142.9,10l5.87-.29L149.32,21l3.64-.18Zm-8.53-.62,7.44-.36L152,21.9l-3.64.17-.55-11.25L144,11Z"/><path class="cls-1" d="M159.24,9.47c3.68-.18,6.75,3.61,7,8.67s-2.43,9.13-6.12,9.32-6.76-3.61-7-8.68S155.55,9.65,159.24,9.47Zm.58,11.81c1-.05,1.76-1.29,1.68-2.79s-.94-2.66-1.95-2.61-1.76,1.3-1.69,2.79S158.81,21.33,159.82,21.28Z"/><path class="cls-2" d="M160.14,28c-4,.2-7.28-3.83-7.54-9.16s2.64-9.66,6.61-9.86,7.28,3.83,7.55,9.16S164.11,27.78,160.14,28Zm-.88-18c-3.39.16-5.86,4-5.63,8.77s3.07,8.35,6.46,8.18,5.87-4,5.63-8.77S162.65,9.82,159.26,10Zm.58,11.81c-1.31.06-2.41-1.3-2.49-3.1s.87-3.27,2.17-3.33,2.41,1.29,2.5,3.1S161.15,21.74,159.84,21.8Z"/><rect class="cls-3" x="79.7" y="24.88" width="9.88" height="2.53" transform="translate(104.18 -60.26) rotate(85.58)"/><rect class="cls-3" x="85.4" y="25.32" width="8.24" height="2.53" transform="translate(109.13 -64.71) rotate(85.58)"/><rect class="cls-3" x="89.32" y="24.13" width="9.88" height="2.53" transform="translate(112.33 -70.54) rotate(85.58)"/><circle class="cls-1" cx="88.33" cy="11.28" r="10.74"/><path class="cls-2" d="M89.2,22.53A11.28,11.28,0,1,1,99.58,10.41,11.3,11.3,0,0,1,89.2,22.53ZM87.55,1.12A10.19,10.19,0,1,0,98.49,10.5,10.22,10.22,0,0,0,87.55,1.12Z"/><path class="cls-2" d="M90.15,19l-.52-6.75.77-.06a3.46,3.46,0,0,1,3.88,3l0,.25A3.45,3.45,0,0,1,90.92,19Z"/><rect class="cls-2" x="87.53" y="15.65" width="2.49" height="3.48" transform="translate(-1.08 6.89) rotate(-4.42)"/><rect class="cls-2" x="86.58" y="3.44" width="2.49" height="3.48" transform="matrix(1, -0.08, 0.08, 1, -0.14, 6.78)"/><path class="cls-2" d="M86.23,10.37a3.47,3.47,0,0,1-3.85-3l0-.25a3.46,3.46,0,0,1,3.35-3.53l.74,0L87,10.32Z"/></g></g></svg>