<svg xmlns="http://www.w3.org/2000/svg" viewBox="0 0 166.77 33.86"><defs><style>.cls-1{fill:#89b8e3;}.cls-2{fill:#00597f;}</style></defs><g id="Layer_2" data-name="Layer 2"><g id="Layer_1-2" data-name="Layer 1"><path class="cls-1" d="M.54,15.87l8.69-.43.29,5.84-3.85.18,0,.95,3.85-.19.2,4.14-3.85.19,0,1,3.85-.19.27,5.55-8.69.42Z"/><path class="cls-2" d="M10.63,33.39l-9.72.47L0,15.38l9.72-.48Zm-8.74-.61,7.66-.38-.22-4.51-3.85.19-.1-2,3.85-.19-.16-3.11L5.22,23l-.09-2L9,20.78,8.74,16l-7.66.38Z"/><path class="cls-1" d="M10.44,15.38l4.82-.23c2.42-.12,5.77.61,6,5.26A5.76,5.76,0,0,1,20,24.63L23,32.26,18,32.51l-2-5.65h-.07l.29,5.74-4.84.24ZM16,22.84c.76,0,1.07-.66,1-1.4s-.42-1.31-1.17-1.27h-.35l.13,2.68Z"/><path class="cls-2" d="M23.79,32.74l-6.19.31-1.07-3,.15,3-5.88.29L9.9,14.89l5.34-.26c4-.2,6.34,1.9,6.53,5.75a6.46,6.46,0,0,1-1.2,4.34ZM18.31,32l4-.19-2.91-7.25.21-.24a5.29,5.29,0,0,0,1.15-3.86c-.21-4.15-3.08-4.88-5.45-4.77L11,15.87l.81,16.43,3.8-.19-.28-5.74.9,0,.2.35ZM16,23.36l-.87,0L15,19.69l.88,0a1.64,1.64,0,0,1,1.71,1.76A1.64,1.64,0,0,1,16,23.36Z"/><path class="cls-1" d="M22.69,14.78l4.4-.22,3.83,7.28,0,0-.36-7.43,4.35-.21.86,17.45-4.41.22-3.82-7.28,0,0L27.9,32l-4.35.22Z"/><path class="cls-2" d="M36.34,32.13l-5.25.25-2.93-5.56.28,5.69-5.38.27-.91-18.49L27.4,14l2.92,5.57L30,13.9l5.39-.26Zm-4.64-.81,3.56-.18-.81-16.42-3.32.16.35,7.17-.69.57-.33-.53-3.67-7-3.56.17L24,31.69l3.32-.16L27,24.36l.69-.57.33.54Z"/><path class="cls-1" d="M36.37,14.11l8.69-.43.29,5.84-3.85.19,0,.94,3.85-.19.2,4.14-3.85.19,0,1,3.85-.19.27,5.55-8.69.42Z"/><path class="cls-2" d="M46.46,31.63l-9.72.48-.91-18.49,9.73-.48ZM37.72,31l7.66-.37-.22-4.52-3.85.19-.1-2,3.85-.19L44.91,21l-3.85.19-.1-2L44.81,19l-.24-4.8-7.66.38Z"/><path class="cls-1" d="M46.81,24a6.66,6.66,0,0,0,4,1.88c.49,0,.59-.32.57-.61a.51.51,0,0,0-.38-.53,6.22,6.22,0,0,1-3.52-1.89,5.81,5.81,0,0,1-1.21-3.58c-.18-3.5,1.53-6,4.5-6.12A7.44,7.44,0,0,1,55,14.31L55.28,20a7.12,7.12,0,0,0-3.63-1.37c-.48,0-.59.3-.58.56a.61.61,0,0,0,.4.59,6.92,6.92,0,0,1,3.36,1.69,5.73,5.73,0,0,1,1.37,3.7c.17,3.36-1.54,5.78-4.63,5.94a7.79,7.79,0,0,1-4.47-1.21Z"/><path class="cls-2" d="M51.6,31.64a8.22,8.22,0,0,1-4.8-1.3l-.2-.14-.37-7.4.92.8a6.3,6.3,0,0,0,3.6,1.75l.07-.15a3,3,0,0,1-.34-.07,6.09,6.09,0,0,1-3.42-1.95,6.37,6.37,0,0,1-1.34-3.9c-.19-3.89,1.77-6.5,5-6.66a8,8,0,0,1,4.58,1.26l.21.15.35,7L55,20.45a6.7,6.7,0,0,0-3.32-1.28l-.07.11a2.16,2.16,0,0,0,.43.14,6.48,6.48,0,0,1,3.18,1.72,6.22,6.22,0,0,1,1.51,4C56.9,28.94,54.89,31.48,51.6,31.64Zm-4-2a7.35,7.35,0,0,0,3.95,1c2.71-.13,4.29-2.2,4.13-5.39a5.17,5.17,0,0,0-1.23-3.38,5.38,5.38,0,0,0-2.7-1.42l-.46-.14a1.13,1.13,0,0,1-.74-1,1,1,0,0,1,1.07-1.11,6.75,6.75,0,0,1,3.09.95l-.22-4.48a7.07,7.07,0,0,0-3.72-.95c-2.64.13-4.18,2.27-4,5.58a5.34,5.34,0,0,0,1.1,3.28,5.11,5.11,0,0,0,2.88,1.62l.4.11a1,1,0,0,1,.74,1,1,1,0,0,1-1.07,1.15,6.3,6.3,0,0,1-3.42-1.3Z"/><path class="cls-1" d="M59.51,18.92l-3.28.16-.29-5.93,11.4-.56.29,5.93-3.28.16.57,11.52-4.84.24Z"/><path class="cls-2" d="M65.46,30.7,59.58,31,59,19.46l-3.28.16-.35-7,12.44-.61.35,7-3.29.16Zm-4.89-.8,3.8-.19-.56-11.52L67.09,18l-.24-4.9-10.37.51.24,4.9L60,18.38Z"/><path class="cls-1" d="M74.58,12c3.68-.18,6.75,3.6,7,8.67S79.15,29.77,75.46,30s-6.76-3.61-7-8.67S70.89,12.15,74.58,12Zm.58,11.81c1-.05,1.76-1.29,1.68-2.79s-.94-2.66-2-2.61-1.76,1.29-1.69,2.79S74.15,23.83,75.16,23.78Z"/><path class="cls-2" d="M75.48,30.47c-4,.19-7.28-3.83-7.54-9.16s2.64-9.66,6.61-9.86,7.29,3.83,7.55,9.16S79.46,30.27,75.48,30.47Zm-.88-18c-3.39.17-5.86,4-5.63,8.78S72,29.6,75.43,29.44s5.87-4,5.64-8.78S78,12.32,74.6,12.48Zm.58,11.82c-1.31.06-2.4-1.3-2.49-3.11s.87-3.26,2.18-3.33,2.4,1.3,2.49,3.11S76.49,24.23,75.18,24.3Z"/><path class="cls-1" d="M97.49,21.5a6.66,6.66,0,0,0,4,1.88c.49,0,.59-.32.57-.61a.5.5,0,0,0-.38-.53,6.21,6.21,0,0,1-3.51-1.88,5.8,5.8,0,0,1-1.22-3.59c-.17-3.5,1.53-6,4.5-6.12a7.44,7.44,0,0,1,4.26,1.17l.28,5.71a7.12,7.12,0,0,0-3.63-1.37c-.47,0-.59.3-.58.56a.63.63,0,0,0,.4.59A6.92,6.92,0,0,1,105.51,19a5.63,5.63,0,0,1,1.37,3.71c.17,3.35-1.54,5.78-4.62,5.93a7.72,7.72,0,0,1-4.48-1.21Z"/><path class="cls-2" d="M102.28,29.15a8.11,8.11,0,0,1-4.79-1.3l-.21-.14-.36-7.4.91.8a6.41,6.41,0,0,0,3.6,1.76l.07-.16a2.46,2.46,0,0,1-.33-.07,6.08,6.08,0,0,1-3.43-1.95,6.37,6.37,0,0,1-1.34-3.9c-.19-3.89,1.77-6.5,5-6.66A8,8,0,0,1,106,11.39l.21.15.35,7-.86-.57a6.67,6.67,0,0,0-3.32-1.28l-.06.11a2.07,2.07,0,0,0,.42.14,6.48,6.48,0,0,1,3.18,1.72,6.16,6.16,0,0,1,1.51,4C107.58,26.45,105.58,29,102.28,29.15Zm-4-2a7.2,7.2,0,0,0,3.94,1c2.71-.13,4.29-2.2,4.14-5.39a5.2,5.2,0,0,0-1.24-3.38,5.56,5.56,0,0,0-2.69-1.42l-.47-.14a1.11,1.11,0,0,1-.73-1,1,1,0,0,1,1.06-1.1,6.61,6.61,0,0,1,3.1.94l-.22-4.48a7.1,7.1,0,0,0-3.73-.94c-2.64.12-4.18,2.26-4,5.57A5.39,5.39,0,0,0,98.53,20a5.14,5.14,0,0,0,2.89,1.61,4,4,0,0,1,.39.11,1,1,0,0,1,.74,1,1,1,0,0,1-1.06,1.15,6.29,6.29,0,0,1-3.43-1.3Z"/><path class="cls-1" d="M113.61,10.05c3.69-.18,6.75,3.61,7,8.67s-2.43,9.13-6.12,9.32-6.76-3.61-7-8.68S109.92,10.23,113.61,10.05Zm.58,11.81c1-.05,1.76-1.29,1.68-2.79s-.94-2.66-2-2.61-1.76,1.3-1.68,2.79S113.18,21.91,114.19,21.86Z"/><path class="cls-2" d="M114.52,28.55c-4,.2-7.29-3.83-7.55-9.16s2.64-9.66,6.61-9.86,7.29,3.83,7.55,9.17S118.49,28.36,114.52,28.55Zm-.89-18c-3.39.16-5.86,4-5.63,8.77s3.07,8.35,6.47,8.18,5.86-4,5.63-8.77S117,10.4,113.63,10.57Zm.58,11.81c-1.31.06-2.4-1.3-2.49-3.1S112.59,16,113.9,16s2.4,1.29,2.49,3.1S115.52,22.32,114.21,22.38Z"/><path class="cls-1" d="M124.44,15.73l-3.28.16L120.87,10l11.4-.56.29,5.93-3.28.16L129.85,27l-4.84.23Z"/><path class="cls-2" d="M130.39,27.51l-5.87.29L124,16.27l-3.28.16-.34-7,12.43-.61.35,7-3.28.16Zm-4.89-.8,3.81-.19L128.74,15l3.28-.16-.24-4.9-10.37.51.24,4.9,3.28-.16Z"/><path class="cls-1" d="M133.54,9.34l8.72-.43.28,5.83-3.87.19.05.94,3.85-.18.2,4.14-3.85.19.05,1,3.85-.19.27,5.55-8.69.42Z"/><path class="cls-2" d="M143.63,26.86l-9.72.47L133,8.85l9.75-.48Zm-8.74-.61,7.66-.38-.22-4.51-3.85.19-.1-2,3.85-.19-.15-3.11-3.85.19-.1-2,3.87-.19-.23-4.8-7.69.38Z"/><path class="cls-1" d="M143.44,8.85l4.84-.24.55,11.26,3.64-.18.31,6.2-8.48.42Z"/><path class="cls-2" d="M153.32,26.38l-9.51.47L142.9,8.36l5.87-.29.55,11.26,3.64-.18Zm-8.53-.62,7.44-.36L152,20.24l-3.64.17-.55-11.25L144,9.34Z"/><path class="cls-1" d="M159.24,7.81c3.68-.18,6.75,3.61,7,8.67s-2.43,9.13-6.12,9.32-6.76-3.61-7-8.68S155.55,8,159.24,7.81Zm.58,11.81c1-.05,1.76-1.29,1.68-2.79s-.94-2.66-1.95-2.61-1.76,1.3-1.69,2.79S158.81,19.67,159.82,19.62Z"/><path class="cls-2" d="M160.14,26.31c-4,.2-7.28-3.83-7.54-9.16s2.64-9.66,6.61-9.86,7.28,3.83,7.55,9.16S164.11,26.12,160.14,26.31Zm-.88-18c-3.39.16-5.86,4-5.63,8.77s3.07,8.35,6.46,8.18,5.87-4,5.63-8.77S162.65,8.16,159.26,8.33Zm.58,11.81c-1.31.06-2.41-1.3-2.49-3.1s.87-3.27,2.17-3.33,2.41,1.29,2.5,3.1S161.15,20.08,159.84,20.14Z"/><rect class="cls-2" x="79.21" y="24.55" width="9.88" height="2.53" transform="translate(109.96 -58.34) rotate(90)"/><rect class="cls-2" x="84.86" y="25.37" width="8.24" height="2.53" transform="translate(115.61 -62.34) rotate(90)"/><rect class="cls-2" x="88.86" y="24.55" width="9.88" height="2.53" transform="translate(119.61 -67.99) rotate(90)"/><circle class="cls-1" cx="88.97" cy="11.28" r="10.74"/><path class="cls-2" d="M89,22.56a11.28,11.28,0,1,1,11.29-11.28A11.29,11.29,0,0,1,89,22.56ZM89,1.09A10.19,10.19,0,1,0,99.16,11.28,10.2,10.2,0,0,0,89,1.09Z"/><path class="cls-2" d="M90.19,19.15V12.38H91a3.46,3.46,0,0,1,3.65,3.26v.25A3.46,3.46,0,0,1,91,19.15Z"/><rect class="cls-2" x="87.7" y="15.67" width="2.49" height="3.48"/><rect class="cls-2" x="87.7" y="3.42" width="2.49" height="3.48"/><path class="cls-2" d="M87,10.21a3.47,3.47,0,0,1-3.61-3.28V6.67A3.45,3.45,0,0,1,87,3.42h.75v6.79Z"/></g></g></svg>