<svg xmlns="http://www.w3.org/2000/svg" xmlns:xlink="http://www.w3.org/1999/xlink" viewBox="0 0 503.2 500"><defs><style>.cls-1{fill:#212121;}.cls-2{clip-path:url(#clip-path);}.cls-3{fill:#0c2024;}.cls-4{fill:#282828;}.cls-5{fill:#416288;}.cls-6{fill:#604a7b;}.cls-7{fill:#203032;}.cls-8{fill:#202c35;}.cls-9{fill:#153023;}.cls-10{fill:#215968;}.cls-11{fill:#0b1d22;}.cls-12{fill:#09181c;}.cls-13{fill:#14202a;}.cls-14{fill:#0b1e23;}.cls-15{fill:#061013;}.cls-16{fill:#d3c2ee;}.cls-17{fill:#aadff6;}.cls-18{fill:#a9dff6;}.cls-19{fill:#aae0f6;}.cls-20{fill:#a8ddf4;}.cls-21{fill:#d4c2ee;}.cls-22{fill:#d3c1ee;}.cls-23{fill:#a9dff5;}.cls-24{fill:#fafbfb;}.cls-25{fill:#fbfbfb;}.cls-26{fill:#fcfcfc;}.cls-27{fill:#fbfbfc;}.cls-28{fill:#1f2b34;}.cls-29{fill:#152a30;}.cls-30{fill:#fafafa;}.cls-31{fill:#f9f9fa;}.cls-32{fill:#f8f8f8;}.cls-33{fill:#f8f9f9;}.cls-34{fill:#fbfcfc;}.cls-35{fill:#f6f6f7;}.cls-36{fill:#f9fafa;}.cls-37{fill:#f5f6f6;}.cls-38{fill:#f4f5f5;}.cls-39{fill:#f2f3f3;}.cls-40{fill:#eef0f0;}.cls-41{fill:#f7f7f7;}.cls-42{fill:#060f12;}.cls-43{fill:#f9f9f9;}.cls-44{fill:#f2f3f4;}.cls-45{fill:#f8f8f9;}.cls-46{fill:#f7f8f8;}.cls-47{fill:#a1d6eb;}.cls-48{fill:#f4f4f5;}.cls-49{fill:#f1f2f3;}.cls-50{fill:#f1f2f2;}.cls-51{fill:#a6dbf1;}.cls-52{fill:#cdbde8;}.cls-53{fill:#f0f1f2;}.cls-54{fill:#677377;}.cls-55{fill:#edefef;}.cls-56{fill:#e5e7e7;}.cls-57{fill:#fdfdfe;}.cls-58{fill:#fdfdfd;}.cls-59{fill:#0a0c11;}.cls-60{fill:#4a395e;}.cls-61{fill:#fcfcfd;}.cls-62{fill:#faf9fa;}.cls-63{fill:#a9def5;}.cls-64{fill:#f0f1f1;}.cls-65{fill:#f3f4f4;}.cls-66{fill:#f6f7f7;}.cls-67{fill:#2d3c3e;}.cls-68{fill:#f6f6f6;}.cls-69{fill:#a6daf0;}.cls-70{fill:#29383d;}.cls-71{fill:#eaebeb;}.cls-72{fill:#202e36;}.cls-73{fill:#1a272f;}.cls-74{fill:#0f2026;}.cls-75{fill:#f2f5f6;}.cls-76{fill:#f3f5f6;}.cls-77{fill:#f6f8f8;}.cls-78{fill:#f4f6f7;}.cls-79{fill:#f8f9fa;}.cls-80{fill:#f3f6f6;}.cls-81{fill:#f5f7f8;}.cls-82{fill:#f8fafa;}.cls-83{fill:#f7f8f9;}.cls-84{fill:#f9fafb;}.cls-85{fill:#f6f8f9;}.cls-86{fill:#f0f4f5;}.cls-87{fill:#f7f9f9;}.cls-88{fill:#f1f4f5;}.cls-89{fill:#edf2f3;}.cls-90{fill:#ecf1f2;}.cls-91{fill:#a5daf0;}.cls-92{fill:#182c33;}.cls-93{fill:#1a3037;}.cls-94{fill:#1b2c34;}.cls-95{fill:#1b3239;}.cls-96{fill:#1a2b33;}.cls-97{fill:#1a2a31;}.cls-98{fill:#20313a;}.cls-99{fill:#13292f;}.cls-100{fill:#0c2025;}.cls-101{fill:#1a2c31;}.cls-102{fill:#1a2d32;}.cls-103{fill:#203236;}.cls-104{fill:#604b7b;}.cls-105{fill:#634e7e;}.cls-106{fill:#614b7c;}.cls-107{fill:#65507f;}.cls-108{fill:#2d4145;}.cls-109{fill:#3d4b4d;}.cls-110{fill:#253541;}.cls-111{fill:#3a6c79;}.cls-112{fill:#3e6f7c;}.cls-113{fill:#275e6c;}.cls-114{opacity:0.32;}.cls-115,.cls-116{fill:#89b8e3;}.cls-115{stroke:#00597f;stroke-miterlimit:10;}.cls-117{fill:#00597f;}.cls-118{opacity:0.67;}.cls-119{fill:url(#linear-gradient);}.cls-120{font-size:24px;fill:#e8eaf6;font-family:Lato-Heavy, Lato;font-weight:800;}.cls-121{letter-spacing:-0.01em;}.cls-122{letter-spacing:0em;}.cls-123{letter-spacing:-0.01em;}.cls-124{letter-spacing:-0.01em;}.cls-125{letter-spacing:-0.02em;}.cls-126{letter-spacing:-0.02em;}.cls-127{font-size:18px;fill:#8cbbe1;font-family:Lato-Light, Lato;font-weight:300;}.cls-128{letter-spacing:-0.01em;}.cls-129{letter-spacing:-0.01em;}.cls-130{letter-spacing:0em;}.cls-131{letter-spacing:-0.01em;}.cls-132{letter-spacing:-0.01em;}.cls-133{letter-spacing:-0.03em;}.cls-134{letter-spacing:0em;}.cls-135{letter-spacing:-0.01em;}.cls-136{letter-spacing:0em;}.cls-137{letter-spacing:-0.01em;}.cls-138{letter-spacing:-0.03em;}.cls-139{letter-spacing:-0.01em;}</style><clipPath id="clip-path" transform="translate(1.48)"><rect class="cls-1" x="0.17" width="500" height="500"/></clipPath><linearGradient id="linear-gradient" x1="351.13" y1="345.31" x2="2.91" y2="-2.91" gradientUnits="userSpaceOnUse"><stop offset="0" stop-color="#212121"/><stop offset="1" stop-color="#00597f"/></linearGradient></defs><g id="Layer_2" data-name="Layer 2"><g id="Layer_1-2" data-name="Layer 1"><rect class="cls-1" x="1.65" width="500" height="500"/><g class="cls-2"><path class="cls-3" d="M501.55,392.55q-250.8,0-501.59,0c-1.14,0-1.44-.17-1.44-1.39q.06-141.54,0-283.06a1.82,1.82,0,0,1,1.36-.43H498.58c1,0,2.05-.29,3,.35a3.39,3.39,0,0,1,.13,1.58q0,140.67,0,281.34A3.11,3.11,0,0,1,501.55,392.55Z" transform="translate(1.48)"/><path class="cls-4" d="M501.5,107.55a.26.26,0,0,1,0,.27,2.8,2.8,0,0,1-1.57.15H.13a3.15,3.15,0,0,1-1.58-.14v-.29h503Z" transform="translate(1.48)"/><path class="cls-5" d="M-1.45,107.84h501.2l1.75,0v.33l-1.9,0H-1.45Z" transform="translate(1.48)"/><path class="cls-6" d="M124,345.75l2.92,0H341.08c2.28,0,2.3,0,2.3,2.26l0,28.2a1,1,0,0,1-.91,1,20.31,20.31,0,0,1-2.34.05H126.61a18.63,18.63,0,0,1-2.48-.06,1.28,1.28,0,0,1-.52-.26,2.84,2.84,0,0,1-.48-1.94q0-13.65,0-27.31C123.15,346.91,122.92,346,124,345.75Z" transform="translate(1.48)"/><path class="cls-7" d="M217,227.4c.79-.58,1.7-.27,2.54-.27s1.29-.32,1.28-1.27c-.05-3,0-6,0-9.06,0-1.25.37-1.73,1.67-1.71,2.69.06,2.43.41,2.44-2.51,0-1.36,0-2.73,0-4.09,0-.93.28-1.31,1.25-1.28,3.19.1,2.89.18,2.83-2.94,0-1.3.29-1.82,1.69-1.76,2.42.11,2.43,0,2.43-2.47,0-5.35,0-10.71,0-16.06,0-1.31.4-1.8,1.66-1.6H235c2.59,0,2.91.44,2.74-2.62-.06-1.3.82-1.38,1.7-1.46,2.11-.18,2.2-.17,2.09-2.14-.07-1.39.43-1.72,1.75-1.7q8.39.09,16.79,0c1.22,0,1.76.24,1.7,1.6-.1,2.05,0,2.07,2.14,2.23,1.15.09,1.71.51,1.66,1.81-.08,2.27,0,2.36,2.33,2.25,1.47-.07,1.83.46,1.77,1.83-.1,2.27,0,2.27-1.8,2.29-2.29,0-2.35,0-2.3,2.32,0,1.12-.3,1.57-1.48,1.51-1.7-.09-3.41-.07-5.11,0-1,0-1.43-.31-1.35-1.34.07-.82,0-1.65,0-2.48.67-.66,1.54-.51,2.33-.52,1.2,0,1.23-.79,1.25-1.67s-.4-1.4-1.38-1.38-1.65,0-1.67,1.25c0,.79.14,1.66-.52,2.32-1,0-2,0-2.93,0s-1.26.33-1.17,1.2a.65.65,0,0,1,0,.14c-.06,2.4-.06,2.45-2.52,2.45-1.07,0-1.33.42-1.3,1.39.06,1.75,0,3.51,0,5.26,0,1.11-.33,1.68-1.5,1.56a5.61,5.61,0,0,0-.58,0c-2,0-2,0-2,2s0,1.86-2,1.86c-2.12,0-2.13,0-2.13,2.08q0,24.76,0,49.53c0,.62-.41,1.57.48,1.78a6.21,6.21,0,0,0,3.31-.07c.4-.13.28-.68.28-1.06,0-2,.06-3.9,0-5.84,0-1.09.31-1.48,1.41-1.44.79,0,1.66.3,2.4-.26h0c.57-.8.26-1.7.26-2.55s.34-1.36,1.28-1.25a5.81,5.81,0,0,0,.59,0c2.24,0,2.34,0,2.22-2.25-.08-1.49.37-2,1.87-1.87s3.21,0,4.82,0c1,0,1.28-.34,1.25-1.28-.07-3.12-.23-2.82,3-2.82h23.68c2,0,2,0,2,1.93,0,2.15,0,2.15,2.1,2.16s2,0,2,1.92c0,2.16,0,2.16,2.19,2.17,1.87,0,1.89,0,1.9,1.87,0,2.21,0,2.29,2.13,2.19,1.39-.07,1.74.42,1.71,1.74-.09,3.11,0,6.23,0,9.35-.38.59-1,.5-1.57.54s-1.37,0-2.05.07c-1.64.26-2.19,1.57-1.27,2.88a2.72,2.72,0,0,1,.82,1.81,3,3,0,0,1-2.95.19c-.66-.67-.5-1.53-.55-2.34a2.44,2.44,0,0,0-2.57-2.54c-1.32,0-2.63,0-3.94,0-.79,0-1.15.36-1.15,1.15s0,1.85,0,2.77c0,.51.09,1,.78,1s.68-.57.71-1.06c.05-.73,0-1.46.08-2.18.19-1.23.76-1.61,2.34-1.58s2,.38,2.15,1.61a5.43,5.43,0,0,1,0,1.45,2,2,0,0,0,1.31,2.32,3.43,3.43,0,0,1,.27,2.51c-.1.85-.73,1.18-1.54,1.23a4.41,4.41,0,0,0-1.84.23,4,4,0,0,0-.34.27c-.41.5-.27,1.09-.31,1.65s.05,1.09-.61,1.31c-.58-.14-.41-1-1.08-1.14-.2,1.42.58,3.28-1.61,3.8-1.39-.55.15-1.19-.06-1.77-.69-.53-1.57,0-2.27-.44-.47-.26-.85-.8-1.5-.51.32,1.07-.39,1.82-.8,2.66a3.39,3.39,0,0,1,0,.45c-.06.7-.19,1.34-1.05,1.47-4.77-.15-9.54,0-14.31-.06-1.1,0-1.53.57-1.58,1.64-.13,2.42-.17,2.44-2.53,2.44q-11.89,0-23.8,0c-2.1,0-2.25-.15-2.31-2.21-.06-1.67-.25-1.87-2-1.87h-18.4a3.42,3.42,0,0,1-2-.29,4.16,4.16,0,0,1-.22-3.82c.34-.56,1.12-.49,1.47-1a2.58,2.58,0,0,0,.39-1.53c0-3.75-.21-7.51,0-11.24.59-10.11.08-20.23.29-30.34A1,1,0,0,1,217,227.4Z" transform="translate(1.48)"/><path class="cls-8" d="M99.22,258.41H97c-.87.77-1.94.41-2.92.48-.63.05-1.26,0-1.89.06.84.11,1.7,0,2.54.13.68.1,1.22.38,1.22,1.18s-.52,1.08-1.2,1.2a3.5,3.5,0,0,1-1,.06,4,4,0,0,0-3.9,1.64c-.3.35-.74.56-.94,1-.14.29-.36.6-.75.24a4.59,4.59,0,0,1-.31-2.4c0-2-.09-2-2.19-1.88.14.66.68,1.29.24,2a.62.62,0,0,1-.31.27c-.63.15-.52.29,0,.46a.4.4,0,0,1,.2.35c-1.51,1.12-3.59.16-4-1.86-.58-2.74,1.14-4.95,3.81-4.68a3.25,3.25,0,0,0,1.34-.07c-.61-.08-1.2.05-1.74-.06-2.18-.43-3.48.86-4.65,2.34a2.41,2.41,0,0,0-.09,2.74c.15.29.43.53.42.9a4.75,4.75,0,0,0-.15,2c0,.8.1,1.66-.62,2.27a2.5,2.5,0,0,1-1.29.21c-4.67,0-9.34,0-14,0-1.72,0-2.11-.54-1.87-2.27.82-1.11,2.06-.54,3.13-.8-.67-.07-1.33,0-2-.06s-1.72,0-1.7-1.13.92-1,1.64-1.05c1-.08,2,0,2.92-.05.42,0,.92,0,1.12-.48s-.14-.87-.51-1.23a3.35,3.35,0,0,0-2.62-1,2.07,2.07,0,0,1-2-.64,4,4,0,0,1-.32-2q0-10.14,0-20.28a3.48,3.48,0,0,1,.36-2,.38.38,0,0,1,.47-.18c.74.62.6,1.5.6,2.3,0,4,0,8,0,12,0,1.68.24,1.85,1.84,1.83,1,0,1.4-.42,1.4-1.4,0-1.85,0-3.7,0-5.55a2.47,2.47,0,0,1,.22-1.56,20.39,20.39,0,0,1,8,.13c.64.44.64,1.1.64,1.78a3.43,3.43,0,0,0,.23,1.79,2.76,2.76,0,0,0,.29.3,2,2,0,0,0,1.26.26c1.42,0,1.72-.26,1.74-1.64s-.25-1.82-1.68-1.89c-.83,0-1.77.26-2.42-.58s-.34-1.78-.43-2.68c-.14-1.52.69-3.45-.45-4.46s-2.9-.22-4.39-.31a5.69,5.69,0,0,1-2.71-.39,1.12,1.12,0,0,1-.34-.41c-.39-.91.26-2.08-.4-2.79s-1.85-.24-2.8-.39a1.41,1.41,0,0,1-1.31-1.48c-.06-1.94-.06-3.88,0-5.81,0-1.27.87-1.71,2-1.82,2.09-.21,2.09-.22,2.22-2.35a3.31,3.31,0,0,1,.3-1.41,1.18,1.18,0,0,1,.39-.38,4.74,4.74,0,0,1,2.14-.29c2.72,0,5.44,0,8.16,0,1.12,0,1.54-.41,1.57-1.53.08-2.53.43-2.84,2.92-2.86h7.57a2.66,2.66,0,0,1,2.05.56,4.12,4.12,0,0,1,.09,4.33,2.49,2.49,0,0,1-2,.64c-1.41,0-2.82,0-4.23,0-1.09,0-1.46.44-1.45,1.49,0,2.82,0,5.65,0,8.47,0,1.06.43,1.5,1.49,1.47,1.36,0,2.72,0,4.09,0,1.06,0,1.47-.41,1.47-1.47,0-2.78,0-5.55,0-8.33a2.89,2.89,0,0,1,.45-2.08c.7-.84,1.68-.69,2.58-.66,1.28.05,1.38-.7,1.39-1.68s-.21-1.68-1.44-1.64c-.9,0-1.88.17-2.57-.7a2.39,2.39,0,0,1-.42-1.64c0-2.79,0-5.59,0-8.38A2.82,2.82,0,0,1,92,200.8c.6-.59,1.36-.4,2.08-.43,1.53-.07,1.91-.42,2-1.88.12-1.93.12-1.93,2-1.93,8.56,0,17.13,0,25.7,0,1.18,0,1.77.29,1.53,1.52-.36,1.8.61,3.39.79,5.11.09.86.81.83,1.45.84s1.21-.06,1.42-.89c.56-2.18.59-2.17,2.78-2.17,1.56,0,3.12.06,4.67,0,1.1-.06,1.66.19,1.49,1.42a11.58,11.58,0,0,0,0,2c.5.74,1.29.75,2.06.81,2.06.15,2.12.27,2.18,2.37.12,4.22-.76,8.4-.46,12.62a1.29,1.29,0,0,1-1.41,1.49,2.12,2.12,0,0,0-1.74.56c-.69,1.29-.32,2.68-.33,4-.05,3.86.21,3.61-3.68,3.65-1.3,0-2.63-.28-3.89.28a2.13,2.13,0,0,0-.33.34c-.63,1.86-.15,2.57,1.78,2.59,1.45,0,2.91,0,4.37,0,1.13,0,1.73.46,1.72,1.64v5.54c0,1.1-.53,1.58-1.62,1.58-1.4,0-2.81,0-4.22,0a3.1,3.1,0,0,0-1.7.28,2.65,2.65,0,0,0-.33.34c-.82,2.31-.23,3.18,2.14,3.19,1.41,0,2.81,0,4.21,0a1.36,1.36,0,0,1,1.52,1.52c0,1.11,0,2.22,0,3.34-.07,2.53.15,5.06-.13,7.59a1,1,0,0,1-.31.43,6.22,6.22,0,0,1-3.25.35,11.36,11.36,0,0,0-4.73.64,3.35,3.35,0,0,1-.74-2.43c-.07-1.49,0-3,0-4.48a2.4,2.4,0,0,0-.28-1.53,2.7,2.7,0,0,0-1.93-.48c-2.63,0-5.25,0-7.87,0-1.76,0-2.11-.35-2.18-2.13-.06-1.6,0-3.21,0-4.81,0-1-.41-1.4-1.4-1.39a3.07,3.07,0,0,1-2.35-.51,2.42,2.42,0,0,1-.62-2c0-1.45,0-2.89,0-4.34,0-.88-.32-1.35-1.27-1.34a2.51,2.51,0,0,1-1.9-.5,2.62,2.62,0,0,1-.62-2.16c0-.78-.37-1.14-1.16-1.14q-2.4,0-4.8,0c-.93,0-1.11.53-1.11,1.32s.17,1.32,1.11,1.34c1.5,0,3,0,4.5,0a2.6,2.6,0,0,1,2,.57,2.52,2.52,0,0,1,.53,1.89c0,1.3.06,2.6,0,3.89s.28,2,1.67,1.84a1.92,1.92,0,0,1,1.59.55,4.1,4.1,0,0,1,.3,3.77c-.3,1-1.26,1.13-2.16,1.15-2.58.06-5.16,0-7.74,0-1.68,0-2,.37-1.82,2a1.18,1.18,0,0,0,1.31,1.23c1.46,0,2.92,0,4.38,0,1.68.08,2,.45,2,2.13s0,3.11,0,4.67a2.08,2.08,0,0,1-1.48,2.35c-.33.11-.48.51-.86.54-1.42-1-3.06-.61-4.63-.71C101.25,258.85,100.13,259.21,99.22,258.41Z" transform="translate(1.48)"/><path class="cls-9" d="M395.4,263.39c0,1.5,0,3,0,4.51,0,.89-.21,1.35-1.21,1.31-1.65-.06-3.3,0-4.95,0-.89,0-1.2-.32-1.18-1.2.05-1.55,0-3.1,0-4.65,0-1-.34-1.57-1.43-1.47a5.06,5.06,0,0,1-.87,0c-1.07-.13-1.69.18-1.53,1.41a1.12,1.12,0,0,1-.32,1.2,5.25,5.25,0,0,1,0-4.93c.68-1.28.29-2.64.27-4,0-.69-.66-.72-1.21-.73-1.56,0-3.11-.06-4.66,0-1.12.06-1.44-.39-1.39-1.44.07-1.4,0-2.81,0-4.22,0-.47.12-1-.29-1.37-1.7-.65-3.46-.24-5.18-.25-1.31,0-2-.22-1.88-1.74.13-2.25.11-2.38,1.93-2.39,3.55,0,7.11,0,10.67,0,1.28,0,1.83.43,1.8,1.8-.06,2.24.08,2.38,2.28,2.28,1.4-.07,1.93.34,1.81,1.78s0,2.92,0,4.38c0,.89.32,1.21,1.2,1.18,1.61,0,3.22,0,4.83,0,.93,0,1.32-.38,1.3-1.31,0-1.61,0-3.22,0-4.82,0-.89.31-1.22,1.19-1.2,1.51,0,3,0,4.54,0,.89,0,1.3-.2,1.33-1.21.06-2.88.13-2.9,3-2.9,1,0,2-.05,2.92,0s1.41-.28,1.36-1.33c-.07-1.41,0-2.82,0-4.23,0-1.05.35-1.53,1.44-1.48,3,.13,2.64-.06,2.67-2.7,0-1.13,0-2.25,0-3.37-.05-1,.36-1.28,1.29-1.24,1.51.05,3,0,4.53,0,1.16.05,1.62-.42,1.51-1.55,0-.38,0-.78,0-1.16-.06-.83.32-1.13,1.13-1.11,1.51,0,3-.06,4.53,0a1.26,1.26,0,0,0,1.54-1.26,26,26,0,0,0,.09-4.67c0-1.08.34-1.44,1.43-1.42,2.4,0,2.4,0,2.4-2.37,0-1.22.05-2.44,0-3.65-.05-.94.29-1.31,1.26-1.28,1.6.05,3.21,0,4.82,0,1,0,1.25-.34,1.26-1.28,0-2.54.07-2.54,2.58-2.54,1.08,0,2.15-.05,3.22,0s1.55-.45,1.51-1.57c-.06-1.45,0-2.92,0-4.38-.06-1.12.39-1.44,1.45-1.39,1.46.07,2.92,0,4.38,0,1.17.05,1.56-.44,1.52-1.56-.06-1.5,0-3,0-4.52,0-1,.35-1.25,1.28-1.26,2.54,0,2.54-.07,2.54-2.59,0-1.17,0-2.34,0-3.5,0-.87.27-1.24,1.17-1.21,1.61.05,3.22,0,4.83,0,1,0,1.47-.35,1.31-1.35-.26-1.59.45-2,2-1.92,2.43.12,4.87.09,7.3,0,1.24,0,1.34.6,1.3,1.54s.18,1.81-1.26,1.72c-2.25-.15-2,.11-2,2,0,1.32-.06,2.64,0,3.95.07,1.12-.4,1.43-1.45,1.39-1.51-.07-3,0-4.53,0-1,0-1.42.27-1.37,1.32.07,1.46,0,2.93,0,4.38.06,1.19-.34,1.71-1.58,1.64-1.41-.07-2.83,0-4.24,0-1.11-.06-1.61.25-1.53,1.46.1,1.45,0,2.92,0,4.38,0,1-.33,1.58-1.43,1.48-.24,0-.49,0-.73,0-1.93,0-2,0-1.91,2,.09,1.5-.4,2-1.88,1.86-1.26-.12-2.54,0-3.8,0s-1.45.38-1.39,1.44c.07,1.46,0,2.92,0,4.38.05,1.17-.44,1.56-1.56,1.52-1.51-.06-3,0-4.53,0-1,0-1.28.35-1.25,1.28,0,1.56,0,3.12,0,4.68,0,1-.41,1.39-1.4,1.37-1.56,0-3.12,0-4.67,0-1,0-1.36.34-1.25,1.28a.75.75,0,0,1,0,.15c0,2.35-.05,2.42-2.45,2.36-1.31,0-1.73.48-1.66,1.72.08,1.41,0,2.83,0,4.24.06,1.12-.39,1.45-1.45,1.39-1.36-.07-2.73.06-4.09,0s-1.59.46-1.52,1.62c.08,1.4,0,2.82,0,4.23,0,.88-.28,1.23-1.18,1.21-1.56-.05-3.12,0-4.68,0-1.06,0-1.57.36-1.46,1.45,0,.19,0,.39,0,.58,0,2.07,0,2.07-2.14,2.08-1.94,0-1.95,0-1.95,2,0,1.36-.05,2.73,0,4.09,0,.95-.32,1.29-1.27,1.27-1.75,0-3.51,0-5.26,0-.17,0-.34.17-.5.26.89,1.34.66,2.75.25,4.18-.12.15-.29.35-.46.22-1.59-1.14-3.39-.49-5.09-.64a15.17,15.17,0,0,0,2.23.13c.81.07,1.65.17,1.62,1.25s-.88,1.13-1.68,1.2c-.53,0-1.06,0-1.6,0A2.49,2.49,0,0,0,395.4,263.39Z" transform="translate(1.48)"/><path class="cls-8" d="M43.54,262.77c-.13-.8-.77-.55-1.25-.58-1-.05-2.19.25-3-.18-1-.54-.22-1.86-.43-2.81-.07-.28-.18-.54-.27-.81a7.81,7.81,0,0,0-2.89-.13c-.84,0-1.1-.28-1.07-1.1.05-1.8,0-3.6,0-5.4V218.9c0-1.58,0-1.58,1.58-1.59h.29c2.46,0,2.46,0,2.52-2.37,0-1.33.38-1.7,1.77-1.71,2.83,0,5.65,0,8.48,0,1.57,0,1.86-.3,1.88-1.88,0-1.42,0-2.83,0-4.24s.5-2,2-2.06c.65,0,1.39.25,1.89-.45a26.88,26.88,0,0,1,.17-3c.57-.52,1.27-.35,1.92-.36,1.25,0,2.5,0,3.75,0a2.56,2.56,0,0,1,2.46,1.16,4.53,4.53,0,0,1,.26,1.63c.08.9.67,1,1.43,1q4.08,0,8.15,0c1.78,0,2.34.56,2.37,2.35,0,1.31,0,2.62,0,3.92a1.4,1.4,0,0,1-1.6,1.6H70.07a2.06,2.06,0,0,0-1.72.59,5.29,5.29,0,0,0-.23,2.09,2.35,2.35,0,0,1-.55,1.57h0a2.91,2.91,0,0,1-2.34.57c-1.06,0-1.52.46-1.47,1.5a8.7,8.7,0,0,1,0,1A1.63,1.63,0,0,1,61.85,222c-1.36,0-2.72,0-4.08,0-1.67,0-2,.38-2.05,2.08,0,1.41,0,2.83,0,4.24s-.47,1.83-1.87,1.83c-.95,0-1.95.29-2.83-.31a2.34,2.34,0,0,1-.64-2c0-1.46,0-2.92,0-4.38,0-1-.5-1.33-1.45-1.33s-1.25.49-1.25,1.36c0,1.51,0,3,0,4.52,0,.79.34,1.16,1.14,1.18a2.69,2.69,0,0,1,2.17.63c.55.57.39,1.29.35,1.95,0,1,.39,1.27,1.28,1.35,3.12.28,3.12.3,3.12,3.4,0,4,0,8.07,0,12.11,0,1.94-.36,2.28-2.31,2.31-.34,0-.68,0-1,0-1.45-.07-1.85-.48-1.91-2,0-.3,0-.59,0-.88,0-1.33-.33-1.57-1.66-1.52-.89,0-1.3.38-1.28,1.34,0,2.19,0,4.38,0,6.56a2.62,2.62,0,0,1-.22,1.56c-1.33,1.08-2.91.32-4.33.67.23.23.67.18.93.47a1.71,1.71,0,0,1,.45,1.05,40,40,0,0,1,0,5.36,1.27,1.27,0,0,1-.49,1C42.9,264.12,43.12,263.46,43.54,262.77Z" transform="translate(1.48)"/><path class="cls-10" d="M215,271.82v3.82a.75.75,0,0,1,.08.8,7.36,7.36,0,0,1-6.24.1l-2.34,0q-81.07,0-162.16,0c-1.38,0-2.17-.22-1.92-1.78-1-1.64-.6-3.37-.33-5.08.09-.58.63-.83,1.18-.95a7.25,7.25,0,0,1,1.74-.11H81.45a3.29,3.29,0,0,1,2.49.55c.49,0,1,0,1.46,0h126c.49,0,1,0,1.46,0a1.47,1.47,0,0,1,2-.08,1.94,1.94,0,0,1,.4,2.27A2.59,2.59,0,0,1,215,271.82Z" transform="translate(1.48)"/><path class="cls-8" d="M154.13,217.17c0,1.12,0,2.24,0,3.35,0,.75.3,1,1,1,1.05.05,2.4-.49,3.08.28s.2,2.23.26,3.38,0,2.14,0,3.21-.37,1.36-1.3,1.3c-.39,0-.78,0-1.16,0-1.93,0-1.93,0-1.93,1.89s0,1.9,1.91,1.92c2.79,0,2.46-.33,2.48,2.49,0,1.8,0,3.6,0,5.4-.5.87-1.36.85-2.18.86-2.73,0-5.46,0-8.19,0-1.2,0-1.67.42-1.63,1.62.12,4.19-.23,8.37-.15,12.56a3,3,0,0,1-.32,2,3.65,3.65,0,0,1-3.59.12c-.58-.53-.42-1.24-.46-1.9-.09-1.93.2-3.87-.19-5.78a2.09,2.09,0,0,1-.08-.5c-.31-1.23.22-2.55-.46-3.73a2.94,2.94,0,0,0-2.1-.42c-1,0-1.54-.47-1.55-1.51,0-.48,0-1,0-1.46,0-1.68.26-1.92,1.95-2a2.37,2.37,0,0,0,1.76-.5,17,17,0,0,0,0-6.67,2.74,2.74,0,0,0-1.92-.47c-1.42,0-1.7-.33-1.76-1.71-.1-2.31,0-2.47,2.42-2.64a2,2,0,0,0,1.31-.52c.45-1.16.15-2.37.23-3.55s-.18-2.39.29-3.55a1.09,1.09,0,0,1,.36-.38c2-.17,3.67-.62,3.33-3.25-.08-.59.48-1.05,1.18-1A67.51,67.51,0,0,1,154.13,217.17Z" transform="translate(1.48)"/><path class="cls-11" d="M208.82,276.54c1.6,0,3.2,0,4.79,0,.47,0,1,.13,1.37-.29a2.43,2.43,0,0,1,1.69-.28H235.5c2,0,2,0,2,1.93s0,2,2,2h24.67c1.7,0,1.7,0,1.72-1.67v-.29c0-2,0-2,2.07-2h7.16c2.38,0,4.77,0,7.15,0a3,3,0,0,0,.29-1.74c.08-.13.18-.27.31-.28,1.19-.07,2.3-.22,2.28-1.81,0-.05.15-.09.25-.1a11.21,11.21,0,0,1,2.95.15c0,.47.18,1-.54,1.14-.53.12-.81.41-.27.89.07-.07.15-.17.23-.17,1.39,0,2.42-.41,2.31-2.08.64-.34.5-.94.53-1.5a7.6,7.6,0,0,1,.14-2.38,6.05,6.05,0,0,1,2.28-.14c1.61,0,1.66-.06,1.67-1.6,0-.54,0-1.07,0-1.6a1,1,0,0,1,.8-.88c1.21-.16,2.58.42,3.56-.78a4.68,4.68,0,0,1,2.46-.16c.66.11,1.24.36,1.09,1.23-.34.63-.95.5-1.51.56-.84.08-1.72-.22-2.5.23.6.56,1.33.2,2,.3s1.38-.12,1.85.55c0,2,0,2.08-1.95,2-1.45-.09-2.1.32-1.87,1.84a8.77,8.77,0,0,1,0,1.45,4.85,4.85,0,0,1-1.47.83h-.89c-.94-.08-1.8-.59-2.81-.47-.76.08-1.2.42-1.23,1.12a1.22,1.22,0,0,0,1.16,1.39c.4.05.89-.15,1.16.35.18,1.31-.49,1.74-1.7,1.71-1.56,0-3.12.06-4.67,0-1.26-.08-1.69.42-1.53,1.6,0,.23,0,.48,0,.72.12,1.17-.44,1.53-1.55,1.52-4.58,0-9.16,0-13.74,0-1.27,0-1.72.4-1.7,1.68.06,2.64.39,2.43-2.39,2.43H234.92c-2,0-2.1-.11-2.12-2,0-2.07,0-2.07-2.14-2.07H210.78c-2,0-2,0-2-2Z" transform="translate(1.48)"/><path class="cls-11" d="M83.94,269.16l-39.47,0c-2,0-2,0-2,2l0,3.51c-3.49,0-3.49,0-3.49-3.53,0-1.12,0-2.24,0-3.35,0-.93-.38-1.28-1.31-1.32-3.09-.14-3.09-.16-3.09-3.33,0-1,0-2,0-3.06s.28-1.29,1.18-1.2a3.09,3.09,0,0,0,.43,0c2.9,0,2.52-.18,2.48,2.33,0,1.06.36,1.53,1.45,1.48s2.33,0,3.49,0c.16.57-.23,1.26.38,1.73a1.12,1.12,0,0,1,.61-.37,1.49,1.49,0,0,0,1.63-1.47.72.72,0,0,1,.43-.56c1,.19.92,1,1,1.68s-.19,1.56.4,2.21a3.13,3.13,0,0,0,2,.44c3.89.2,7.82-1.12,11.63-.34,5.71,1.16,11.41.28,17.11.61a2.24,2.24,0,0,0,1.42-.14c0-1,0-2,0-3,0-.46-.09-1,.57-1.12,1.81,1.62,4,1.65,6.25,1.55a1.66,1.66,0,0,1,1.33.48c.42-.23.31-.64.35-1,.1-1.14.56-.23.88-.15.2-.16.49-.28.67-.14,1.35,1.08,3,.68,4.47.78.66,0,1.38-.06,1.85.59,0,2,0,2-2.06,2H86.58C84,266.57,84,266.57,83.94,269.16Z" transform="translate(1.48)"/><path class="cls-11" d="M249.46,247a10.27,10.27,0,0,0-2.15,0c-1.93.26-1.94.2-1.94,2.21,0,1.66-.08,3.32,0,5,.09,1.49-.83,1.35-1.78,1.34s-1.8.16-1.78-1.34c.06-8.08,0-16.16,0-24.25V204.45c0-1.53.37-1.89,1.85-1.85,1.65,0,1.95.33,1.95,1.92q0,18.25,0,36.53c0,2.11,0,2.18,2.07,2.1,1.36,0,1.88.45,1.74,1.78a20,20,0,0,0,0,2Z" transform="translate(1.48)"/><path class="cls-12" d="M124,345.75c-.59.36-.6.93-.6,1.53v27.94a2.47,2.47,0,0,0,.33,1.53c.59.5,1.31.3,2,.3q19,0,38,0H340.09c.74,0,1.47,0,2.19,0a1.45,1.45,0,0,0,.5-.24l.63-.6h.23c.09-.18.19-.18.28,0-.23,1.78-1.32,2.09-3,2.09q-107.38-.06-214.79,0c-3,0-3.29-.29-3.3-3.35,0-3.75,0-7.5,0-11.25V347.7c0-.93,0-1.92,1.17-2.21h0Z" transform="translate(1.48)"/><path class="cls-11" d="M107.06,259.48l0-.79a1,1,0,0,1,.83-.15c.89.1,1-.35,1-1.12,0-2,0-4,0-6,0-1,.45-1.48,1.35-1.47,2.36,0,4.75-.43,7.08.31a5,5,0,0,0,1.45.06c3.58.1,7.17-.19,10.76.15.1,3-.24,6,.28,9-.81.84-.41,2.13-1.12,3h-.9c-.59-.45-.49-1.12-.53-1.74-.1-1.8-.09-1.8-2-1.83a11.43,11.43,0,0,1-1.17,0c-.67-.07-1.44-.06-1.58-1s.61-1,1.18-1.25c-1.33-.43-2.08.44-2.88,1.21-.52.51-1,1.15-1.85.51-1.14.54-2.35.19-3.52.29a6,6,0,0,1-2.15.2,2.31,2.31,0,0,0-1.87.56c.16.57,1,.33,1.12,1.14.17,1.51-.07,1.89-1.61,1.9h-.72c-2,0-2,0-2.07-2a1.14,1.14,0,0,0-.3-.93A.55.55,0,0,1,107.06,259.48Z" transform="translate(1.48)"/><path class="cls-11" d="M152.1,262.47c-1,0-1.94-.07-2.9,0-1.25.12-1.63-.42-1.51-1.58.05-.46.14-1-.3-1.35-1.3.33-1.47.17-1.32-1.25.05-2.29,0-4.57,0-6.86,0-.72.13-1.33.92-1.41a27.52,27.52,0,0,1,6.54,0,1,1,0,0,1,.59.41c1.05.6,2.18.22,3.27.27.79,0,1.14.28,1.13,1.11,0,1.89,0,3.78,0,5.67,0,.8-.37,1.17-1.16,1.13-2,.46-2.28.32-3.21-1.51a.79.79,0,0,0-.78-.51c-.48,0-.69.3-.76.72-.14.86-.63,1.39-1.9,1.59,1.15.21,1.76.6,1.81,1.48C152.57,261.15,152.72,261.9,152.1,262.47Z" transform="translate(1.48)"/><path class="cls-13" d="M154.13,250.49c-2.19,0-4.39,0-6.58,0-1,0-1.36.35-1.33,1.36.05,2.19,0,4.38,0,6.57a.17.17,0,0,1-.28-.06c0-5,0-9.93,0-14.9,0-1.3.29-1.8,1.69-1.75,3,.1,6,0,9.06,0a3.47,3.47,0,0,0,1.85-.29v4.68c-.76.72-1.73.52-2.62.53-1.11,0-1.23.64-1.23,1.51s.12,1.51,1.23,1.51c.89,0,1.86-.19,2.62.53C157.09,250.84,155.59,250.32,154.13,250.49Z" transform="translate(1.48)"/><path class="cls-14" d="M138.62,262.47h-7c-1.14-2-.46-3.37,1.73-3.47,1,0,1.95,0,2.92,0a1.61,1.61,0,0,0,1.43-.54.2.2,0,0,0,.11-.09c.25-2.58,0-5.17.12-7.76a.76.76,0,0,1,.16-.51c1.66-.75,3-.61,4.07.41h0c.32,2.55.07,5.12.14,7.68-.09.53-.63.52-1,.78.89.15,1.76,0,2.6.14.68.12,1.22.39,1.22,1.19s-.54,1.08-1.22,1.19a10.06,10.06,0,0,1-1.45.07,3.08,3.08,0,0,0-2.57.74A1.14,1.14,0,0,1,138.62,262.47Z" transform="translate(1.48)"/><path class="cls-15" d="M124,345.49c.44-.44,1-.28,1.53-.28H341.15a1.84,1.84,0,0,1,1.41.27H124Z" transform="translate(1.48)"/><path class="cls-13" d="M63.18,204v-1.46a1.65,1.65,0,0,0-1.88-1.19c-1.54.08-3.09,0-4.63,0-.48,0-1-.08-1.38.29v2.92a.18.18,0,0,1-.3,0c0-3.8,0-3.8,3.82-3.8,1.07,0,2.14,0,3.21,0,.91,0,1.15-.35,1.18-1.2.1-3.19.13-3.19,3.39-3.19h56.8c2.08,0,2.08,0,2.08,2a5.93,5.93,0,0,1,0,.73c-.19,1.26.3,1.69,1.61,1.65,3.16-.09,6.33,0,9.49,0,1.14,0,1.61.32,1.49,1.49a22.62,22.62,0,0,0,0,2.33c-.1.12-.2.12-.29,0,0-3.5,0-3.5-3.52-3.5-1,0-2,.06-2.92,0-1.26-.1-1.77.41-1.77,1.67,0,.6.41,1.56-.49,1.76a6.64,6.64,0,0,1-3.31-.07c-.29-.09-.28-.49-.27-.78.06-1.84-.5-3.66-.29-5.51.11-1-.22-1.47-1.36-1.46q-13,.06-26,0c-1,0-1.36.3-1.36,1.33,0,2.79-.06,2.79-2.91,2.78H92.13l-.2-.17a3.34,3.34,0,0,1-.37-2c0-1-.46-1.36-1.43-1.36H65.44c-1,0-1.39.4-1.39,1.39s.29,1.56,1.41,1.55h7.45c3.32,0,4,1,3.12,4.23a1.18,1.18,0,0,1-.39.41,2.77,2.77,0,0,1-1.56.18H65c-.6,0-1.31.15-1.52-.72a2.85,2.85,0,0,1,2.18-.59c2.92,0,5.83.07,8.74-.06.8-.2.72-.79.58-1.38a1,1,0,0,0-1.08-.76h-9c-.43,0-.77.09-.85.58a3.13,3.13,0,0,1-.39,1.85A.31.31,0,0,1,63.18,204Z" transform="translate(1.48)"/><path class="cls-16" d="M345.63,260.28c0-.92-.06-1.85,0-2.77,0-.49-.45-1.41.44-1.4.71,0,1.8-.78,2.25.73.14.49,1.19.71,1.4,1.51a1.16,1.16,0,0,0,.52,0c.17-.81,1.33-1.05,1.37-1.38.23-1.58,1.35-.68,2-.87s.73.23.73.76c0,2.29,0,4.58,0,6.86,0,1.23-.84.78-1.41.83s-1.3.2-1.23-.86,0-2.24,0-3.36c0-.44-.06-.76-.62-.74s-.48.37-.49.72,0,.87,0,1.31-.16.61-.6.61-.78-.06-.75-.61a2.54,2.54,0,0,0,0-.73c-.12-.44.38-1.25-.49-1.26s-.48.87-.53,1.34a13.49,13.49,0,0,0,0,2.62c.12,1.27-.76.92-1.43,1s-1.31,0-1.22-1S345.63,261.35,345.63,260.28Z" transform="translate(1.48)"/><path class="cls-11" d="M376.68,247.86c0,1.9,0,3.8,0,5.69,0,.92-.35,1.35-1.29,1.33-1.51,0-3,0-4.53,0-.86,0-1.25-.25-1.22-1.16.05-1.56,0-3.12,0-4.68,0-.87.29-1.21,1.18-1.19C372.78,247.89,374.73,247.86,376.68,247.86Z" transform="translate(1.48)"/><path class="cls-17" d="M119,258.38c.58,0,1,.07,1.22-.78.3-1.1,3.37-2,4.6-1.55.38.12.38.36.39.65,0,.45-.26.5-.62.61-.6.2-1.8-.58-1.73.57s1.26.45,1.91.47c2.94.08,2.93,0,3,3,0,.39,0,.78.07,1.16,0,.2-.06.39-.07.58a1.59,1.59,0,0,1-2.36,1.44c-.41-.2-.29-.57-.29-.88,0-.92-.06-1.85,0-2.76s-.22-1.26-1.21-1.25-1.18.31-1.11,1.18-.06,1.56,0,2.32c.13,1.13-.24,1.49-1.41,1.46s-1.38-.32-1.26-1.32a9.18,9.18,0,0,0,0-1.89c-.07-.7.48-1.7-1-1.81C118.76,259.5,119,258.8,119,258.38Z" transform="translate(1.48)"/><path class="cls-18" d="M107.06,259.48l.86.07c0,1.12.07,2.23.08,3.35,0,1.55-.73,2.06-2.21,1.62-.57-.17-.43-.56-.44-.92,0-1,0-1.94,0-2.91,0-.39.23-1-.46-1s-.53.66-.54,1.08a28.25,28.25,0,0,0,0,2.91c.06,1.22-.82.82-1.4.85s-1.31.22-1.25-.85,0-2.13,0-3.2c0-.39,0-.8-.55-.82s-.57.39-.57.78c0,1.07,0,2.14,0,3.21,0,.54,0,.94-.75.91s-.64-.43-.64-.88c0-1.75,0-3.5,0-5.25,2,0,4,0,6-.05C106.21,258.32,106.83,258.53,107.06,259.48Z" transform="translate(1.48)"/><path class="cls-19" d="M302.4,265.74c-1.25,0-2.51-.1-3.75,0-.87.05-1.24-.22-1.2-1.08.88-.55,1.84-.13,2.76-.25.7-.09,1.43.16,2.12-.15.24-.59.13-.91-.58-.88-1,0-1.91,0-2.86,0a.53.53,0,0,1-.59,0c-.47,0-.85-.13-.79-.76,0-.3.1-.76-.43-.73-1,0-.76-.65-.77-1.19s.37-.84.67-1.25c1.56-2.13,3.69-.58,5.42-1.14,2.71.15,2.71.15,2.71,2.94a14.2,14.2,0,0,1,0,1.46c-.08.75.43,1.66-1,2C303.77,264.84,303.26,265.8,302.4,265.74Z" transform="translate(1.48)"/><path class="cls-16" d="M438.86,265.69h-2.68c-.42,0-.61-.18-.6-.61s.2-.61.62-.61h3.5c.4,0,.78,0,.79-.58s-.43-.52-.8-.52a15.41,15.41,0,0,1-2,0c-.78-.13-2.09.7-2.15-1-2.22-.43-.88-2.14-1.1-3.24s.83-.63,1.34-.67,1.27-.36,1.23.68a11.2,11.2,0,0,1,0,1.16c-.24,1.49.32,1.87,1.85,1.95,1.89.1,1.72-.89,1.69-2.11,0-1.85,0-1.84,1.84-1.73.67,0,.79.32.78.89,0,1.31,0,2.62,0,3.94,0,.62.26,1.46-.88,1.36C441.55,266.53,439.86,265.35,438.86,265.69Z" transform="translate(1.48)"/><path class="cls-13" d="M154.13,217.17c-2.27,0-4.54,0-6.81,0-1,0-1.36.36-1.39,1.36-.1,3-.13,3-3.21,3h-.58c-.5-.38-.41-.94-.44-1.47-.22-4.94.57-9.87.24-14.82,0-.16.12-.25.2-.37.61,1,.21,2.08.28,3.13a18.4,18.4,0,0,1,0,3.06c-.12,1.32.33,1.93,1.7,1.7s1.94.35,1.87,1.84c-.12,2.48-.26,2.17,2.25,2.27C150.2,217,152.19,216.5,154.13,217.17Z" transform="translate(1.48)"/><path class="cls-20" d="M96.52,264.57c-1.36,0-2.72,0-4.07-.06-.87,0-2.11.53-2.23-1.11a3.68,3.68,0,0,0-.69-.06A1.74,1.74,0,0,1,90,262c1.3-1.77,3-.83,4.47-1.06.5-.08,1.13.14,1.08-.75s-.65-.58-1.08-.59c-1,0-2,0-3.06,0-.4,0-.78,0-.81-.57s.35-.69.83-.68l5.54,0c0,.53-.21,1.21.79,1.17.59,0,.44.56.41.9-.12,1.32.4,2.72-.29,3.95C97.79,264.67,97,264.54,96.52,264.57Z" transform="translate(1.48)"/><path class="cls-16" d="M419.66,264.52a7.3,7.3,0,0,0-2,0c-1.49.47-1.8-1.26-2.91-1.44a1.36,1.36,0,0,1,0-.53c1-.23,1-1.66,2.18-1.63s2,0,3.07,0c.46,0,.87,0,.88-.66s-.34-.7-.84-.7c-1.07,0-2.14,0-3.21,0-.42,0-.89.09-.9-.61s.48-.6.89-.61h4.39c.54,0,1.12-.1,1.07.75,0,.42.31.43.6.43.57,0,.61.35.61.77,0,1.12,0,2.24,0,3.36,0,.63-.21.86-.84.84C421.61,264.49,420.63,264.52,419.66,264.52Z" transform="translate(1.48)"/><path class="cls-17" d="M138.62,262.47c1.44-1.69,3.37-1.71,5.35-1.54.47,0,.87,0,.86-.67s-.45-.63-.89-.63h-3.06c-.47,0-1,.1-1-.69s.54-.53.94-.56.87,0,1.31-.05c.1-.12.19-.11.29,0H146a.45.45,0,0,0,.28.06c-.07.85.2,1.35,1.16,1.16.16,1.59.66,3.57-.13,4.65s-2.8.22-4.28.3c-.68,0-1.36,0-2,0s-1.12.12-1.07-.74c0-.41-.29-.46-.59-.43C138.6,263.4,138.72,262.86,138.62,262.47Z" transform="translate(1.48)"/><path class="cls-16" d="M383.94,259.57c0,1.65,0,3.29,0,4.93a31.41,31.41,0,0,0-5.23.09c-1.58.27-2.26-.94-3.36-1.43-.11-.05-.06-.44-.09-.68,1.07-.08,1.07-1.76,2.41-1.55a19.53,19.53,0,0,0,2.76,0c.5,0,1,.06,1-.71s-.56-.64-1-.64h-3.06c-.44,0-.89,0-.88-.63s.51-.58.91-.58c1.51,0,3,0,4.52,0,.33,0,.91-.19.88.42C382.72,259.83,383.43,259.51,383.94,259.57Z" transform="translate(1.48)"/><path class="cls-16" d="M395.4,263.39c-.83-.42-.57-.67,0-1.29,1.39-1.63,3.17-1.06,4.85-1.13.52,0,.82-.12.81-.73s-.45-.63-.9-.63c-1,0-2.05,0-3.07,0-.41,0-.92.13-.95-.57s.55-.64,1-.64c1.26,0,2.53.06,3.79,0,1-.06,1.59.14,1.81,1.13a.6.6,0,0,1,.84.07c0,1.55.61,3.48-.1,4.54s-2.85.25-4.35.41a14.23,14.23,0,0,1-1.6,0c-.7,0-1.52.22-1.48-1C396,263.33,395.64,263.34,395.4,263.39Z" transform="translate(1.48)"/><path class="cls-16" d="M331,264.52a4.34,4.34,0,0,0-1.3,0c-1.58.55-2.39-.8-3.52-1.35-.12-.06-.09-.44-.12-.67,1-.15,1-1.63,2.22-1.57,1,.05,1.94,0,2.91,0,.51,0,1,0,1-.71s-.57-.64-1-.64H328c-.48,0-.85-.05-.82-.69s.43-.54.81-.54h4.66c.49,0,.87,0,.84.67a.6.6,0,0,0,.13.4c.32.27,1.08-.16,1.08.65,0,1.36,0,2.72,0,4.07,0,.47-.51.34-.82.35Z" transform="translate(1.48)"/><path class="cls-21" d="M359.91,258.38c.49,0,1,0,1.46,0,.85,0,1.75-.17,1.85,1.08,1.44,0,1,1.05,1.06,1.83s-.22.93-.91.91c-1.36-.05-2.73-.05-4.09,0-.39,0-1.09-.34-1.11.48s.73.58,1.19.6c1,0,1.94,0,2.91,0,.42,0,.76,0,.77.6s-.3.62-.73.62h-4.82c-.42,0-.79,0-.75-.59,0-.33-.11-.6-.48-.58-.87.06-.74-.55-.75-1.07v-1.17a2.65,2.65,0,0,1,2.79-2.73Z" transform="translate(1.48)"/><path class="cls-17" d="M202.24,264.52a3,3,0,0,1-.73,0c-.94-.25-2.41.79-2.71-1.07-1.54,0-1-1.2-1-2s-.58-1.91,1-2c.39,0-.09-1.09.81-1.06,1.8.05,3.61-.11,5.38.08,1,.11,2.25,4.13,1.44,4.65s-1.62,2-3.17,1.44A2.83,2.83,0,0,0,202.24,264.52Z" transform="translate(1.48)"/><path class="cls-17" d="M182,258.38c.78,0,1.56,0,2.34,0,.59,0,1.48-.34,1.39.84,2.27.95.85,2.92,1.19,4.39.26,1.15-.69.88-1.32.89s-1.43.24-1.31-.92c.07-.77-.08-1.57,0-2.33.2-1.39-.38-1.73-1.68-1.65-2.12.13-1.81-.24-1.84,1.91a7.91,7.91,0,0,0,0,1.46c.23,1.32-.32,1.68-1.59,1.58-.78-.07-1.12-.2-1.08-1.06a39.86,39.86,0,0,0,0-4.09c0-.86.28-1.1,1.08-1S181.05,258.38,182,258.38Z" transform="translate(1.48)"/><path class="cls-17" d="M172.66,264.52h-1.75c-.73,0-1.65.24-1.56-1-2.15-.39-.76-2.06-1.11-3.11-.15-.43,0-.88.64-.83.09,0,.24,0,.28,0,1.68-2.48,4.17-.51,6.19-1.13.28.95,1.78,1,1.68,2.22-.05.63,0,1.26,0,1.89,0,.46,0,.89-.66.86-.16,0-.48.14-.48.22,0,1.44-1.09.84-1.77.93A11.69,11.69,0,0,1,172.66,264.52Z" transform="translate(1.48)"/><path class="cls-22" d="M409.72,258.33l1.75.05c.45,0,.92,0,.86.64,0,.13,0,.36.11.39,2.48,1.1.67,3.17,1,4.75.13.67-1.13.22-1.74.35s-.78-.16-.76-.73c0-1-.05-2,0-3.07s-.29-1.13-1.17-1.13c-2.39,0-2.39,0-2.39,2.37,0,.39,0,.78,0,1.17a1.52,1.52,0,0,1-2.29,1.38c-.37-.17-.31-.44-.32-.72,0-.53,0-1.07-.06-1.6-.74-1-.38-2.15-.36-3.24a1,1,0,0,1,.83-.92C406.73,257.75,408.27,257.43,409.72,258.33Z" transform="translate(1.48)"/><path class="cls-8" d="M55,204.59h.3c-.16,1.09-1,.86-1.7.88-1.9,0-2.1.23-2.1,2.11,0,1.32,0,2.63,0,3.95,0,1.56-.55,2.11-2.1,2.12-2.67,0-5.35,0-8,0-2,0-2.41.31-2.1,2.28.2,1.22-.1,1.54-1.28,1.54-3.15,0-3.15.05-3.15,3.28v35.35c0,2,0,2,2,2,.61,0,1.28-.22,1.82.29-1,0-1.95,0-2.92,0s-1.21-.31-1.19-1.19c0-2,0-4.09,0-6.13,0-10.71,0-21.42,0-32.13,0-1.38.35-2,1.78-1.78h.15c2.81,0,2.47.33,2.49-2.49,0-1.89,0-1.89,1.93-1.89,2.82,0,5.65,0,8.47,0,1.22,0,1.65-.41,1.61-1.62-.07-1.79,0-3.6,0-5.4,0-.88.29-1.24,1.18-1.19S54,204.59,55,204.59Z" transform="translate(1.48)"/><path class="cls-11" d="M215,271.53l0-.28c-.05-2-.05-2-2.05-2.09v-4.59a4.62,4.62,0,0,0,.65-2.72c0-.79-.12-1.64.63-2.24a3,3,0,0,1,1.43-.18c.92,0,1.27.41,1.25,1.34-.05,3.55,0,7.1,0,10.65A1.86,1.86,0,0,1,215,271.53Z" transform="translate(1.48)"/><path class="cls-22" d="M447.8,264.52h-2.63c-.45,0-1,.17-1-.65s.54-.57.94-.57h4.23c.4,0,.93.16,1-.54s-.52-.56-.91-.57c-.87,0-1.75,0-2.63,0-.68,0-1.55.23-1.41-1a.36.36,0,0,0-.35-.39c-.45,0-.86,0-.83-.7s.62-.39.77-.59c1.63-2.28,4-.62,5.93-1.12.45-.11.88,0,.84.66s-.43.55-.82.55c-.93,0-1.85,0-2.77,0-.49,0-1.29-.39-1.32.62s.87.61,1.38.7a2.39,2.39,0,0,0,1.16,0c1.57-.57,2.34.82,3.45,1.35.27.13.14.78.09.78-1.18.07-1.38,2-2.92,1.49A7.13,7.13,0,0,0,447.8,264.52Z" transform="translate(1.48)"/><path class="cls-22" d="M467.65,264.52h-2.92c-.46,0-.88,0-.84-.66s.42-.56.81-.56h4.38c.41,0,.93.13.94-.57s-.55-.52-.93-.54c-.78,0-1.56,0-2.34,0s-1.78.38-1.69-1c0-.2-.17-.33-.4-.34-.4,0-.76,0-.78-.61s.3-.64.74-.64c.09,0,.26,0,.27-.05.34-1.76,1.74-1,2.73-1.09s2.23,0,3.35,0c.39,0,.45.26.47.58,0,.57-.31.64-.74.64h-3.36c-.48,0-.84,0-.84.69s.39.68.86.67a6.26,6.26,0,0,0,1.89,0c1.56-.54,2.15,1,3.27,1.38.1,0,.07.44.1.68-1.06.09-1,1.77-2.34,1.57A16.47,16.47,0,0,0,467.65,264.52Z" transform="translate(1.48)"/><path class="cls-18" d="M214.12,259.85a13.28,13.28,0,0,0-.1,3.56c0,.89-.26,1.22-1.11,1.16-1.23.16-1.79-.32-1.55-1.61.07-.37,0-.77,0-1.16.11-1.35.16-2.61-1.85-2.18-.48.1-.68-.21-.66-.7s.3-.58.67-.53c1.64.24,2.39-.87,3.06-2.05.24-.42.58-.28.88-.29,1,0,1.94,0,2.91,0,.77,1.13-.13,1.37-1,1.72.38.24.83.24,1.09.55a.79.79,0,0,1-.52,1.36C215.34,259.79,214.7,259.53,214.12,259.85Z" transform="translate(1.48)"/><path class="cls-22" d="M429.56,264.52h-3.07c-.44,0-.74-.06-.73-.62s.36-.68.76-.59c1.7.35,1.8-.64,1.7-1.91-.06-.92,0-1.85,0-2.77,0-.64.23-1.42-.88-1.42-.39,0-.3-.43-.31-.71s.28-.43.58-.46h.15c3-.32,3-.32,3,2.7,0,.83.06,1.67,0,2.49-.12,1.36,0,2.44,1.81,2.08.46-.09.72.14.7.66s-.42.55-.81.55Z" transform="translate(1.48)"/><path class="cls-23" d="M137.68,258.44c.15,1-.27,1.27-1.21,1.21-1.16-.07-2.34.05-3.49,0s-1.66.21-1.46,1.41a13.74,13.74,0,0,1,.08,1.44c-.24.92.42.79.94.79h4.22c.43,0,.89,0,.91.62s-.44.63-.88.63c-1.94,0-3.88,0-5.82,0-.55,0-.89-.06-.93-.75s-1.5-.22-1.31-1.31a11.83,11.83,0,0,0,.08-1.88c-.1-.86.31-1.1,1-1.12.23-.88.74-1.17,1.7-1.12C133.59,258.47,135.63,258.42,137.68,258.44Z" transform="translate(1.48)"/><path class="cls-22" d="M370.3,264.49c-.94.21-1.37-.12-1.25-1.12.07-.63,0-1.27,0-1.9.14-1.32-.08-2.21-1.73-1.88-.4.09-.77,0-.79-.57s.43-.7.87-.63c1.33.21,1.8-.3,1.66-1.64-.12-1.14.84-.64,1.35-.68s1.34-.28,1.19.72c-.22,1.4.41,1.78,1.67,1.6.39-.05.78-.05.8.55s-.4.74-.85.66c-1.43-.26-1.77.43-1.62,1.69.08.62-.05,1.27,0,1.9C371.79,264.28,371.42,264.76,370.3,264.49Z" transform="translate(1.48)"/><path class="cls-18" d="M152.1,262.47c0-.43,0-.87.08-1.3.17-1.15-.18-1.74-1.46-1.55-.44.06-1,.16-1-.64s.5-.65.9-.59c1.24.19,1.81-.22,1.57-1.54-.14-.79.41-.92,1-.79s1.67-.52,1.57.57c-.14,1.74.67,1.94,2,1.76a.56.56,0,0,1,.61.28c0,.73-.3,1.1-1,1-1.38-.27-1.69.41-1.54,1.61.08.57-.06,1.18,0,1.74.21,1.32-.33,1.6-1.58,1.58C151.37,264.54,152.54,263.12,152.1,262.47Z" transform="translate(1.48)"/><path class="cls-11" d="M409.72,258.33c-1.35,0-2.7.07-4.05,0-.71,0-.92.24-.9.92,0,1,0,1.93,0,2.89-.73,0-.85-.4-.86-1s.21-1.16-.32-1.61l-.84-.07v-4.32c1.79,0,3.58.09,5.37,0,1.4-.1,1.81.46,1.65,1.74A11.69,11.69,0,0,0,409.72,258.33Z" transform="translate(1.48)"/><path class="cls-23" d="M111.5,259.43c0-.68.18-1.21,1.07-1.06s2-.3,3,.3c0,1.07,0,2.14-.09,3.21s.18,1.59,1.33,1.39a3.74,3.74,0,0,1,.58,0c.45,0,.56.26.57.67s-.23.58-.63.58H111c-.36,0-.67,0-.69-.53s.16-.69.66-.73,1.54.34,1.73-.28a8,8,0,0,0,.08-2.89C112.72,259.31,111.85,259.82,111.5,259.43Z" transform="translate(1.48)"/><path class="cls-22" d="M459,264.52H456.1c-.38,0-.78.06-.81-.55s.37-.64.84-.69,1.38.36,1.53-.35a7.08,7.08,0,0,0-.05-3.17s-.06-.1-.1-.1c-.55,0-1.19-.1-.93-.88s1-.37,1.51-.38c2.24,0,2.24,0,2.24,2.17a8.66,8.66,0,0,1,0,1c-.15,1.21.12,2,1.59,1.72.41-.08.9-.11.92.59s-.45.62-.88.62Z" transform="translate(1.48)"/><path class="cls-18" d="M163.4,264.52h-3.06c-.44,0-.74-.06-.73-.62s.31-.6.74-.64,1.45.31,1.59-.26a12.22,12.22,0,0,0,.08-3c0-.1-.17-.29-.26-.29-.67,0-1.07-.27-.83-1s.83-.32,1.26-.32c2.51-.06,2.51,0,2.51,2.47a6.93,6.93,0,0,1,0,1c-.16,1.05.18,1.54,1.33,1.4.44-.06,1.16-.29,1.17.61s-.72.58-1.17.61C165.15,264.56,164.28,264.52,163.4,264.52Z" transform="translate(1.48)"/><path class="cls-24" d="M329.63,314c0,2.84,0,2.84-3.32,2.84-1.88,0-2.42-.6-2.45-2.43,0-1.15.71-1.48,1.59-1.65a4.7,4.7,0,0,1,1.45,0c.75.08,1.1-.17,1-.95s.36-.81,1-.83.85.22.81.85S329.63,313.28,329.63,314Z" transform="translate(1.48)"/><path class="cls-25" d="M273.2,313.93c0-2.94,0-2.94,3.38-2.93,1.79,0,2.57.79,2.35,2.5a1.66,1.66,0,0,1-1.69,1.59,11.45,11.45,0,0,1-1.31,0c-.65-.06-1.06.11-.94.86s-.36.89-1,.92c-.86,0-.77-.5-.77-1S273.2,314.56,273.2,313.93Z" transform="translate(1.48)"/><path class="cls-26" d="M364.89,316.85c-2.91,0-2.91,0-2.91-3s0-2.89,3-2.89h2c.33,0,.73-.07.68.48s-.36.38-.64.38c-.78,0-1.56,0-2.34,0-.63,0-.95.08-1,.85s.31,1,1,.93a6.37,6.37,0,0,1,1.31,0c.34,0,.9-.21.85.45s-.57.37-.91.4a11.63,11.63,0,0,1-1.32,0c-.49,0-.92-.08-.94.7s.45.79,1,.78c.78,0,1.56,0,2.34,0,.3,0,.59,0,.59.44s-.31.42-.6.42Z" transform="translate(1.48)"/><path class="cls-27" d="M336.64,313.56c0-.65,0-1.19,0-1.72s.12-.9.79-.86,1.12,0,1,.8.38,1,1.11,1c.43,0,.87,0,1.31,0a1.48,1.48,0,0,1,1.46.95c.06.72.53,1.58-.4,2.31a3.8,3.8,0,0,1-4.87,0C336.21,315.2,336.91,314.26,336.64,313.56Z" transform="translate(1.48)"/><path class="cls-25" d="M415.7,311c.64.2,1.71-.54,2.13.82.07.2.88.4.38.79s-1.31.43-1.52-.16c-.33-.88-.93-.49-1.42-.57s-.85.16-.85.81.12.93.87,1,1.57-.27,2.43.34c.66.48.88,1,.63,1.46s-.63,1.3-1.39,1.37c-.92.08-1.85,0-2.78,0s-.83-1-1.48-1.22c-.09,0,0-.56.28-.5.5.08,1.13-.44,1.49.41s1.19.42,1.78.36.26-.7.33-1.09c.08-.57-.29-.62-.73-.61a7.22,7.22,0,0,1-1.74,0c-.77-.17-1.5-.48-1.44-1.51a1.85,1.85,0,0,1,1.46-1.66A5.77,5.77,0,0,1,415.7,311Z" transform="translate(1.48)"/><path class="cls-25" d="M345.84,317.79c-.69-.33-2,.39-2-.47s1.26-.24,1.92-.47c.38-.14,1.12.36,1.09-.48s-.66-.34-1-.39-1,0-1.46,0c-1.06-.12-2-2.15-1.36-3,.31-.41.82-.18,1.24-.2.61,0,.41.49.52.83.17.52-.61,1.45.68,1.52,1,.06,1.7-.1,1.46-1.35-.14-.7.09-1,.91-1s1,.47.86,1.09c-.19,1.13.38,2.28-.66,3.43C347.22,318.12,346.48,317.35,345.84,317.79Z" transform="translate(1.48)"/><path class="cls-28" d="M158.52,250.19c-1.12,0-2.24,0-3.35,0-.75,0-1-.29-1-1-.21-3.07-.24-3.07,2.79-3.07h1.61Z" transform="translate(1.48)"/><path class="cls-29" d="M214.12,259.85c.49-.46,1.1-.17,1.65-.22s.69-.21.67-.71-.35-.43-.67-.55c-.58-.21-1.72.64-1.71-.56,0-1,1.08-.46,1.66-.51,1-.07.69-.7.67-1.24.51-.48.32-1.09.32-1.65q0-12.67,0-25.35c0-.56-.18-1.17.29-1.66q0,21.38,0,42.76c0,.56.19,1.18-.29,1.67q-.27-.15,0-.3v-9.75c0-1.91,0-1.91-1.87-1.92Z" transform="translate(1.48)"/><path class="cls-30" d="M288.86,312.75c.69.13,1.48-.16,2.31.49.66.53.42,1,.4,1.5s-.6.32-.94.34c-.77,0-1.55,0-2.33,0-.28,0-.59,0-.6.41s.25.46.56.46h2c.26,0,.49,0,.53.36s-.05.49-.37.49c-1.16,0-2.44.29-3.46-.09a2.24,2.24,0,0,1-1.12-2.76,1.68,1.68,0,0,1,1.85-1.23Z" transform="translate(1.48)"/><path class="cls-31" d="M447.23,316.85c-2.43,0-2.94-.47-2.87-2.56a1,1,0,0,1,.64-1.07c.8-.39,3.6-.67,4.33-.25a2,2,0,0,1,.69,2.58c-.19.56-.69,1.53-1.77,1.31A5,5,0,0,0,447.23,316.85Z" transform="translate(1.48)"/><path class="cls-32" d="M304.87,314.77c0-2,0-2,2-2h1.9c1.26,0,1.8.69,1.88,1.84,0,.53,0,1.07,0,1.61.05.82-.54.61-1,.65s-.85-.08-.79-.71a11.2,11.2,0,0,0,0-1.16c0-.69.25-1.41-1-1.41s-1.25.54-1.17,1.4c0,.39,0,.79,0,1.17.07.77-.44.7-.94.72s-1-.06-.9-.77A11.63,11.63,0,0,0,304.87,314.77Z" transform="translate(1.48)"/><path class="cls-33" d="M377.27,312.75c.88.09,2-.33,2.79.87.64,1,.25,1.93.28,2.89,0,.53-.61.28-1,.34-.65.1-.87-.22-.82-.84,0-.43,0-.88,0-1.31.09-.78-.11-1.12-1-1.11s-1.29.18-1.15,1.13c.06.43,0,.88,0,1.31.07.64-.19.85-.82.83s-1.07-.05-1-.84a6.46,6.46,0,0,0,0-.88C374.66,312.75,374.66,312.75,377.27,312.75Z" transform="translate(1.48)"/><path class="cls-34" d="M383.72,316.85c-2.23,0-2.91-.69-2.75-2.74a1,1,0,0,1,.55-.86,6.09,6.09,0,0,1,4.65,0c.78.42.53,1,.49,1.45,0,.66-.66.37-1,.39-.78.05-1.56,0-2.34,0-.35,0-.54.13-.51.51s.26.37.51.37h2c.3,0,.6,0,.61.44s-.32.42-.61.42Z" transform="translate(1.48)"/><path class="cls-26" d="M434.76,312.75c.61.17,1.32-.13,2.12.48s.51.95.5,1.42c0,.69-.64.41-1,.43-.78,0-1.55,0-2.33,0-.29,0-.59,0-.58.44s.32.42.6.43H436c.28,0,.6,0,.64.38s-.22.48-.53.48a11.41,11.41,0,0,1-3,0c-1.18-.33-1.44-1.41-1.36-2.6s.78-1.26,1.54-1.42A8,8,0,0,1,434.76,312.75Z" transform="translate(1.48)"/><path class="cls-26" d="M320.35,316.85c-2.27,0-2.85-.6-2.73-2.72a1,1,0,0,1,.63-.93c1.08-.66,4-.62,4.86.17.46.41.25.9.22,1.34-.05.59-.59.36-.93.37-.82,0-1.64,0-2.47,0-.32,0-.56.1-.52.5s.27.36.51.37h2c.29,0,.58,0,.59.44s-.32.42-.6.42Z" transform="translate(1.48)"/><path class="cls-26" d="M301.4,316.85c-2.34,0-2.88-.53-2.78-2.66a1,1,0,0,1,.57-1c1.1-.66,3.87-.65,4.86.11.52.41.28.88.28,1.31,0,.61-.53.42-.88.43-.82,0-1.64,0-2.47,0-.28,0-.59,0-.58.44s.31.42.6.43h2c.25,0,.47.06.5.38s-.22.48-.53.48Z" transform="translate(1.48)"/><path class="cls-24" d="M402.73,316.85c-2.35,0-2.75-.47-2.78-2.58,0-.78.49-1,.85-1.28.68-.58,3.95-.26,4.6.37a1.9,1.9,0,0,1,.22,2.13c-.21.49-.49,1.41-1.43,1.36C403.71,316.83,403.22,316.85,402.73,316.85Z" transform="translate(1.48)"/><path class="cls-24" d="M421.82,316.85c-2.39,0-2.94-.52-2.83-2.65a.94.94,0,0,1,.59-1c.8-.4,3.64-.68,4.37-.25a2,2,0,0,1,.67,2.6,1.59,1.59,0,0,1-1.78,1.29A5,5,0,0,0,421.82,316.85Z" transform="translate(1.48)"/><path class="cls-8" d="M142.14,204.89v16.66h0c-1.25.88-2.6.61-3.94.32a2.36,2.36,0,0,1-.44-.32c.74-.56,1.6-.25,2.4-.27s1.18-.32,1.1-1.13c-.42-4.27.72-8.47.62-12.73,0-1.23-.27-1.87-1.61-1.66a2.59,2.59,0,0,1-2.51-1.17h.29C139.41,204.74,140.82,204.28,142.14,204.89Z" transform="translate(1.48)"/><path class="cls-11" d="M248.15,198.75c1.3-.32,1.73.35,1.64,1.81-.12,1.82-.21,2-2,2s-1.84-.18-1.83-2.13C246,198.75,246,198.75,248.15,198.75Z" transform="translate(1.48)"/><path class="cls-25" d="M388.84,313.85a2.23,2.23,0,0,0,2,.33c1.11-.31,1.35.75,2,1.09.28.14-.71,1.54-1.22,1.56-1.27,0-2.53,0-3.79,0-.28,0-.61,0-.62-.4s.4-.46.71-.46c.88,0,1.75,0,2.63,0,.29,0,.6,0,.6-.43s-.3-.44-.6-.44a12.62,12.62,0,0,0-1.74,0c-.9.1-.94-.93-1.59-1.11.65-.25.64-1.29,1.54-1.26s1.75,0,2.62,0c.3,0,.74-.15.76.4s-.4.44-.72.46A8.38,8.38,0,0,0,388.84,313.85Z" transform="translate(1.48)"/><path class="cls-25" d="M294,313.62a1.46,1.46,0,0,0,1.78.56c1.11-.31,1.37.73,2,1.09.34.2-.73,1.55-1.36,1.57-1.17,0-2.33,0-3.5,0-.3,0-.75.14-.76-.4s.52-.45.85-.46c.83,0,1.66,0,2.48,0,.29,0,.6,0,.61-.43s-.3-.44-.6-.44a11.22,11.22,0,0,0-1.74,0c-.9.11-.94-.93-1.59-1.11.65-.25.64-1.29,1.54-1.26s1.75,0,2.62,0c.3,0,.74-.15.76.4s-.4.45-.72.46Z" transform="translate(1.48)"/><path class="cls-35" d="M345.34,272.08c0,.43,0,.87,0,1.31s-.09.8-.71.8-.69-.28-.71-.8.33-1.05-.44-1.16-1.39-.08-1.24,1c.06.44.16,1-.65,1s-.77-.51-.76-1.05c0-.82,0-1.64,0-2.47,0-.53,0-.92.75-.91s.72.32.68.81.05.95.83,1,.91-.45.85-1.06.22-.75.77-.74.66.25.64.72S345.34,271.55,345.34,272.08Z" transform="translate(1.48)"/><path class="cls-36" d="M441.25,316.85a6.93,6.93,0,0,1-1,0c-.48-.08-1.27.32-1.39-.3-.18-.92.71-.42,1.12-.58a.75.75,0,0,0,.35-.2c.32-.41,0-3.55-.4-3.89a.59.59,0,0,1-.29-.58c.05-.35.35-.26.56-.29,1.75-.28,2-.09,2,1.71,0,.63,0,1.26,0,1.89-.05.82-.09,1.59,1.12,1.39.27-.05.45.11.47.41s-.29.44-.58.44Z" transform="translate(1.48)"/><path class="cls-31" d="M428.72,316.83c-.65.09-1,0-1-.74.05-.48,0-1,0-1.46.06-.71-.11-1.12-.94-1-.33.05-.72,0-.68-.49s.39-.39.65-.36c.79.1,1.08-.24,1-1s.26-.81.85-.79,1,0,.9.76.24,1.13,1,1c.23,0,.5,0,.53.33s-.06.54-.35.51c-1.89-.19-1.06,1.23-1.21,2C429.43,316.21,429.79,317.07,428.72,316.83Z" transform="translate(1.48)"/><path class="cls-36" d="M397,316.83c-.74.14-1-.17-.93-.87,0-.44,0-.88,0-1.31.06-.68,0-1.16-.9-1-.33.05-.71,0-.68-.48s.38-.41.64-.37c.81.11,1.05-.25.94-1s.28-.81.86-.8,1,0,.88.76.28,1.11,1.07,1c.23,0,.51,0,.54.33s-.05.54-.36.51c-1.85-.2-1.1,1.19-1.24,2C397.68,316.17,398.09,317.05,397,316.83Z" transform="translate(1.48)"/><path class="cls-31" d="M314.49,316.83c-.72.14-1-.19-.9-.88,0-.43,0-.88,0-1.31.05-.68-.06-1.15-.91-1-.34.05-.72,0-.67-.5s.39-.38.65-.35c.66.06,1-.11.92-.86s.17-.92.88-.93,1,.25.87.93c-.14.92.47.87,1.08.86.24,0,.5,0,.53.35s-.07.52-.37.49c-1.87-.2-1.1,1.2-1.23,2C315.27,316.2,315.61,317,314.49,316.83Z" transform="translate(1.48)"/><path class="cls-37" d="M310.78,272.43c.12.55-.45.48-.45.75,0,1,0,1-1,1-.75,0-1.59.32-2.21-.25-.24-.22-1-.57-.66-.78,1.28-.88-.66-1.91.27-2.8A1.79,1.79,0,0,1,309,270c.49.3.83.78.24,1.78S310,272.48,310.78,272.43Z" transform="translate(1.48)"/><path class="cls-38" d="M353.25,274.13c-.53-.07-1.35.47-1.36-.69a3.07,3.07,0,0,0-.2-1.79,5.26,5.26,0,0,0-.18,2c0,.25-.07.48-.39.49s-.42-.19-.42-.47c0-.73,0-1.46,0-2.18,0-.18.12-.49.2-.49a13.48,13.48,0,0,1,3.48,0c.92.23.8,1.32.84,2.19,0,1.17-.66.93-1.33.88-.39-.25-.3-.65-.32-1C353.56,273.48,353.64,273.88,353.25,274.13Z" transform="translate(1.48)"/><path class="cls-39" d="M294.5,274.22l-1.3-.05a1.46,1.46,0,0,1-1.59-1.65,1.38,1.38,0,0,1,1.52-1.57c1.11,0,2.3-.25,3.09.88,0,.85-.27,1.33-1.25,1.19a14.55,14.55,0,0,0-2,0c.48.79,1.11.36,1.6.48s.94-.17.9.4S294.82,274.07,294.5,274.22Z" transform="translate(1.48)"/><path class="cls-40" d="M348.21,274.18c-2,0-2.47-.42-2.43-1.85a1.21,1.21,0,0,1,.61-1c1-.8,2.12-.43,3.12-.27.58.09.95.89.83,1.71C350.13,274.19,349.16,274.25,348.21,274.18Z" transform="translate(1.48)"/><path class="cls-37" d="M357.68,271c2.16,0,2.68.58,2.43,2.59-.06.52-.25.64-.71.64s-.75-.11-.73-.65c0-.38,0-.77,0-1.16,0-.58-.24-.74-.79-.76s-.91.16-.86.82c0,.39,0,.78,0,1.17,0,.59-.36.57-.77.57s-.65-.09-.63-.56a12.2,12.2,0,0,0,0-1.6c-.09-.8.16-1.19,1-1.07A8.66,8.66,0,0,0,357.68,271Z" transform="translate(1.48)"/><path class="cls-37" d="M362.11,273c.54.63,1.16.43,1.75.49.23,0,.52,0,.56.31s-.23.36-.47.36a16,16,0,0,1-2.19,0c-1-.11-1.55-1.79-1-2.58s3.23-.85,4-.06a1.19,1.19,0,0,1,.23,1.2c-.08.45-.54.28-.85.29C363.49,273,362.8,273,362.11,273Z" transform="translate(1.48)"/><path class="cls-41" d="M331.5,271.19a4.88,4.88,0,0,1,3.13-.15c1.19.36.95,1.6.88,2.57s-.87.46-1.34.54-1.17,0-1.75,0-.86-.59-1.3-.87c.37-.38.54-.95,1.23-1s1.25.28,1.79-.34C333.43,271.22,332.39,272,331.5,271.19Z" transform="translate(1.48)"/><path class="cls-42" d="M343.92,376.18h-.28V346.73h.28Z" transform="translate(1.48)"/><path class="cls-43" d="M325.83,273.86c1.17-.68,2.29-.09,3.3-.56-.76-.78-1.74.11-2.56-.84-1-1.17.49-1,.46-1.49a4.22,4.22,0,0,1,.87,0c.67.1,1.89-.32,1.91.27,0,.81-1.09.21-1.68.39-.22.07-.54,0-.57.3s.32.38.6.4h.15c.88-.06,2.13,0,2.1.88,0,1.14-1.34,1-2.28,1A4.52,4.52,0,0,1,325.83,273.86Z" transform="translate(1.48)"/><path class="cls-44" d="M320.94,274a13.8,13.8,0,0,1-3.45.2c-.45,0-.57-.22-.56-.63,0-1,0-2,0-3,0-.58.21-.75.76-.74s.68.21.68.69a7.42,7.42,0,0,0,.13,2.72C318.83,274,320.11,273.06,320.94,274Z" transform="translate(1.48)"/><path class="cls-45" d="M370.84,314.53a11.7,11.7,0,0,0,0,1.45c.07.74-.26.88-.93.89s-.91-.29-.86-.95,0-1.27,0-1.89c.06-.44-.42-1.17.48-1.26.58-.06,1.3-.25,1.38.73,0,.06.34.1.51.16C371.84,314.36,371.06,314.26,370.84,314.53Z" transform="translate(1.48)"/><path class="cls-46" d="M282.22,314.52a13.85,13.85,0,0,0,0,1.44c.07.69-.19.92-.89.91s-1-.14-.92-.87,0-1.36,0-2c0-.41-.34-1.07.38-1.18s1.39-.35,1.51.71c0,.06.34.08.51.12C283.24,314.33,282.48,314.26,282.22,314.52Z" transform="translate(1.48)"/><path class="cls-47" d="M310.12,263.34c-.86.08-1.53.14-1.5-1.09,0-1,.32-1.34,1.32-1.27.79.06,1.5-.11,1.44,1.14C311.34,263.1,311.13,263.59,310.12,263.34Z" transform="translate(1.48)"/><path class="cls-47" d="M310,257.24c1.05-.24,1.36.13,1.39,1.17,0,1.2-.57,1.14-1.41,1.17s-1.35-.15-1.35-1.23S309.14,257.06,310,257.24Z" transform="translate(1.48)"/><path class="cls-48" d="M321.83,274c1.43-.85,1.57-1.46.58-2.77,1.88-.58,2.1-.52,1.95,1.27-.09,1.18.95.84,1.47,1.57A12.67,12.67,0,0,1,321.83,274Z" transform="translate(1.48)"/><path class="cls-49" d="M368.22,271.6c-.29.66-.89,1.18-.71,2,.12.6-.42.51-.8.53s-.63-.14-.61-.58c0-.29,0-.58,0-.88,0-1.69,0-1.68,1.65-1.28.11,0,.3-.27.45-.41A.4.4,0,0,1,368.22,271.6Z" transform="translate(1.48)"/><path class="cls-49" d="M297.11,271.83c0-1.19.79-.88,1.47-.83,0,.24,0,.5.31.54a.4.4,0,0,1,0,.59c-.5.34-.31.87-.3,1.31s-.17.75-.73.75-.7-.29-.69-.8S297.13,272.35,297.11,271.83Z" transform="translate(1.48)"/><path class="cls-50" d="M351.74,313.62c-.7.14-.91-.16-.91-.85s.17-.94.88-.92.94.17.93.89S352.46,313.76,351.74,313.62Z" transform="translate(1.48)"/><path class="cls-50" d="M351.77,314.22c.77-.14.84.29.87.91s-.33.84-1,.87-.83-.33-.85-.95S351.11,314.1,351.77,314.22Z" transform="translate(1.48)"/><path class="cls-51" d="M163.39,257.32c-.47-.17-1.3.35-1.3-.66s.84-.59,1.3-.59,1.29-.43,1.29.59S163.85,257.14,163.39,257.32Z" transform="translate(1.48)"/><path class="cls-52" d="M459.1,257.32c-.55-.19-1.41.31-1.34-.73s.9-.47,1.38-.52,1.17-.38,1.18.56S459.44,257,459.1,257.32Z" transform="translate(1.48)"/><path class="cls-39" d="M370.84,314.53c.17-.31.57-.46.58-.87s-.18-1,.56-.91,1.39-.24,2,.21c.16.12.08.7-.3.62C372.49,313.32,371.72,314.05,370.84,314.53Z" transform="translate(1.48)"/><path class="cls-53" d="M282.22,314.52c.2-.3.58-.47.58-.9s-.24-.86.4-.85,1.46-.25,2.1.18c.16.11.08.7-.28.63C283.87,313.34,283.09,314,282.22,314.52Z" transform="translate(1.48)"/><path class="cls-54" d="M353.25,274.13a9.87,9.87,0,0,1,.26-2.7c.61,1,.23,1.89.39,2.7Z" transform="translate(1.48)"/><path class="cls-55" d="M298.89,272.13v-.59c.39-1.08,1.27-.46,1.94-.52,0,0,.18.29.15.32s-.29.28-.44.27A2,2,0,0,0,298.89,272.13Z" transform="translate(1.48)"/><path class="cls-33" d="M368.22,271.6l0-.58c.58,0,1.6-.39,1.6.24S368.78,271.5,368.22,271.6Z" transform="translate(1.48)"/><path class="cls-56" d="M323.76,270.47c-.29-.05-.75.09-.71-.42s.42-.28.68-.28.63-.08.65.32S324,270.43,323.76,270.47Z" transform="translate(1.48)"/><path class="cls-57" d="M129.85,360.69c0-1.31,0-2.63,0-3.94,0-.72.15-1.06,1-1,2.39,0,4.77,0,7.16,0,.53,0,1,0,1,.74,0,.15.15.44.25.45,2.11.28.82,1.89,1.11,2.86.12.4-.26.57-.65.58s-.73,0-.7.51.45.36.76.44c1.21.31.48,1.28.59,1.94.08.47.34,1.26-.67,1.26-.28,0-.69,0-.67.36.09,1.42-.92,1.07-1.67,1.07-2.1,0-4.2,0-6.29,0-.92,0-1.18-.3-1.15-1.18C129.89,363.42,129.85,362.06,129.85,360.69Z" transform="translate(1.48)"/><path class="cls-58" d="M203.18,355.72c.88,0,1.76,0,2.63,0s1.87-.49,1.88,1c2.39.63,1,2.57,1.35,3.9,0,.14.05.39,0,.42-1,.51-1.17,2.09-2.55,2.14a24.57,24.57,0,0,1-3.21,0c-1.05-.08-1.43.33-1.27,1.33.31,1.87-1.06,1.3-2,1.43-1.22.17-1.46-.37-1.43-1.47.07-2.48.06-5,0-7.45,0-1,.2-1.42,1.27-1.33S202.06,355.72,203.18,355.72Z" transform="translate(1.48)"/><path class="cls-58" d="M159,358.4c1.2.17,3.06-.65,4,.32s.18,2.7.24,4.1c0,.73,0,1.47,0,2.2,0,.54-.06,1-.77.93-.25,0-.6,0-.59.29,0,1.62-1.16,1.09-2,1.11-1.46.06-2.92,0-4.38,0-.67,0-1.37.18-1.38-.95s.59-1,1.31-1c1.17,0,2.34,0,3.51,0,.36,0,.87.11.83-.52s-.48-.39-.79-.39h-3.66c-.56,0-1.24.17-1.2-.78,0-.13-.1-.37-.16-.38-1.92-.1-1.06-1.57-1.22-2.5-.1-.6.06-1.08.83-1,.14,0,.39-.05.4-.11.37-2.3,2.16-1,3.31-1.29A7.74,7.74,0,0,1,159,358.4Z" transform="translate(1.48)"/><path class="cls-59" d="M342.72,377c.08.18,0,.29-.17.3-.38,0-.77,0-1.16,0q-108,0-216,0c-.54,0-1.48.62-1.69-.57a2.13,2.13,0,0,0,.25,0,4.42,4.42,0,0,0,1.88.13h215A4.73,4.73,0,0,1,342.72,377Z" transform="translate(1.48)"/><path class="cls-60" d="M342.72,377l-2,0H126.11c-.71,0-1.47.25-2.12-.27H341.62l1.16,0Z" transform="translate(1.48)"/><path class="cls-58" d="M249.77,365.94h-2.48c-.67,0-1.45.17-1.35-.95a.58.58,0,0,0-.28-.44c-.37-.19-1.09.19-1.1-.6,0-1.27-.47-3.18.15-3.64.91-.68,1.31-2.45,3.17-2a17.8,17.8,0,0,0,4.07.06c.76,0,1.77-.32,1.69,1.08,0,.28.3.36.55.34.79-.07.81.42.84,1,.1,2.37.11,2.37-2.28,2.37H248.8c-.31,0-.77-.07-.72.45s.41.34.69.34c1.27,0,2.53,0,3.8,0,.72,0,1,.21,1.05,1s-.38,1-1.07.94C251.62,365.91,250.7,365.94,249.77,365.94Z" transform="translate(1.48)"/><path class="cls-58" d="M146.56,365.94h-2.63c-.67,0-1.31.06-1.22-.93a.59.59,0,0,0-.26-.45c-.37-.21-1.1.2-1.11-.59,0-1.27,0-2.53,0-3.8,0-.28.31-.31.56-.34s.65-.1.65-.17c.18-2.09,1.78-1,2.76-1.24a4.63,4.63,0,0,1,1.89,0c1.15.27,2.94-1,3.3,1.28,1.83.08,1.12,1.47,1.26,2.43s-.27,1.12-1.09,1.09c-1.36,0-2.73-.06-4.09,0-.59,0-1.69-.45-1.68.41s1.14.3,1.76.35a25.6,25.6,0,0,0,2.77,0c.7,0,.92.3.92,1s-.16,1-.9,1C148.51,365.9,147.53,365.94,146.56,365.94Z" transform="translate(1.48)"/><path class="cls-58" d="M226.65,365.94h-2.19c-.73,0-1.68.28-1.57-1a.47.47,0,0,0-.2-.34c-.37-.23-1.12.22-1.15-.55,0-1.26,0-2.53,0-3.79,0-.39.39-.37.68-.39s.61,0,.61-.25c0-1.68,1.21-1.14,2.06-1.17,1.56-.05,3.12,0,4.67,0,.53,0,1,0,1,.73,0,.24,0,.59.25.62,2.13.22.89,1.83,1.11,2.8.16.69-.53.66-1,.66h-5.11c-.32,0-.78-.07-.77.41s.48.38.79.38c1.21,0,2.43,0,3.65,0,.67,0,1.08.1,1.11.94s-.44,1-1.17,1C228.5,365.91,227.57,365.94,226.65,365.94Z" transform="translate(1.48)"/><path class="cls-58" d="M284.87,365.94c-1.07,0-2.14,0-3.21,0-.68,0-1.29,0-1.21-.94.05-.49-.34-.53-.69-.51-.61,0-.72-.31-.71-.82s0-1,.73-.95c.18,0,.51-.07.52-.14.28-2.3,2.05-1,3.14-1.27a8.49,8.49,0,0,1,1.89,0c.32,0,.73.07.75-.45s-.39-.48-.72-.48c-1.27,0-2.53,0-3.79,0-.8,0-1.13-.2-1.12-1.06s.45-.92,1.11-.92c1.8,0,3.59,0,5.39,0,.6,0,1.23-.07,1.17.84,0,.13.05.38.11.39,2.13.28,1.23,1.93,1.26,3,.1,3.3,0,3.3-3.31,3.3Z" transform="translate(1.48)"/><path class="cls-58" d="M318.76,365.94h-2.33c-.74,0-1.67.26-1.55-1.05,0-.1-.12-.26-.23-.33-.36-.22-1.1.21-1.12-.57,0-1.26,0-2.52,0-3.78,0-.38.39-.37.68-.38s.61,0,.61-.26c0-1.69,1.23-1.12,2.06-1.15,1.51-.06,3,0,4.52,0,.62,0,1.2,0,1.15.86,0,.16.13.48.21.48,1.89,0,1,1.46,1.17,2.32a9.49,9.49,0,0,1,0,1.6c0,.49-.07.87-.69.84-.18,0-.52.05-.53.11-.39,2.4-2.26.94-3.41,1.32A1.88,1.88,0,0,1,318.76,365.94Z" transform="translate(1.48)"/><path class="cls-58" d="M180.35,358.4c.93,0,1.85,0,2.78,0s1.89-.38,1.79,1.11a.16.16,0,0,0,.07.12c2.37.41.93,2.27,1.29,3.44a3.4,3.4,0,0,1,0,1c0,1.86,0,1.79-1.9,1.88-1.18,0-1.7-.26-1.55-1.51.1-.77-.08-1.57,0-2.33.24-1.54-.42-1.81-1.84-1.83s-2,.37-1.81,1.85c.1.67-.06,1.37,0,2,.2,1.39-.27,1.82-1.72,1.81s-1.87-.38-1.75-1.79a38.3,38.3,0,0,0,0-4.67c0-.91.3-1.2,1.18-1.16C178.11,358.45,179.23,358.4,180.35,358.4Z" transform="translate(1.48)"/><path class="cls-61" d="M237.48,365.94c-1.17,0-2.34,0-3.51,0-.73,0-.91-.29-.9-1s.2-1,.91-1c1.75,0,3.51,0,5.26,0,.31,0,.78.11.8-.38s-.47-.4-.77-.4c-.93,0-1.86,0-2.78,0s-2.09.48-2.09-1.17c0-.08-.2-.24-.31-.24-.72,0-1-.27-1-1s.45-.95,1.09-1c.08,0,.22-.09.23-.15.12-2,1.63-1.14,2.61-1.21,1.35-.11,2.72,0,4.09,0,.68,0,1.07.11,1.09.94s-.38,1.06-1.15,1c-1.21-.05-2.43,0-3.65,0-.37,0-.86-.09-.8.54s.48.38.79.38c1.22,0,2.44,0,3.66,0,.61,0,1.21-.05,1.13.86,0,.43.21.62.62.58.69-.06.8.32.8.89s-.15.93-.81.89c-.17,0-.5.11-.51.18-.07,2.05-1.62,1.07-2.57,1.23A13.33,13.33,0,0,1,237.48,365.94Z" transform="translate(1.48)"/><path class="cls-58" d="M260.63,358.4c1.07,0,2.14,0,3.21,0,.66,0,1.31-.07,1.26.91,0,.15.17.44.26.44,1.59,0,1.07,1.14,1.12,1.95s-.08,1.76,0,2.62c.18,1.41-.44,1.63-1.71,1.67-1.45.05-1.92-.43-1.71-1.8a10.15,10.15,0,0,0,0-1.46c0-2.33-.85-3-3.12-2.38-.53.14-.53.47-.53.87,0,1.21,0,2.43,0,3.64,0,.82-.23,1.18-1.07,1.09a7.91,7.91,0,0,0-1.46,0c-.73.06-.92-.3-.91-1,0-1.89,0-3.79,0-5.68,0-.7.28-.94,1-.92C258.2,358.43,259.41,358.4,260.63,358.4Z" transform="translate(1.48)"/><path class="cls-58" d="M329.6,358.4h3.06c.73,0,1.54-.16,1.47,1,0,.11.13.33.21.33,1.77,0,1,1.35,1.15,2.21a14.89,14.89,0,0,1,0,1.89c0,2.09-.7,2.59-2.81,2.11-.63-.15-.57-.57-.57-1,0-1.12-.05-2.23,0-3.35,0-.88-.13-1.32-1.18-1.28-3,.12-2.4-.33-2.48,2.45,0,.43,0,.87,0,1.31,0,2.09.23,1.76-1.89,1.87-1.18.07-1.64-.25-1.55-1.51.1-1.59.06-3.2,0-4.81,0-.91.2-1.34,1.22-1.26S328.48,358.4,329.6,358.4Z" transform="translate(1.48)"/><path class="cls-58" d="M296.47,365.88c-1.43.38-1.88-.25-1.7-1.58a10,10,0,0,0,0-1.45c0-2.17,0-2.2-2.11-2.48-.71-.09-.73-.48-.73-1s0-1,.74-1c.24,0,.49,0,.72,0,1.06.17,1.59-.2,1.38-1.33-.29-1.62.84-1.32,1.79-1.36s1.9-.06,1.63,1.37c-.21,1.13.33,1.45,1.38,1.33.71-.07,1.47-.19,1.44,1s-.75,1-1.39.91c-1.15-.14-1.57.28-1.44,1.44.09.81-.06,1.65,0,2.47C298.37,365.65,297.91,366.29,296.47,365.88Z" transform="translate(1.48)"/><path class="cls-58" d="M273.69,355.72c1-.18,1.75.08,1.48,1.49-.18,1,.3,1.26,1.23,1.22.51,0,1.21-.35,1.53.42s-.11,1.59-1.2,1.48c-1.35-.14-1.75.37-1.57,1.62a12.77,12.77,0,0,1,0,1.75c0,2.28-.56,2.7-2.82,2.25-.64-.13-.6-.51-.61-.95,0-1.07-.07-2.15,0-3.21s-.27-1.59-1.44-1.46c-.46.05-1.18.31-1.34-.46s-.17-1.64,1.07-1.47,1.87-.19,1.72-1.61C271.66,355.73,271.78,355.72,273.69,355.72Z" transform="translate(1.48)"/><path class="cls-26" d="M308,365.94c-1.21,0-2.43,0-3.65,0-.72,0-.92-.28-.92-.95s.17-1,.9-1,1.61.41,1.84-.34a9.66,9.66,0,0,0,.07-2.9c0-.4-.37-.39-.66-.4-1,0-.68-.76-.69-1.29,0-.75.55-.65,1-.67,3.79-.19,3.86-.19,3.75,3.62,0,1.52.25,2.31,1.94,2,.69-.12.92.26.94.94s-.29,1-1,1C310.31,365.91,309.14,365.94,308,365.94Z" transform="translate(1.48)"/><path class="cls-26" d="M170.15,365.94c-1.17,0-2.34,0-3.51,0-.66,0-1-.16-1-.89s.19-1.07,1-1.06c.6,0,1.55.34,1.73-.29a10.21,10.21,0,0,0,.08-3c0-.36-.44-.3-.72-.33-.86-.08-.59-.74-.62-1.22s.31-.77.83-.73a2.8,2.8,0,0,0,.29,0c3.71-.13,3.76-.13,3.68,3.56,0,1.42.08,2.4,1.87,2.07.77-.14,1,.29,1,1s-.31.92-1,.9C172.59,365.91,171.37,365.94,170.15,365.94Z" transform="translate(1.48)"/><path class="cls-26" d="M211.45,362.14c0-.49,0-1,0-1.46.06-2.51-.55-2.25,2.33-2.29.65,0,1.17.06,1.11.91,0,.25.06.49.39.49s.41-.23.4-.48c-.06-1,.59-.93,1.25-.91.83,0,1.65,0,2.48,0s1.12.2,1.11,1.06-.44.94-1.1.91-1.26,0-1.89,0-1.33-.11-1.26.89a.33.33,0,0,1-.1.26c-2.13.46-1.2,2.17-1.24,3.34s-.76,1.2-1.51,1.08-2,.7-2-1C211.48,364,211.46,363.06,211.45,362.14Z" transform="translate(1.48)"/><path class="cls-62" d="M170.17,357.48h-1c-.65,0-.66-.4-.66-.87s0-.89.63-.89,1.15,0,1.73,0,1.11,0,1.11.87-.43.94-1.08.89Z" transform="translate(1.48)"/><path class="cls-62" d="M307.81,357.48c-.45-.08-1.08.24-1.44-.23-.19-.24-.12-.73-.09-1.1s.44-.42.77-.43,1,0,1.44,0c.64,0,1.23-.1,1.22.9s-.67.84-1.27.86Z" transform="translate(1.48)"/><path class="cls-63" d="M241.44,258.38a7.84,7.84,0,0,0,2,0c1.44-.42,1.79,1,2.51,1.6.9.69,0,2.23-1.25,2.23h-3.95c-.37,0-.82-.09-.81.53s.44.54.82.54H244c.45,0,.88,0,.87.66s-.5.58-.92.59c-1.5,0-3,0-4.52,0-.84,0-.87-.92-1-1-1.86-.39-.92-1.81-1.1-2.78-.13-.7.7-1.07.83-1.36C238.91,257.45,240.54,258.85,241.44,258.38Z" transform="translate(1.48)"/><path class="cls-17" d="M252.06,264.52a4.4,4.4,0,0,0-1.31,0c-1.56.51-2.42-.74-3.53-1.35-.13-.07-.15-.63-.13-.63.95-.26,1-1.68,2.22-1.64,1,0,1.94,0,2.91,0,.49,0,1,.07,1-.7s-.5-.59-.92-.59h-3.21c-.4,0-.77,0-.79-.58s.37-.67.84-.67h4.66c.46,0,.91,0,.88.65,0,.47.29.54.66.53a.47.47,0,0,1,.53.54c0,1.31,0,2.62,0,3.93,0,.59-.49.48-.86.49Z" transform="translate(1.48)"/><path class="cls-3" d="M282.22,275.91c-.44.46-1,.29-1.52.3-4.34,0-8.67,0-13,0-1.2,0-1.63.32-1.59,1.55.07,2.27,0,2.27-2.2,2.27H239.07c-1.86,0-1.87,0-1.89-1.88s0-1.92-1.89-1.92H215v-.57c7,0,14,0,21.05,0,1.34,0,1.91.42,1.74,1.76,0,.29,0,.59,0,.88-.15,1.14.31,1.5,1.48,1.5q12.42-.08,24.84,0c1.15,0,1.52-.33,1.5-1.49,0-2.62,0-2.62,2.66-2.62h12.13A3.56,3.56,0,0,1,282.22,275.91Z" transform="translate(1.48)"/><path class="cls-17" d="M266.77,261.37c0-3,0-3,3.05-3,.82,0,1.65,0,2.47,0,.67,0,1.7-.33,1.93.19.44,1,2.06,1.55,1.38,3.09a2.38,2.38,0,0,0,0,1.3c.23,1.32-.32,1.65-1.58,1.59-.95,0-1.16-.36-1.1-1.2s0-1.66,0-2.47c.11-1.07-.34-1.4-1.32-1.26a4.35,4.35,0,0,1-1,0c-.86-.11-1.25.18-1.18,1.11s0,1.95,0,2.91-.64.91-1.24.86-1.48.42-1.43-.81C266.8,262.93,266.77,262.15,266.77,261.37Z" transform="translate(1.48)"/><path class="cls-17" d="M295.4,263.94a.61.61,0,0,1-.6.63c-.1.12-.2.12-.29,0-1.49.21-2.12-.4-1.84-1.91a4.33,4.33,0,0,0,0-.72c0-2.37-.51-2.76-2.87-2.32-.53.1-.61.37-.61.79v2.48c0,1.66-.38,1.94-2.07,1.64-.42-.08-.59-.23-.59-.64,0-1.6,0-3.21,0-4.81,0-.61.31-.71.82-.7h6c.41,0,.8,0,.8.57,0,.31.05.61.45.59.85-.06.76.52.76,1,0,1,.05,2,.07,3.06.11.06.14.12.11.19S295.44,263.94,295.4,263.94Z" transform="translate(1.48)"/><path class="cls-18" d="M228.63,260.33c0-1,.07-2,0-3.05s.34-1.3,1.32-1.27,1.46.05,1.38,1.21c-.1,1.5.08,3-.05,4.51s.4,1.7,1.63,1.56a20.34,20.34,0,0,1,2.47,0c.47,0,.88,0,.86.68s-.4.57-.8.57c-2,0-4,0-6,0-.65,0-.85-.24-.83-.85C228.65,262.56,228.63,261.45,228.63,260.33Z" transform="translate(1.48)"/><path class="cls-23" d="M281.66,264.52h-2.91c-.44,0-.89.05-.87-.64s.36-.57.78-.62,1.46.3,1.6-.25a12.3,12.3,0,0,0,.08-3,.4.4,0,0,0-.27-.28c-.59-.05-1.12-.18-.89-.94s.82-.35,1.25-.36c2.58-.05,2.58,0,2.58,2.57a6.93,6.93,0,0,1,0,1c-.14,1,.26,1.4,1.29,1.31.45,0,1.17-.29,1.17.62s-.73.57-1.17.6C283.41,264.56,282.54,264.52,281.66,264.52Z" transform="translate(1.48)"/><path class="cls-23" d="M261.75,260.7c-.56.09-1.05.19-.94,1a9.52,9.52,0,0,1,0,1.31,1.53,1.53,0,0,1-2.3,1.52c-.44-.19-.35-.53-.35-.85,0-1.21-.06-2.43,0-3.64,0-.54-.47-1.51.44-1.55.72,0,2-.9,2.25.83.05.44.57.19.87.28A1.07,1.07,0,0,1,261.75,260.7Z" transform="translate(1.48)"/><path class="cls-11" d="M257.66,186.47v-1.89a2.33,2.33,0,0,1,3.58-2.09c.61.32.49.88.51,1.4.07,2.58.06,2.58-2.49,2.58h-1.6Z" transform="translate(1.48)"/><path class="cls-46" d="M233.94,271.52c0,.75,0,1.38,0,2s-.21.66-.69.66-.73-.13-.71-.65c0-1,0-1.95,0-2.92,0-.31-.15-.76.36-.8.34,0,.73-.21,1,.24.52.81,1.13.91,1.68,0,.28-.45.69-.28,1.05-.26s.36.5.37.8c0,.93,0,1.85,0,2.77,0,.52-.1.81-.71.82s-.75-.27-.72-.8,0-1.12,0-1.74c-.71.14-.09,1.05-.81,1S234.65,271.82,233.94,271.52Z" transform="translate(1.48)"/><path class="cls-64" d="M247.42,269.78c.64,0,1.32-.23,1.43.87.06.59.82.25,1.26.28a2.06,2.06,0,0,1,1.65,3c-.19.32-.5.23-.77.24s-.59-.05-.6-.45,0-.78,0-1.16,0-.94-.74-.95-1,.29-.89.95c.09,1,.12,1.91-1.34,1.61a2.6,2.6,0,0,1-.4-2.58C247.22,271,247.18,270.36,247.42,269.78Z" transform="translate(1.48)"/><path class="cls-30" d="M217.8,271.62c0-.39,0-.78,0-1.17s0-.7.53-.66c.31,0,.84-.14.83.32,0,1.05.7.86,1.29.83,1.21-.05,1.83.45,1.8,1.71s-.76,1.53-1.84,1.53C217.85,274.17,217.8,274.14,217.8,271.62Z" transform="translate(1.48)"/><path class="cls-43" d="M272,273.12c.51-.26,1-.37,1.42.1a1.14,1.14,0,0,0,1.45.11c.12-.06.17-.45.13-.66-.15-.74-.77-.44-1.19-.44a1.65,1.65,0,0,1-1.45-.65c-.44-.51-.49-.78,0-1.24s2.86-.87,3.41-.34c.22.21.87.37.55.85a.77.77,0,0,1-1.06.08,1.47,1.47,0,0,0-1.14-.48c-.35,0-.68,0-.73.49s.31.59.73.6c.77,0,1.57-.2,2.07.78.32.63.31,1-.23,1.43C275,274.56,273,274.3,272,273.12Z" transform="translate(1.48)"/><path class="cls-32" d="M226,273.78c-1.14-.44-2.34.31-3-1a2.77,2.77,0,0,1-.32-1c-.06-.5.06-.82.69-.82s.76.22.73.77-.15,1.25.89,1.24.79-.62.79-1.17,0-.84.67-.84.77.24.73.78a13.6,13.6,0,0,1-.13,2.31c-.14.6-3,1.06-3.53.64a.49.49,0,0,1-.11-.35,1.24,1.24,0,0,1,.5-.22A4.41,4.41,0,0,0,226,273.78Z" transform="translate(1.48)"/><path class="cls-65" d="M258.73,273c.72.76,1.7.16,2.56.91a5.26,5.26,0,0,1-3.06.2c-1.13-.18-1.42-1.83-.56-2.64a3.38,3.38,0,0,1,3.7,0,1.06,1.06,0,0,1,.3,1.15c-.07.58-.6.33-.94.35C260.07,273,259.4,273,258.73,273Z" transform="translate(1.48)"/><path class="cls-66" d="M255,274.17c-1.13,0-2.49.16-2.55-.88s1.23-1,2.16-1c.26,0,.67.11.71-.28,0-.56-.44-.34-.73-.4-.53-.12-1.54.24-1.5-.31,0-.79,1-.33,1.55-.35,1.84-.06,2.58.87,2.12,2.66C256.41,274.82,255.35,273.74,255,274.17Z" transform="translate(1.48)"/><path class="cls-46" d="M279.31,274.17a3.23,3.23,0,0,0-.44,0c-.88.13-1.85-.17-1.86-1,0-.64,1-1,1.84-.9.34,0,1,.23,1-.27,0-.69-.65-.31-1-.39a3.45,3.45,0,0,0-.72,0c-.24,0-.53,0-.54-.34s.29-.32.51-.33c.54,0,1.07,0,1.6,0,1.41,0,1.57.85,1.69,2,.16,1.51-.78,1.21-1.62,1.22Z" transform="translate(1.48)"/><path class="cls-38" d="M266.93,274.06a15.94,15.94,0,0,1-4.27,0c1.49-1.18,1.7-2.61.69-4,1.94-.57,2-.53,2,1.45C265.35,273.19,265.35,273.19,266.93,274.06Z" transform="translate(1.48)"/><path class="cls-67" d="M247.42,269.78a24.76,24.76,0,0,0,0,4.39h-.59c-.65-.48-1.4-.26-2.1-.28-.95,0-1.27-.56-1.25-1.39a1.13,1.13,0,0,1,1.25-1.25c.7,0,1.45.2,2.1-.29C247.25,270.68,246.94,270,247.42,269.78Z" transform="translate(1.48)"/><path class="cls-37" d="M290.11,272.12c-.28,1-.15,1.7,1.28,1.69a11.31,11.31,0,0,1-3.9.35,2,2,0,0,1,0-.41c.9-.22,1.34-.67,1.17-1.68-.13-.72.13-1.54-.78-2,2.06-.49,2.06-.49,2.24,1.51A.37.37,0,0,1,290.11,272.12Z" transform="translate(1.48)"/><path class="cls-43" d="M246.83,271c-.1,1.32-1.1.4-1.64.65s-1.17-.33-1.3.46-.28,1.53,1,1.5c.61,0,1.66-.73,1.92.6-1,0-1.94,0-2.9,0s-1.45-.62-1.46-1.61.41-1.59,1.46-1.61Z" transform="translate(1.48)"/><path class="cls-68" d="M285.14,272.12c-.34,1,0,1.61,1.19,1.74-1.31.49-2.58.23-3.82.31h0c-.21-.21-.18-.55,0-.59,1.63-.38,1.13-1.22.49-2.11a.4.4,0,0,1,.06-.51c.7.25,1.9-.68,2,.88C285.33,271.92,285.33,272,285.14,272.12Z" transform="translate(1.48)"/><path class="cls-41" d="M242.24,274a15.63,15.63,0,0,1-4.59,0c2-.73,2.13-1.7,1-2.89,2-.39,2.13-.39,2.06,1.41C240.65,273.61,241.51,273.38,242.24,274Z" transform="translate(1.48)"/><path class="cls-51" d="M261.75,260.7v-1.13c0-.89.29-1.33,1.27-1.21a17.76,17.76,0,0,0,2.19,0c.34,0,.54.16.54.53s-.06.69-.51.71a8.53,8.53,0,0,1-1.75,0A1.38,1.38,0,0,0,261.75,260.7Z" transform="translate(1.48)"/><path class="cls-69" d="M281.64,256c.54.22,1.39-.33,1.35.7s-.84.59-1.32.59-1.29.37-1.27-.64S281.32,256.31,281.64,256Z" transform="translate(1.48)"/><path class="cls-3" d="M294.51,264.57h.29c-.05,4,.5,3.41-3.52,3.46h-.58c.64-.53,1.4-.32,2.08-.27,1.35.1,1.88-.43,1.73-1.75A13.83,13.83,0,0,1,294.51,264.57Z" transform="translate(1.48)"/><path class="cls-70" d="M283.1,271c-.1.32.16.47.26.7.3.69,1,1.62-.5,1.88-.4.07-.42.31-.33.63-.28-.2-.4-.59-.11-.69,1.21-.42,1.19-1,.49-1.91C282.74,271.35,282.89,271.11,283.1,271Z" transform="translate(1.48)"/><path class="cls-3" d="M290.11,272.12v-.58c.54-.62.21-1.36.3-2,.06-.5-.14-1.05.29-1.47v2.74C290.71,271.31,290.7,271.84,290.11,272.12Z" transform="translate(1.48)"/><path class="cls-3" d="M295.4,263.94v-.29c1-.11,2,.24,2.9-.25h.59C297.86,264.46,296.55,263.7,295.4,263.94Z" transform="translate(1.48)"/><path class="cls-3" d="M285.14,272.12v-.29c1.05.15,2.17-.34,3.17.3Z" transform="translate(1.48)"/><path class="cls-71" d="M284.4,269.77c.27,0,.68-.06.61.39s-.44.31-.72.3-.67,0-.6-.41S284.14,269.81,284.4,269.77Z" transform="translate(1.48)"/><path class="cls-71" d="M240.71,270c0,.33-.22.42-.48.42s-.74.12-.87-.3.22-.39.47-.38S240.52,269.62,240.71,270Z" transform="translate(1.48)"/><path class="cls-3" d="M216.71,271.53v.3H215a.72.72,0,0,1,0-.29Z" transform="translate(1.48)"/><path class="cls-13" d="M80.14,266.56c-.44.45-1,.29-1.52.29-4.62,0-9.25.15-13.86,0a71.17,71.17,0,0,0-8-.2c-2.72.2-5.43.24-8.15.24-.51,0-1.08.16-1.52-.28a2.83,2.83,0,0,1,2.19-.56c1.31,0,2.63,0,3.94,0,1,0,1.51-.39,1.49-1.46a27.23,27.23,0,0,1,.06-3.5c.06-.55.08-1.32.87-1.24s.6.77.64,1.29c.08.86-.18,1.76.4,2.54,1.25.47,1.53.36,1.56-.85,0-.94.26-1.92-.4-2.8A3,3,0,0,0,55,258.89c-1.35.06-2.64.06-3-1.75-.15-.75-.87-.59-1.44-.33a1.78,1.78,0,0,0-.46.88,1.91,1.91,0,0,1-2.81.9c-.55-.4-.55-.85,0-1.31.29-.24.95-.08.83-.76a3.75,3.75,0,0,1-.48-.76c-.2-2.77-.05-5.54-.08-8.31,0-.71.24-1.21,1.1-1.21s1.59,0,1.78,1.06a3.15,3.15,0,0,1,0,.44c.22,3.14.22,3.1,3.46,3.06,1.13,0,1.54-.42,1.53-1.55,0-3.6,0-7.2,0-10.8,0-1.22,0-2.44,0-3.65S55,233.28,54,233.38a5.61,5.61,0,0,1-.58,0c-1.94,0-2.54-.84-2-2.75.18-.65.62-.74,1.21-.77,2.85-.12,2.84-.14,2.84-3.07,0-1.26,0-2.53,0-3.79,0-.92.29-1.35,1.26-1.33,1.7,0,3.41,0,5.11,0,.84,0,1.11.33,1.11,1.12,0,1.8,0,3.6,0,5.4,0,1.46.26,1.67,1.72,1.68,2.66,0,3,.45,2.31,3.27-.54.69-1.32.46-2,.52a4.6,4.6,0,0,0-1.73.16v24.51c-.66.63-1.59.83-2.26,1.49a2.11,2.11,0,0,0-.1,3.13c.69.72,1.64,1,2.36,1.61,0,2,0,2,2.06,2Z" transform="translate(1.48)"/><path class="cls-13" d="M67.57,217.17v-4.1c.34-.6.93-.42,1.44-.43,1.75,0,3.51,0,5.26,0,.89,0,1.23-.29,1.2-1.17-.07-1.85.11-3.7-.1-5.55a1.55,1.55,0,0,1,.39-1.34h0a2.64,2.64,0,0,1,2-.58c1.41,0,2.81,0,4.22,0,.79,0,1.24-.25,1.36-1.13.32-2.36.67-2.63,3.07-2.66h3.79a2.49,2.49,0,0,1,1.9.58h0v12h0c-3.56,0-7.11,0-10.66,0-1,0-1.35.31-1.36,1.34,0,3.06-.06,3.06-3.21,3.06Z" transform="translate(1.48)"/><path class="cls-13" d="M92.13,217.16c0,3.75,0,7.5,0,11.25,0,1-.33,1.37-1.35,1.34-1.85-.06-3.7,0-5.55,0-.93,0-1.32-.38-1.31-1.31,0-3.36,0-6.72,0-10.08,0-1,.46-1.21,1.34-1.2,2.29,0,4.58,0,6.87,0Z" transform="translate(1.48)"/><path class="cls-13" d="M129.57,250.49c-6.23,0-12.45,0-18.67,0-1.53,0-2,.46-1.83,1.9s0,2.91,0,4.37c0,1.93,0,1.93-2,2,1.76-.17,1.82-1.36,1.72-2.75a28.79,28.79,0,0,1,0-3.94c.09-1.26-.43-1.6-1.6-1.53-1.56.08-3.12,0-4.68,0-1.13,0-1.7-.37-1.66-1.62.09-3.24-.32-2.73,2.68-2.76,2.58,0,5.17-.05,7.75,0,1.22,0,1.68-.43,1.59-1.63-.07-.92,0-1.85,0-2.77h0c1.06,0,2.13,0,3.2,0,.87,0,1.21.29,1.2,1.18,0,1.94,0,3.88,0,5.82,0,1.11.28,1.54,1.47,1.51,3.1-.07,6.21,0,9.32,0C128.56,250.21,129.13,250.05,129.57,250.49Z" transform="translate(1.48)"/><path class="cls-72" d="M67.57,241.42c.6,2.69.18,5.42.27,8.12,0,.67-.42.94-1,.94a12.21,12.21,0,0,0-1.6,0c-1.3.16-1.77-.28-1.75-1.67.09-5,0-10,0-15l.21-.18c1.36-.05,2.73-.46,4,.22A12,12,0,0,1,67.57,241.42Z" transform="translate(1.48)"/><path class="cls-13" d="M67.57,241.42v-7.59l-.11-.15.11-.14c2.34,0,4.67,0,7,0,.88,0,1.21.31,1.19,1.19,0,2.34,0,4.67,0,7H69.25A3,3,0,0,1,67.57,241.42Z" transform="translate(1.48)"/><path class="cls-13" d="M121.31,212.78c-4,0-4,0-4-4,0-1.3-.56-2.95.24-3.81s2.58-.24,3.92-.34c.72-.06,1.46,0,2.18,0,1.32-.13,1.88.41,1.84,1.74,0,1.7,0,3.4,0,5.1,0,1-.41,1.41-1.4,1.37S122.24,212.78,121.31,212.78Z" transform="translate(1.48)"/><path class="cls-13" d="M71.63,258.38c-4.06,0-4.06,0-4.06-4s0-3.9,4-3.9c1,0,2,0,3.07,0s1.19.34,1.17,1.21c0,1.84,0,3.69,0,5.54,0,.92-.37,1.2-1.22,1.16S72.6,258.38,71.63,258.38Z" transform="translate(1.48)"/><path class="cls-13" d="M66.69,233.24V233c0-2.69,0-2.72-2.65-2.91-1.2-.09-1.41-.88-1.43-1.81,0-1.7,0-3.41,0-5.11,0-.92-.26-1.33-1.24-1.29-1.46.06-2.92,0-4.38,0-1.11,0-1.45.46-1.42,1.5,0,1.55,0,3.11,0,4.67,0,2,0,2.07-2,2-1.22,0-1.85.15-1.81,1.63,0,1.31.42,1.68,1.68,1.63,2.16-.08,2.17,0,2.17,2.16v13.73c0,1.87,0,1.9-1.85,1.91h-.44c-2.81,0-3.16-.34-3.27-3.19a2.79,2.79,0,0,0-.14-1c-.23-.55-.77-.5-1.26-.46-.71.07-.64.63-.64,1.1,0,2.83,0,5.65,0,8.47a.55.55,0,0,1-.88,0c0-2.83,0-5.65,0-8.48,0-1.06.28-1.56,1.4-1.42a7.17,7.17,0,0,0,1.31,0c.81-.06,1.18.29,1.11,1.11,0,.34,0,.68,0,1,0,2.26,0,2.26,2.24,2.26s2.14,0,2.14-2.07c0-4.43,0-8.86,0-13.29,0-1.06-.25-1.61-1.46-1.62-2.94,0-2.94-.08-2.94-3v-.73h.15c4.24,0,4.24,0,4.24-4.31,0-3.87,0-3.87,3.86-3.87h.29c1.12,0,2.43.3,3.29-.18,1-.58.33-2,.44-3.09.08-.79.43-1.13,1.2-1.12,1.07,0,2.13,0,3.2,0,0,1.07,0,2.14,0,3.21,0,.88-.31,1.17-1.19,1.2-3.21.1-3.21.13-3.2,3.38,0,1.17,0,2.33,0,3.5,0,.94.4,1.26,1.32,1.3,3.08.13,3.07.15,3.07,3.2v.29A.61.61,0,0,1,66.69,233.24Z" transform="translate(1.48)"/><path class="cls-13" d="M119.06,221.55c-1.66,0-3.31,0-5,0-.86,0-1.23-.26-1.21-1.17.07-3.95-.45-3.16,3.08-3.22,2.57,0,5.15.06,7.73,0,1.38,0,1.79.53,1.79,1.8,0,2.61,0,2.61-2.49,2.61Z" transform="translate(1.48)"/><path class="cls-17" d="M88.3,264.5c-1.36,0-2.72.1-4.07,0-.83-.07-2.1.72-2.36-1,0-.28-1.27,0-1.15-1-.16-.58-1.49,0-1.11-1s-1-2.55.9-3.09c-.11-1.14,1.46-.91,1.56-1.91,0-.49.47-.39.79-.39h4.66c.46,0,.88,0,.85.66s-.39.59-.79.59h-2a3.26,3.26,0,0,0-3.3,4.42c.28.92,2.2,1.68,3.4,1.34a.68.68,0,0,1,0-.87c0-.64.35-1.39-.79-1.42-.48,0-.37-.48-.36-.8s.35-.37.63-.41c3-.45,3.26-.22,3.21,2.78Z" transform="translate(1.48)"/><path class="cls-18" d="M63.18,264.57c-1.51.59-2.14-.94-3.22-1.39-.63-.26.4-3.14.61-3.67.55-1.41,1.63-1.07,2.61-1.17s1.75,0,2.62.05c.61.05,1.6-.44,1.51.88,0,.08.19.26.28.25,1.59-.12.94,1.07,1.06,1.8s-.3.89-1,.87c-1.46,0-2.92,0-4.38,0-.36,0-.82-.11-.81.52s.4.57.81.57h3.21c.45,0,.89,0,.9.63s-.46.61-.89.62Z" transform="translate(1.48)"/><path class="cls-13" d="M109.1,233.53c-2.34,0-4.67,0-7,0-.87,0-1.28-.29-1.2-1.18a5.09,5.09,0,0,0,0-1.17c-.15-1.15.32-1.54,1.48-1.49,1.79.09,3.6.07,5.39,0,1,0,1.42.32,1.34,1.34-.07.82,0,1.65,0,2.48Z" transform="translate(1.48)"/><path class="cls-13" d="M112.9,241.72c-3.8,0-3.81,0-3.8-3.81v-4.38h0c3.8,0,3.8,0,3.8,3.8v4.38Z" transform="translate(1.48)"/><path class="cls-73" d="M137.76,221.55h.29a3.05,3.05,0,0,1,.56,2.32c0,1.2,0,2.41,0,3.61,0,1,.35,1.43,1.36,1.4a2.71,2.71,0,0,1,2.17.56c-.89.58-1.89.26-2.83.27S138,230,138,231c0,2.26-.07,2.24,2.15,2.27.66,0,1.37-.23,2,.29a2.77,2.77,0,0,1-2.2.54c-.9,0-1.35.33-1.34,1.28,0,1.42,0,2.83,0,4.24,0,1,.44,1.28,1.34,1.28a2.77,2.77,0,0,1,2.2.55c-.94.59-2,.23-3,.27-.8,0-1.19.3-1.11,1.12V243c0,3.48-.27,2.78,2.71,2.85.48,0,1-.12,1.38.3a3,3,0,0,1-2.32.54c-.86,0-1.21.37-1.22,1.22a3,3,0,0,1-.55,2.33v.29c-.1.15-.2.15-.29,0,0-1,0-2,0-3.05s-.28-1.39-1.32-1.35c-1.83.06-3.68,0-5.51,0-1.12,0-1.51-.38-1.37-1.43s-.3-2,.29-3a2.79,2.79,0,0,1,.55,2.19c0,.89.3,1.36,1.26,1.35,1.46,0,2.91,0,4.37,0,1,0,1.16-.62,1.16-1.43s-.09-1.54-1.22-1.54c-1.4,0-2.81,0-4.22,0a2.46,2.46,0,0,1-1.9-.54c1.74-.63,3.55-.22,5.32-.28,2.91-.09,2.55.34,2.57-2.57,0-1.36,0-2.72,0-4.08,0-.95-.31-1.3-1.26-1.27-1.85,0-3.7,0-5.55,0-1.09,0-1.54-.34-1.39-1.42.11-.79-.27-1.65.31-2.37a2.66,2.66,0,0,1,.54,1.88c0,.73.4,1,1.1,1,1.51,0,3,0,4.52,0,.77,0,1.14-.31,1.15-1.13s-.34-1.24-1.2-1.25c-1.41,0-2.82,0-4.23,0a2.43,2.43,0,0,1-1.88-.51c1.17-.65,2.45-.18,3.68-.31s3,.59,3.91-.33.22-2.6.27-3.94S137.76,222.76,137.76,221.55Z" transform="translate(1.48)"/><path class="cls-13" d="M92.14,217.17v-4.39h0c1.12,0,2.24,0,3.36,0,.74,0,1,.29,1,1,.24,3.36.26,3.35-3.08,3.35H92.14Z" transform="translate(1.48)"/><path class="cls-13" d="M129.57,215c0,2.2,0,2.2-2,2.2s-2.06,0-2.06-2.33c0-2.05,0-2.05,2.19-2.05C129.57,212.78,129.57,212.78,129.57,215Z" transform="translate(1.48)"/><path class="cls-13" d="M76.05,245.81c-.61-1.33-.15-2.73-.29-4.09h0c1.11,0,2.22,0,3.33,0,.72,0,1,.25,1.07,1,.25,3.28-.6,4-3.88,3.26-.09,0-.15-.11-.23-.17a2.57,2.57,0,0,1,2-.52c1.1,0,1.21-.7,1.23-1.56s-.41-1.19-1.25-1.2-1.53.13-1.52,1.23A2.49,2.49,0,0,1,76.05,245.81Z" transform="translate(1.48)"/><path class="cls-11" d="M93.69,260.69c-.29,0-.58,0-.87,0s-.53-.05-.56-.35.3-.44.59-.45c.48,0,1,0,1.45,0s.92-.13.9.43-.58.35-.93.39a5.61,5.61,0,0,1-.58,0Z" transform="translate(1.48)"/><path class="cls-13" d="M137.76,250.49h.29q0,3.24,0,6.48c0,.47.13,1-.25,1.38Z" transform="translate(1.48)"/><path class="cls-74" d="M85.67,262.18l0,.87c-.61-.17-1.78.34-1.77-.37C83.89,261.73,85.05,262.38,85.67,262.18Z" transform="translate(1.48)"/><path class="cls-13" d="M66.69,233.24h.88v.3h0c-1.34.41-2.75-.11-4.1.3h-.29c.3-1,1.09-.51,1.68-.57A15.94,15.94,0,0,1,66.69,233.24Z" transform="translate(1.48)"/><path class="cls-22" d="M390.08,260.72c-1,0-2,0-3.06,0-.47,0-.72-.12-.7-.65s.27-.57.65-.57h6.27c.39,0,.61.14.63.59s-.3.63-.73.63Z" transform="translate(1.48)"/><path class="cls-13" d="M50.9,229.73c-3.8,0-3.8,0-3.8-3.8,0-1.07,0-2.14,0-3.2,0-.89.3-1.26,1.19-1.19a6.37,6.37,0,0,0,1.31,0c1-.11,1.35.34,1.33,1.34-.06,2.29,0,4.57,0,6.85Z" transform="translate(1.48)"/><path class="cls-18" d="M47.1,256H48l.86.06c.36.89.2,1.41-.9,1.31s-1.16.43-1,1.35c.2,1.17.45,2.4-.39,3.48-.19,2.36-.19,2.36-2.62,2.31,0-2-.11-4-.05-5.93,0-1-.28-1.39-1.3-1.3-.44,0-1.17.32-1.21-.56s.77-.63,1.25-.65C44.11,256,45.61,256,47.1,256Z" transform="translate(1.48)"/><path class="cls-8" d="M75.76,204.59c0,2.23-.07,4.46,0,6.68,0,1.24-.41,1.59-1.58,1.53-1.65-.08-3.29,0-4.94,0a3.18,3.18,0,0,0-1.69.29c.17-.77.8-.57,1.3-.58,1.65,0,3.3,0,4.95,0,1,0,1.43-.25,1.37-1.31-.07-1.35,0-2.72,0-4.08,0-1.17-.54-1.65-1.69-1.65-2.92,0-5.83,0-8.75,0-1.08,0-1.69-.29-1.56-1.48h.29c.08.07.11.13.08.2s0,.09-.07.09c.44.44,1,.29,1.51.29Z" transform="translate(1.48)"/><path class="cls-8" d="M55.29,201.67c.16-.76.78-.57,1.28-.58,1.72,0,3.46.06,5.18,0,1.17-.06,1.59.38,1.43,1.49a3.34,3.34,0,0,0-2.64-.9C58.79,201.73,57,201.67,55.29,201.67Z" transform="translate(1.48)"/><path class="cls-36" d="M120.77,273.16V274c0,.34,0,.73-.48.71-.35,0-.88.17-.88-.43s-.23-.74-.78-.74-.81.12-.95.76-1.11.57-1.19.22a4.35,4.35,0,0,1,0-2.69,2.3,2.3,0,0,1,1.84-1.51C119.7,270.26,120.77,271.44,120.77,273.16Z" transform="translate(1.48)"/><path class="cls-75" d="M67,272.63c0-2.38,0-2.34,2.9-2.3a1.51,1.51,0,0,1,1.54,1,1.71,1.71,0,0,1-.47,2c-.46.41-.89.26-1.33.31s-1.32-.26-1.29.83c0,.47-.5.32-.81.34-.47,0-.55-.29-.54-.66Z" transform="translate(1.48)"/><path class="cls-34" d="M175,274.6a12.59,12.59,0,0,1-4,.1c-.89-.1-.72-.94-.24-1.36s.81-1.29,1.76-1.27c.31,0,.63-.46,1-.75-1.06-1-2,.74-2.94.09.64-1,2.84-1.48,3.69-.89,1,.71.63,2-.85,2.74-.29.14-1-.17-.84.46s.73.29,1.12.36S174.53,273.9,175,274.6Z" transform="translate(1.48)"/><path class="cls-76" d="M126.78,275.34c.64-1,1.58-.38,2.38-.93a1.6,1.6,0,0,0-1.35-.22,1.44,1.44,0,0,1-1.62-1.46c-.09-.87.75-1.28,1.67-1.2.19,0,.39,0,.58,0,2.28,0,2.26,0,2.18,2.26a1.41,1.41,0,0,1-1.58,1.55C128.29,275.35,127.53,275.34,126.78,275.34Z" transform="translate(1.48)"/><path class="cls-77" d="M96.57,272.48a8.68,8.68,0,0,1,0-1c.06-.41-.27-1,.54-1.1.61-.05.81.15.89.79s.79.34,1.2.36a2,2,0,0,1,1.86,2.87c-.18.45-.51.35-.83.37s-.56-.1-.57-.48,0-.87,0-1.3c0-.71-.39-.76-.93-.77s-.69.22-.8.75.65,1.81-.68,1.76-.42-1.29-.68-1.94A.94.94,0,0,1,96.57,272.48Z" transform="translate(1.48)"/><path class="cls-78" d="M185.64,274.47c1.89-.77,1.89-.77,2.48-1.5-.69-.56-1.65.26-2.39-.58s-.81-1.07,0-1.65a3.25,3.25,0,0,1,3.24-.14c1,.45.82,1.67.62,2.56C189.34,274.44,187.61,275,185.64,274.47Z" transform="translate(1.48)"/><path class="cls-24" d="M110.93,272.52c0,2.4,0,2.37-2.93,2.26a1.47,1.47,0,0,1-1.45-1.06,1.69,1.69,0,0,1,.59-2,1.93,1.93,0,0,1,1.13-.16c.59,0,1.3.2,1.31-.84,0-.46.52-.31.83-.33.5,0,.52.33.52.69Z" transform="translate(1.48)"/><path class="cls-79" d="M159.76,270.58c-.94.81-1.93.14-2.9.85a14.76,14.76,0,0,0,1.57.09c1.1,0,1.73.38,1.72,1.58s-.6,1.7-1.77,1.66c-1,0-2.12.25-2.7-1a.87.87,0,0,1,1.28,0,1.15,1.15,0,0,0,1.55.23c.45-.26.3-.92.16-1.35-.24-.71-.92-.32-1.4-.37-.83-.07-1.87.26-1.64-1.23.06-.4.17-.65.6-.62A13.72,13.72,0,0,1,159.76,270.58Z" transform="translate(1.48)"/><path class="cls-24" d="M77,272.23c0-.39,0-.77,0-1.16s0-.71.48-.69.89-.17.88.43c0,1,.71.72,1.2.71,1.2,0,1.91.37,1.88,1.69s-.75,1.56-1.86,1.56C77,274.75,77,274.73,77,272.23Z" transform="translate(1.48)"/><path class="cls-80" d="M103,273.59c.72.75,1.7.16,2.56.9a5.29,5.29,0,0,1-3.07.19,1.37,1.37,0,0,1-1-1.49c0-1,.41-1.62,1.35-1.63,1.12,0,2.51-.53,3.14.95.24.56.1,1.16-.81,1.09C104.48,273.54,103.76,273.59,103,273.59Z" transform="translate(1.48)"/><path class="cls-81" d="M74.76,274.76c-2.46,0-3.05-.62-2.77-2.59.07-.52.27-.64.73-.65s.71.18.68.68,0,.78,0,1.17c0,.61.3.73.82.71s.89,0,.87-.66c0-.44,0-.88,0-1.31s.22-.59.63-.58.79,0,.79.58a12.6,12.6,0,0,1,0,2C76.25,275.44,75.14,274.3,74.76,274.76Z" transform="translate(1.48)"/><path class="cls-81" d="M133.59,274.76c-2.3,0-2.63-.34-2.53-2.36,0-.57.1-.9.79-.88s.61.46.62.89c0,.24,0,.49,0,.73-.07.65.13,1,.87.95s.85-.43.82-1c0-.34,0-.68,0-1,0-.49.32-.52.68-.52s.71,0,.72.49c0,.25,0,.49,0,.73C135.55,275.21,135.8,274.7,133.59,274.76Z" transform="translate(1.48)"/><path class="cls-77" d="M123.7,274.76c-2.19,0-2.64-.45-2.5-2.4,0-.48.07-.82.7-.84s.76.39.74.92c0,.34,0,.68,0,1,0,.67.47.6.91.62s.78,0,.77-.6,0-.88,0-1.31.25-.64.72-.65.72.19.68.69c0,.14,0,.29,0,.43C125.69,275.26,126,274.69,123.7,274.76Z" transform="translate(1.48)"/><path class="cls-82" d="M95.56,271.53c-.55.89-1.2.59-1.8.68-.24,0-.55,0-.58.3s.33.38.61.39.87,0,1.31,0,1,.6,1,.88a1,1,0,0,1-1,.93,13.77,13.77,0,0,1-3.46-.17c1-1,2.23-.08,3.45-.91a11.44,11.44,0,0,0-1.74-.07c-1,.13-1.07-.74-1.54-1.18.41-.41.7-1,1.45-.89S94.77,271.53,95.56,271.53Z" transform="translate(1.48)"/><path class="cls-77" d="M155.29,274.46a9.13,9.13,0,0,1-4.08.13c1.7-.86,1.84-1.83.94-3.17-.28-.42.43-.86.86-1s1-.26,1,.55c0,.48,0,1,0,1.45C154,273.36,154,274.23,155.29,274.46Z" transform="translate(1.48)"/><path class="cls-77" d="M184.83,274.51a9.43,9.43,0,0,1-4.2,0c2-.71,1.9-1.72,1.1-3-.42-.67.43-.85.74-1.07s1-.38,1.1.4a8.18,8.18,0,0,1,0,1.31C183.53,273.15,183.39,274.16,184.83,274.51Z" transform="translate(1.48)"/><path class="cls-83" d="M83,270.52c2.08-.33,2.07-.33,2.09,1.54,0,.94-.42,2.12,1.24,2.38a10.82,10.82,0,0,1-4,.24C83.88,273.41,84.1,271.93,83,270.52Z" transform="translate(1.48)"/><path class="cls-84" d="M135.88,274.5c.57-.57,1.13-.36,1.61-.42s1,.15,1.52-.28a2,2,0,0,0-1.49-.2c-.93.15-.94-.79-1.46-1.11.38-.43.64-1,1.37-1s1.6,0,2.66,0c-.66,1-1.34.57-1.89.68-.27.05-.67-.07-.71.31s.35.38.62.38c.91,0,2.25-.11,2.19,1s-1.44.91-2.37.89A4,4,0,0,1,135.88,274.5Z" transform="translate(1.48)"/><path class="cls-85" d="M145.41,271.93c-1.22.13-1.37.82-1.28,1.74.05.49.2,1.1-.7,1.1s-.74-.66-.66-1.11c.18-1-.29-1.54-1.58-1.74.85-.47,1.76-.33,1.7-1.38,0-.24,1.15-.34,1.15.09C144.05,271.62,144.87,271.45,145.41,271.93Z" transform="translate(1.48)"/><path class="cls-86" d="M178.69,274.16c0,.66-.48.53-.9.61-1.4.27-1.72-1-2.28-1.72s0-1.42.59-2c.27-.23.56-.45.84-.68a1.35,1.35,0,0,1,.36.52c.21.67-.05,1.45.45,2.07.5-.39-.1-1.49,1-1.45C179.47,272.43,179.13,273.3,178.69,274.16Z" transform="translate(1.48)"/><path class="cls-87" d="M88,271.67c1.45-.41,2.35-.17,2,1.47-.21,1.05.82.81,1.41,1.44H87.3C88.92,273.58,89,273.09,88,271.67Z" transform="translate(1.48)"/><path class="cls-88" d="M177,271l0-.58a2.23,2.23,0,0,1,2.69,1.21c.67,1,.05,1.94-.94,2.54-.11-.87.3-1.81-.31-2.62C177.67,272,177.38,271.31,177,271Z" transform="translate(1.48)"/><path class="cls-89" d="M161,275.05c1-.31.55-1.84,1.92-1.46a.51.51,0,0,1,.32.79C162.82,275.15,162.25,275.63,161,275.05Z" transform="translate(1.48)"/><path class="cls-90" d="M89.3,270.35c.26,0,.64-.08.69.3s-.34.38-.61.39-.63.06-.68-.31S89,270.4,89.3,270.35Z" transform="translate(1.48)"/><path class="cls-13" d="M142.14,241.43c-1,0-2,0-3.06,0-.74,0-1.05-.29-1-1,0-2,0-3.89,0-5.83,0-.75.29-1.06,1-1,1,0,2,0,3.06,0Z" transform="translate(1.48)"/><path class="cls-13" d="M142.14,229.44c-1,0-1.95,0-2.92,0s-1.2-.31-1.18-1.19c0-2.24,0-4.47,0-6.71h4.09Z" transform="translate(1.48)"/><path class="cls-13" d="M138.05,250.2c0-1,0-2,0-3.06,0-.75.29-1.06,1-1,1,0,2,0,3.06,0v4.38C140.81,249.91,139.41,250.32,138.05,250.2Z" transform="translate(1.48)"/><path class="cls-13" d="M142.43,258.33h-.29v-7.84c.59,1.08.23,2.25.28,3.38C142.48,255.35,142.43,256.84,142.43,258.33Z" transform="translate(1.48)"/><path class="cls-3" d="M302.33,264.23c-1.09.48-2.23.09-3.34.2a3.68,3.68,0,0,0-1.54.2c.81-.81,1.82-.28,2.73-.39A17.12,17.12,0,0,1,302.33,264.23Z" transform="translate(1.48)"/><path class="cls-8" d="M46.54,262.19c0-1.21,0-2.43-.09-3.64-.09-1,.31-1.42,1.31-1.27s1.37-.26,1.08-1.23c.6.91.45,1.44-.74,1.48-.35,0-.92-.12-.86.46s.6.34,1,.39c1.08.14,1.71-.18,1.52-1.42a.85.85,0,0,1,.32-.91,2.7,2.7,0,0,1,.55,2.05c0,1.51,0,3,0,4.53,0,.53,0,1.2.74,1.17s.69-.69.72-1.22,0-1.27.07-1.89c.18-1.27.76-1.69,2.28-1.68s2.16.42,2.24,1.7.42,2.63-.48,3.8c-.63-.82-.22-1.77-.31-2.66a17.39,17.39,0,0,1,0-1.77h-.56c0,1.5,0,3,0,4.51,0,2,0,2-1.92,2H47.1c0-1,0-2,0-3C47.1,263,47.1,262.49,46.54,262.19Z" transform="translate(1.48)"/><path class="cls-91" d="M114.14,257.32c-.45-.19-1.28.37-1.31-.64s.81-.62,1.27-.61,1.3-.46,1.33.56S114.62,257.17,114.14,257.32Z" transform="translate(1.48)"/><path class="cls-8" d="M92.14,200.8c-2.23,0-4.46,0-6.68,0-1.14,0-1.55.4-1.53,1.53,0,2.46.34,2.28-2.36,2.28H75.76c0-3.8,0-3.8-3.81-3.8-2.39,0-4.77,0-7.16,0-1,0-1.36-.33-1.33-1.35.07-3.25-.3-2.74,2.67-2.75,8.13,0,16.26,0,24.38,0,1.29,0,1.79.35,1.64,1.65A22.78,22.78,0,0,0,92.14,200.8Z" transform="translate(1.48)"/><path class="cls-13" d="M63.48,204.3a2.71,2.71,0,0,1,0-.29v-2a2,2,0,0,1,1.63-.43H73c2.22,0,2.61.58,1.88,2.77Z" transform="translate(1.48)"/><path class="cls-13" d="M96.23,198.73c0,1.78,0,1.78-2,1.77-1.78,0-1.78,0-1.77-2,0-1.78,0-1.78,2-1.78C96.23,196.71,96.23,196.71,96.23,198.73Z" transform="translate(1.48)"/><path class="cls-13" d="M74.88,204.3a6.3,6.3,0,0,1,0-.87c.15-1.16-.33-1.51-1.49-1.49-3.3.07-6.61,0-9.92,0,0-.72.38-.88,1-.88,3.14,0,6.29,0,9.44,0,.7,0,1.38.22,1.44.92S76,203.75,74.88,204.3Z" transform="translate(1.48)"/><path class="cls-92" d="M300.79,259.63c.62.16,1.73-.53,1.71,1.07,0,1.11-.28,1.61-1.44,1.42a3.1,3.1,0,0,0-.86,0c-1,.16-1.29-.29-1.29-1.28s.26-1.36,1.22-1.22A4.62,4.62,0,0,0,300.79,259.63Z" transform="translate(1.48)"/><path class="cls-93" d="M93.88,262.09c.54.33,1.62-.41,1.63.62s-1.06.56-1.6.53-1.76.6-1.76-.53S93.33,262.49,93.88,262.09Z" transform="translate(1.48)"/><path class="cls-94" d="M418.93,263.31h-1c-.4,0-.63-.13-.65-.58s.23-.57.62-.57c.68,0,1.36,0,2,0,.35,0,.83-.16.88.47s-.38.68-.85.67Z" transform="translate(1.48)"/><path class="cls-95" d="M143,263.29h-.86c-.39,0-.79,0-.81-.55s.36-.58.76-.58c.62,0,1.25,0,1.87,0,.4,0,.92-.14.87.59,0,.56-.43.53-.82.54Z" transform="translate(1.48)"/><path class="cls-96" d="M379.72,262.08c.53.36,1.59-.42,1.62.6,0,1.2-1.11.57-1.67.58s-1.74.57-1.75-.5C377.91,261.48,379.16,262.52,379.72,262.08Z" transform="translate(1.48)"/><path class="cls-97" d="M399.37,262.09c.5.37,1.57-.46,1.59.62s-1,.58-1.58.55-1.85.61-1.82-.59C397.59,261.66,398.76,262.42,399.37,262.09Z" transform="translate(1.48)"/><path class="cls-94" d="M330.3,263.31h-1c-.48,0-.71-.2-.68-.69s.41-.45.74-.45c.62,0,1.25,0,1.88,0,.41,0,.93-.13.9.58s-.54.54-.95.56Z" transform="translate(1.48)"/><path class="cls-98" d="M359.87,261c-.39,0-.78,0-1.17,0s-.58-.24-.59-.64.1-.76.64-.74,1.36,0,2,0c.46,0,.88,0,.9.64s-.41.77-.95.75h-.87Z" transform="translate(1.48)"/><path class="cls-99" d="M202.39,259.66c1.93-.54,1.37.91,1.54,1.95.3,1.77-.75,1.58-1.94,1.71-2,.23-1.46-1.11-1.61-2.18C200.13,259.38,201.21,259.54,202.39,259.66Z" transform="translate(1.48)"/><path class="cls-99" d="M171,261.36c-.55-1.79.55-1.65,1.78-1.79,1.83-.2,1.54.86,1.68,2,.21,1.67-.62,1.68-1.91,1.76C170.82,263.42,170.61,262.65,171,261.36Z" transform="translate(1.48)"/><path class="cls-100" d="M325.73,314.68c-.23-.92.24-1,1.08-1.09,1.16-.09,1,.55,1.08,1.3.08.91-.25,1.08-1.12,1.12C325.64,316.07,325.61,315.51,325.73,314.68Z" transform="translate(1.48)"/><path class="cls-101" d="M276,314.2c-1.35.24-1-.71-1-1.36-.16-1.08.54-.93,1.24-1,1.24-.11.9.74,1,1.41C277.31,314.29,276.71,314.33,276,314.2Z" transform="translate(1.48)"/><path class="cls-102" d="M340.55,314.82c.13.78,0,1.2-1,1.2s-1.17-.33-1.18-1.23.26-1.2,1.21-1.21S340.65,314.06,340.55,314.82Z" transform="translate(1.48)"/><path class="cls-100" d="M289.82,313.89a2.78,2.78,0,0,1-2.3.17A2.12,2.12,0,0,1,289.82,313.89Z" transform="translate(1.48)"/><path class="cls-100" d="M446.22,314.73c-.2-.88.15-1.1,1-1.15,1.09-.05,1.09.47,1.12,1.28s-.16,1.14-1.09,1.15S446.05,315.6,446.22,314.73Z" transform="translate(1.48)"/><path class="cls-100" d="M382.81,313.91a2.41,2.41,0,0,1,2.08-.05A1.86,1.86,0,0,1,382.81,313.91Z" transform="translate(1.48)"/><path class="cls-103" d="M433.48,313.92a2.56,2.56,0,0,1,2.33-.06A2.18,2.18,0,0,1,433.48,313.92Z" transform="translate(1.48)"/><path class="cls-103" d="M319.42,313.94a2.59,2.59,0,0,1,2.32-.12A2.12,2.12,0,0,1,319.42,313.94Z" transform="translate(1.48)"/><path class="cls-103" d="M302.5,313.87a2.37,2.37,0,0,1-2.31.11A2.45,2.45,0,0,1,302.5,313.87Z" transform="translate(1.48)"/><path class="cls-100" d="M403.88,314.84c.25,1-.2,1.11-1.05,1.17-1.15.08-1-.56-1.07-1.3-.07-.9.24-1.1,1.11-1.12C404,313.55,404.07,314.06,403.88,314.84Z" transform="translate(1.48)"/><path class="cls-100" d="M422.92,314.87c.15.79-.07,1.12-1,1.14s-1.11-.4-1.14-1.25.31-1.14,1.21-1.17C423.05,313.54,423,314.13,422.92,314.87Z" transform="translate(1.48)"/><path class="cls-100" d="M308,272.35c.14.45.86.5.75,1,0,.07-.38.14-.53.08C307.58,273.24,307.93,272.77,308,272.35Z" transform="translate(1.48)"/><path class="cls-11" d="M293.94,271.63c.3,0,.72-.06.7.31,0,.58-.57.33-.9.37s-.69.08-.67-.31C293.1,271.41,293.65,271.72,293.94,271.63Z" transform="translate(1.48)"/><path class="cls-100" d="M348.9,272.5c.06.59,0,1-.77,1s-.94-.21-.91-.91,0-1,.82-1S349,271.81,348.9,272.5Z" transform="translate(1.48)"/><path class="cls-100" d="M362.8,272.32c-.29-.06-.77.14-.73-.4,0-.38.43-.29.7-.28s.79-.13.8.32S363.1,272.28,362.8,272.32Z" transform="translate(1.48)"/><path class="cls-100" d="M334.36,273.18a2.6,2.6,0,0,1-2.16.11A2.71,2.71,0,0,1,334.36,273.18Z" transform="translate(1.48)"/><path class="cls-104" d="M134.93,359.83c-.62-.15-1.74.52-1.69-1.09,0-1,.31-1.42,1.32-1.27a3.7,3.7,0,0,0,.88,0c.91-.07,1.53,0,1.51,1.24s-.68,1.16-1.48,1.12Z" transform="translate(1.48)"/><path class="cls-104" d="M135,364c-.5-.27-1.63.62-1.71-.89,0-1,.19-1.57,1.33-1.39a4.86,4.86,0,0,0,1,0c.8-.05,1.36,0,1.34,1.11s-.39,1.28-1.28,1.16C135.47,364,135.28,364,135,364Z" transform="translate(1.48)"/><path class="cls-6" d="M205.63,359.13c0,2.43.25,2.16-1.81,2.15s-1.66.34-1.86-2c-.14-1.71.62-1.77,2-1.83C205.59,357.34,205.89,358,205.63,359.13Z" transform="translate(1.48)"/><path class="cls-105" d="M157.94,362.74c-.48-.28-1.54.6-1.72-.7-.15-1.09,0-2,1.45-1.7a2.54,2.54,0,0,0,.87,0c1-.11,1.37.15,1.39,1.24s-.57,1.25-1.44,1.16Z" transform="translate(1.48)"/><path class="cls-106" d="M249.7,361.35c-.53-.31-1.61.4-1.61-.57,0-.81,1-.41,1.57-.39s1.81-.46,1.81.42S250.3,361,249.7,361.35Z" transform="translate(1.48)"/><path class="cls-106" d="M146.57,360.25c.61.36,1.69-.36,1.69.62,0,.83-1,.4-1.56.38s-1.81.46-1.82-.4S146.07,360.7,146.57,360.25Z" transform="translate(1.48)"/><path class="cls-107" d="M226.84,360.35a2.06,2.06,0,0,1,.43,0c.45.12,1.26-.33,1.26.47s-.8.41-1.26.46a10.41,10.41,0,0,1-1.58,0c-.33,0-.73,0-.73-.46s.39-.46.73-.48S226.45,360.35,226.84,360.35Z" transform="translate(1.48)"/><path class="cls-106" d="M284.3,364.07c-.59-.21-1.66.26-1.64-.41,0-.89,1.09-.37,1.67-.41s1.63-.33,1.61.32C285.9,364.5,284.82,363.76,284.3,364.07Z" transform="translate(1.48)"/><path class="cls-6" d="M316.93,361.86c-.5-1.67.75-1.41,2-1.55,1.77-.21,1.57.79,1.7,2,.19,1.76-.69,1.85-2,1.77C316.93,364,316.93,364,316.93,361.86Z" transform="translate(1.48)"/><path class="cls-7" d="M241.66,260.93h-1c-.44,0-.74-.08-.76-.62s.37-.69.85-.68,1.06,0,1.59,0,1-.17,1,.61-.51.67-1,.68Z" transform="translate(1.48)"/><path class="cls-108" d="M251.36,262.09c.59.35,1.76-.47,1.77.62s-1.15.5-1.75.53-1.62.53-1.62-.53S250.85,262.46,251.36,262.09Z" transform="translate(1.48)"/><path class="cls-109" d="M219.18,272.48c-.1-.64.16-.88.86-.91.92,0,.82.52.85,1.11s-.31.85-.94.86C219.13,273.56,219.15,273.06,219.18,272.48Z" transform="translate(1.48)"/><path class="cls-7" d="M259.47,272.32c-.3,0-.79.11-.79-.35s.49-.33.8-.33.78-.14.78.34S259.77,272.27,259.47,272.32Z" transform="translate(1.48)"/><path class="cls-7" d="M255.25,273.18c-.48.45-1,.27-1.5.11C254.21,272.87,254.73,273,255.25,273.18Z" transform="translate(1.48)"/><path class="cls-7" d="M280.23,273.14a2,2,0,0,1-2.09.06A3.35,3.35,0,0,1,280.23,273.14Z" transform="translate(1.48)"/><path class="cls-17" d="M56.18,264.51c0-1.25-.11-2.51-.06-3.77,0-.91-.27-1.14-1.16-1.13-2.35,0-2.36,0-2.36,2.4a5,5,0,0,0,0,.87c.3,1.52-.48,1.78-1.78,1.67-.7-.06-.91-.27-.89-.94.05-2.52.07-5,.1-7.56a8.49,8.49,0,0,0,1,0c1.1-.15,1.81.08,1.56,1.41-.16.81.27,1,1,.94s1.65,0,2.47,0c.66,0,1.57-.32,1.51.91,2.28.76.76,2.64,1.14,4,.29,1-.21,1.42-1.23,1.27A11.45,11.45,0,0,0,56.18,264.51Z" transform="translate(1.48)"/><path class="cls-8" d="M63.47,233.83c1.33-.61,2.74-.15,4.1-.3v.3Z" transform="translate(1.48)"/><path class="cls-110" d="M64.22,259.61h1c.44,0,.74.09.76.62s-.27.75-.79.73-1.16,0-1.73,0-1,.06-1-.69.54-.64,1-.65Z" transform="translate(1.48)"/><path class="cls-13" d="M129.86,241.72c2.24,0,4.47,0,6.71,0,.87,0,1.21.28,1.2,1.18-.06,3.54.31,2.86-2.8,2.92-1.36,0-2.72,0-4.08,0-.74,0-1.06-.29-1-1,0-1,0-2,0-3.06Z" transform="translate(1.48)"/><path class="cls-13" d="M129.86,229.73c2.24,0,4.47.06,6.71,0,1.47-.05,1.18.93,1.18,1.76s.31,1.84-1.17,1.78c-1.75-.07-3.5-.08-5.25,0-1.16.06-1.61-.33-1.48-1.49A19.82,19.82,0,0,0,129.86,229.73Z" transform="translate(1.48)"/><path class="cls-13" d="M76.05,245.81v-1.9c0-1.9,0-1.9,1.92-1.9s1.89,0,1.88,1.94,0,1.85-1.9,1.86Z" transform="translate(1.48)"/><path class="cls-111" d="M119.39,272.15c.07.56-.15.81-.73.79s-.94,0-1-.71.6-.76.93-1.11C118.8,271.53,119.55,271.5,119.39,272.15Z" transform="translate(1.48)"/><path class="cls-10" d="M70.09,271.8c.07.7,0,1.15-.8,1.12-.58,0-.93-.13-.87-.8,0-.51-.15-1.12.73-1.08C69.76,271.06,70.28,271.08,70.09,271.8Z" transform="translate(1.48)"/><path class="cls-10" d="M128.28,272.23c.56-.05.93,0,.9.67s-.5.57-.93.59-.75-.05-.76-.61S127.84,272.15,128.28,272.23Z" transform="translate(1.48)"/><path class="cls-10" d="M187.4,272.12c-.36-.05-.83.14-.82-.5s.37-.58.77-.57.92-.08.89.6S187.72,272,187.4,272.12Z" transform="translate(1.48)"/><path class="cls-112" d="M107.86,273.15c-.07-.62.07-1,.84-1s.89.34.88,1-.1,1-.87,1S107.78,273.79,107.86,273.15Z" transform="translate(1.48)"/><path class="cls-112" d="M78.34,273.16c-.12-.75.16-1,.87-1s.82.44.83,1-.2.95-.91.95S78.25,273.71,78.34,273.16Z" transform="translate(1.48)"/><path class="cls-10" d="M103.81,272.91c-.32-.06-.79.14-.82-.35s.39-.36.66-.34.8-.17.87.28S104.09,272.84,103.81,272.91Z" transform="translate(1.48)"/><path class="cls-113" d="M177,271c.62-.18.87.58,1.42.55a5.6,5.6,0,0,1,.05,1.15c-.06.47.34,1.26-.39,1.32s-1-.73-1.18-1.31A5.56,5.56,0,0,1,177,271Z" transform="translate(1.48)"/></g><g class="cls-114"><rect class="cls-115" x="457.59" y="46.01" width="11.43" height="2.93" transform="translate(476.44 -418.11) rotate(85.58)"/><rect class="cls-115" x="464.18" y="46.53" width="9.52" height="2.93" transform="translate(482.16 -423.25) rotate(85.58)"/><rect class="cls-115" x="468.72" y="45.15" width="11.43" height="2.93" transform="matrix(0.08, 1, -1, 0.08, 485.85, -429.99)"/><circle class="cls-116" cx="469.05" cy="30.3" r="12.41"/><path class="cls-117" d="M468.58,43.3a13,13,0,1,1,12-14A13,13,0,0,1,468.58,43.3Zm-1.92-24.75a11.78,11.78,0,1,0,12.66,10.84A11.8,11.8,0,0,0,466.66,18.55Z" transform="translate(1.48)"/><path class="cls-117" d="M469.67,39.26l-.6-7.81.89-.07a4,4,0,0,1,4.49,3.44l0,.29a4,4,0,0,1-3.91,4.08Z" transform="translate(1.48)"/><rect class="cls-117" x="466.64" y="35.35" width="2.88" height="4.03" transform="matrix(1, -0.08, 0.08, 1, -0.01, 36.16)"/><rect class="cls-117" x="465.55" y="21.22" width="2.88" height="4.03" transform="translate(1.08 36.03) rotate(-4.42)"/><path class="cls-117" d="M465.14,29.25a4,4,0,0,1-4.45-3.47l0-.29a4,4,0,0,1,3.87-4.08l.86-.07.61,7.84Z" transform="translate(1.48)"/></g><g class="cls-118"><path class="cls-119" d="M8.74,434.57C4.84,446.62,0,488.86,0,488.86V0H500.51C500.51,543.68,94.14,170.56,8.74,434.57Z" transform="translate(1.48)"/></g><text class="cls-120" x="1.48"><tspan class="cls-121" x="96.93" y="444.78">T</tspan><tspan x="111.21" y="444.78">he </tspan><tspan class="cls-122" x="143.39" y="444.78">G</tspan><tspan x="160.75" y="444.78">amific</tspan><tspan class="cls-123" x="225.84" y="444.78">at</tspan><tspan x="237.95" y="444.78">ion </tspan><tspan class="cls-124" x="286.83" y="444.78">o</tspan><tspan class="cls-125" x="300.37" y="444.78">f</tspan><tspan x="308.59" y="444.78"> </tspan><tspan class="cls-126" x="314.29" y="444.78">L</tspan><tspan x="326.3" y="444.78">earning</tspan><tspan class="cls-127"><tspan class="cls-128" x="76.66" y="468.78">I</tspan><tspan class="cls-129" x="81.21" y="468.78">n</tspan><tspan class="cls-130" x="90.99" y="468.78">t</tspan><tspan x="97.13" y="468.78">e</tspan><tspan class="cls-131" x="106.51" y="468.78">r</tspan><tspan x="112.69" y="468.78">acti</tspan><tspan class="cls-132" x="140.37" y="468.78">v</tspan><tspan x="149.18" y="468.78">e</tspan><tspan class="cls-133" x="158.57" y="468.78"> </tspan><tspan class="cls-134" x="162.86" y="468.78">A</tspan><tspan x="174.6" y="468.78">rticul</tspan><tspan class="cls-135" x="213.8" y="468.78">a</tspan><tspan class="cls-136" x="222.42" y="468.78">t</tspan><tspan x="228.55" y="468.78">e 360 based </tspan><tspan class="cls-137" x="329.5" y="468.78">P</tspan><tspan class="cls-138" x="339.71" y="468.78">r</tspan><tspan x="345.57" y="468.78">ese</tspan><tspan class="cls-139" x="371.99" y="468.78">n</tspan><tspan x="381.77" y="468.78">ta</tspan><tspan class="cls-135" x="387.94" y="468.78">t</tspan><tspan x="396.55" y="468.78">ion</tspan></tspan></text></g></g></svg>