<svg xmlns="http://www.w3.org/2000/svg" xmlns:xlink="http://www.w3.org/1999/xlink" viewBox="0 0 500.51 500"><defs><style>.cls-1{fill:#212121;}.cls-2{clip-path:url(#clip-path);}.cls-3{fill:#12181b;}.cls-4{fill:#bfbfbf;}.cls-5{fill:#303233;}.cls-6{fill:#404040;}.cls-7{fill:#aaa;}.cls-8{fill:#e9e9e9;}.cls-9{fill:#0e2c3e;}.cls-10{fill:#0b212f;}.cls-11{fill:#da3828;}.cls-12{fill:#8f75b4;}.cls-13{fill:#faaa3c;}.cls-14{fill:#fbd242;}.cls-15{fill:#27b4ac;}.cls-16{fill:#63bc61;}.cls-17{fill:#d93828;}.cls-18{fill:#acacac;}.cls-19{fill:#abacac;}.cls-20{fill:#d73828;}.cls-21{fill:#a8a9aa;}.cls-22{fill:#aff9bf;}.cls-23{fill:#b1fbc0;}.cls-24{fill:#b0fac0;}.cls-25{fill:#b0f9bf;}.cls-26{fill:#b1fcc1;}.cls-27{fill:#b2fcc1;}.cls-28{fill:#b1fbc1;}.cls-29{fill:#b4ffc3;}.cls-30{fill:#b0fbc0;}.cls-31{fill:#b2fdc2;}.cls-32{fill:#b3fdc2;}.cls-33{fill:#b3fec2;}.cls-34{fill:#adadad;}.cls-35{fill:#8670ab;}.cls-36{fill:#a6eeb8;}.cls-37{fill:#aaf2bb;}.cls-38{fill:#acf4bc;}.cls-39{fill:#acf5bd;}.cls-40{fill:#adf6bd;}.cls-41{fill:#abf3bc;}.cls-42{fill:#abf4bc;}.cls-43{fill:#adf6be;}.cls-44{fill:#acf5bc;}.cls-45{fill:#a7efb9;}.cls-46{fill:#aaf3bb;}.cls-47{fill:#abf3bb;}.cls-48{fill:#aef8be;}.cls-49{fill:#8c73b1;}.cls-50{fill:#1a3a47;}.cls-51{fill:#193946;}.cls-52{fill:#0f2d3e;}.cls-53{fill:#0f2d3f;}.cls-54{fill:#102d3f;}.cls-55{fill:#112e40;}.cls-56{fill:#133042;}.cls-57{opacity:0.32;}.cls-58,.cls-59{fill:#89b8e3;}.cls-58{stroke:#00597f;stroke-miterlimit:10;}.cls-60{fill:#00597f;}.cls-61{opacity:0.67;}.cls-62{fill:url(#linear-gradient);}.cls-63{font-size:24px;fill:#e8eaf6;font-family:Lato-Heavy, Lato;font-weight:800;}.cls-64{letter-spacing:-0.08em;}.cls-65{letter-spacing:-0.02em;}.cls-66{letter-spacing:0em;}.cls-67{letter-spacing:-0.02em;}.cls-68{letter-spacing:0em;}.cls-69{letter-spacing:-0.01em;}.cls-70{letter-spacing:-0.01em;}.cls-71{font-size:18px;fill:#8cbbe1;font-family:Lato-Light, Lato;font-weight:300;}.cls-72{letter-spacing:-0.01em;}.cls-73{letter-spacing:-0.03em;}</style><clipPath id="clip-path"><rect class="cls-1" x="0.17" width="500" height="500"/></clipPath><linearGradient id="linear-gradient" x1="351.13" y1="345.31" x2="2.91" y2="-2.91" gradientUnits="userSpaceOnUse"><stop offset="0" stop-color="#212121"/><stop offset="1" stop-color="#00597f"/></linearGradient></defs><g id="Layer_2" data-name="Layer 2"><g id="Layer_1-2" data-name="Layer 1"><rect class="cls-1" x="0.17" width="500" height="500"/><g class="cls-2"><path class="cls-3" d="M499.55,110V390.21a.37.37,0,0,1-.45-.1,1.5,1.5,0,0,1-.22-.46,8.68,8.68,0,0,1-.2-2.83q0-47.74,0-95.48V114.64c0-.74,0-1.47,0-2.21a1.46,1.46,0,0,0-1.63-1.59c-.82,0-1.64,0-2.46,0H5.25a10.1,10.1,0,0,1-3.59-.25,1,1,0,0,1-.43-.28.31.31,0,0,1,.12-.44c.52,0,1,0,1.56,0h495A3.6,3.6,0,0,1,499.55,110Z"/><path class="cls-4" d="M499.55,110H2.93c-.56,0-1.12,0-1.68,0l-.16.06L.94,110a.24.24,0,0,1,0-.3H498.38C498.76,109.7,499.26,109.4,499.55,110Z"/><path class="cls-5" d="M499.28,390.21h.27c-.06.08.13.27-.13.26H1.23a.34.34,0,0,1,.13-.44,4.33,4.33,0,0,1,2.05-.2H496.66C497.54,389.83,498.49,389.54,499.28,390.21Z"/><path class="cls-6" d="M1.26,390.18l0,.28H1a2.77,2.77,0,0,1-.12-1.4q0-138.84,0-277.68c0-.45-.16-.95.15-1.38a.36.36,0,0,1,.25,0,1.41,1.41,0,0,0,0,.2,1.68,1.68,0,0,1,.35,1.22c0,.43,0,.86,0,1.29q0,137.49,0,275C1.61,388.51,1.87,389.41,1.26,390.18Z"/><path class="cls-7" d="M1,110c0,.52,0,1,0,1.56v278.9c-.08,0-.27.14-.26-.13s0-.69,0-1V110a.19.19,0,0,1,.24-.06Z"/><path class="cls-8" d="M1,109.89a1.05,1.05,0,0,1-.24.06c0-.23,0-.31.26-.26A.46.46,0,0,1,1,109.89Z"/><path class="cls-9" d="M1.5,110.22H496.75c.52,0,1,0,1.56,0s1,.26,1,.93c0,.34,0,.69,0,1V388.37c0,.51,0,1,0,1.55a3.48,3.48,0,0,1-1.78.15H7c-1.56,0-3.12,0-4.67,0-.74,0-1-.22-1-1a6.89,6.89,0,0,0,0-.91q0-138.17,0-276.34A3.34,3.34,0,0,1,1.5,110.22Z"/><path class="cls-10" d="M1.5,110.22c0,.6,0,1.21,0,1.82V387.58c0,.52,0,1,0,1.56a.73.73,0,0,0,.81.8H498l1.3,0c0,.1,0,.19,0,.29H4l-2.72,0c0-.56,0-1.13,0-1.69V111.89c0-.56,0-1.13,0-1.69Z"/><path class="cls-11" d="M439.26,250.08V235a9.36,9.36,0,0,1,.05-1.3,2.39,2.39,0,0,1,2.15-2.09,9,9,0,0,1,1,0h23.61a2.47,2.47,0,0,1,2.71,2.52c.08,2.21.1,4.42,0,6.62s-2,3.32-4.05,2.18c-3.76-2.13-7.5-4.3-11.25-6.45-.23-.13-.45-.28-.68-.39a1.68,1.68,0,0,0-2.62,1.53v.26c0,2,0,3.89,0,5.84,0,1.59.63,2.19,2.21,2.2,4.24,0,8.48,0,12.72,0h1a2.46,2.46,0,0,1,2.62,2.48c.08,2.29.07,4.58,0,6.87a2.53,2.53,0,0,1-4,2c-3.62-2.12-7.27-4.18-10.91-6.27-.41-.23-.81-.49-1.25-.69a1.63,1.63,0,0,0-2.43,1.4c-.05.52,0,1,0,1.56,0,1.56,0,3.11,0,4.67s.56,2.26,2.25,2.26c4.24,0,8.48,0,12.72,0h1a2.49,2.49,0,0,1,2.57,2.41,23.15,23.15,0,0,1,0,3.63,2.5,2.5,0,0,1-2.77,2.47c-2.63,0-5.27,0-7.91,0H443c-.35,0-.7,0-1,0a2.48,2.48,0,0,1-2.64-2.59c0-1.16,0-2.33,0-3.5Z"/><path class="cls-11" d="M222.58,250.6v15.56a7.45,7.45,0,0,1-.05,1.16A2.52,2.52,0,0,1,218,268.5a9,9,0,0,1-.62-1c-2.19-3.73-4.42-7.43-6.56-11.19a3.27,3.27,0,0,0-3.35-1.9c-1.55.09-3.12,0-4.67,0s-2.15.55-2.16,2.21c0,2.76,0,5.53,0,8.3,0,.34,0,.69,0,1a2.51,2.51,0,0,1-2.73,2.76c-1.73,0-3.46,0-5.19,0-2.1,0-3-.92-3-3,0-1.51,0-3,0-4.54q0-13,0-25.94a13.46,13.46,0,0,1,0-1.42,2.35,2.35,0,0,1,2.29-2.23c2.38-.06,4.76-.08,7.13,0a2.44,2.44,0,0,1,2.17,3.36,5.72,5.72,0,0,1-.58,1.16c-1.26,2.27-2.54,4.52-3.8,6.79-.95,1.71-.28,2.91,1.67,2.92,3.63,0,7.26,0,10.89,0,1.54,0,2.11-.57,2.13-2.13,0-2.68,0-5.36,0-8a17.88,17.88,0,0,1,.06-1.94,2.29,2.29,0,0,1,2.24-2.13q3.18-.09,6.35,0a2.37,2.37,0,0,1,2.29,2.1,7.91,7.91,0,0,1,0,1.29Q222.59,242.82,222.58,250.6Z"/><path class="cls-11" d="M334.7,246.78v11.55a11.23,11.23,0,0,0,0,1.16,1.66,1.66,0,0,0,2.34,1.45,3.78,3.78,0,0,0,.69-.36l10.68-6.13a4.37,4.37,0,0,0,.77-.49,1.57,1.57,0,0,0,.5-1.86,8.5,8.5,0,0,0-.55-1l-8.64-14.77c-.17-.3-.36-.59-.51-.91a2.54,2.54,0,0,1,2.25-3.78h.52c3,0,6.05,0,9.08,0,2.17,0,3.09.91,3.09,3.06,0,6.1,0,12.19,0,18.29a20.74,20.74,0,0,1-.19,2.84,16.06,16.06,0,0,1-31.94-2.36q0-9.34,0-18.68a6.6,6.6,0,0,1,0-.77,2.44,2.44,0,0,1,2.46-2.36q3.43-.07,6.87,0a2.47,2.47,0,0,1,2.52,2.45c0,.51,0,1,0,1.55Z"/><path class="cls-11" d="M71,250.11q0-7.52,0-15a9.41,9.41,0,0,1,0-1.3,2.43,2.43,0,0,1,2.25-2.14,4.35,4.35,0,0,1,.51,0c7.31,0,14.62,0,21.93,0a8.23,8.23,0,0,1,7.74,5.69,8.44,8.44,0,0,1-6.11,10.94c-.21.05-.43.08-.64.14a1.65,1.65,0,0,0-1.13,2.52,8.78,8.78,0,0,0,.44.79l7.23,12.59a3.84,3.84,0,0,1,.67,1.8,2.52,2.52,0,0,1-2.48,2.64c-3.15.06-6.31,0-9.47,0a2.41,2.41,0,0,1-2.39-2.15,8.4,8.4,0,0,1-.07-1.42V237.8a11.42,11.42,0,0,0,0-1.17,1.6,1.6,0,0,0-2.5-1.37,4.09,4.09,0,0,0-.46.25l-10.7,6.09a5,5,0,0,0-.77.48,1.55,1.55,0,0,0-.5,2,9.29,9.29,0,0,0,.56,1l11,18.79c.2.34.41.66.58,1a2.58,2.58,0,0,1-2.27,3.88c-1,0-2,0-3,0-2.51,0-5,0-7.52,0-2,0-2.94-.94-3-2.94C71,260.58,71,255.34,71,250.11Z"/><path class="cls-11" d="M362.33,250.07V235.15a9.27,9.27,0,0,1,0-1.29,2.46,2.46,0,0,1,2.44-2.24h.51c7.18,0,14.36,0,21.54,0a8.25,8.25,0,0,1,8.2,6.6,8.46,8.46,0,0,1-6.14,10c-.3.08-.6.11-.89.2a1.61,1.61,0,0,0-1.14,2.4,10,10,0,0,0,.5.91l7.23,12.59a3.61,3.61,0,0,1,.61,1.55,2.47,2.47,0,0,1-2.46,2.87c-3.11.06-6.23.06-9.34,0a2.44,2.44,0,0,1-2.51-2.7c0-2.81,0-5.62,0-8.43v-20c0-2.67-1.05-3.26-3.38-1.93l-10.14,5.78a7.75,7.75,0,0,0-.79.46,1.65,1.65,0,0,0-.62,2.26,9.26,9.26,0,0,0,.57,1l10.89,18.56c.2.34.41.67.59,1a2.59,2.59,0,0,1-2.28,4c-1.3,0-2.6,0-3.9,0-2,0-4.06-.09-6.09,0-2.69.14-3.5-1.43-3.47-3.41C362.38,260.27,362.33,255.17,362.33,250.07Z"/><path class="cls-11" d="M299.23,230.8A19.38,19.38,0,1,1,279.7,250,19.26,19.26,0,0,1,299.23,230.8Z"/><path class="cls-11" d="M411.85,268.76H403.8c-2.08,0-3-.93-3.05-3s0-3.89,0-5.84a4.52,4.52,0,0,1,0-.52,2.55,2.55,0,0,1,4-2.06c1.55.86,3,1.82,4.56,2.74l7.32,4.43a7.42,7.42,0,0,0,1.14.62,1.63,1.63,0,0,0,2.39-1.47c.05-.51,0-1,0-1.55,0-1.82,0-3.64,0-5.45s-.48-2.21-2.26-2.21H404.54c-.34,0-.69,0-1,0a2.53,2.53,0,0,1-2.74-2.66,85.2,85.2,0,0,1,.12-9.85,11.62,11.62,0,0,1,11.34-10.3c5.37-.07,10.73,0,16.09,0a2.52,2.52,0,0,1,2.84,2.79c0,2.08,0,4.15,0,6.23-.06,2.42-2.06,3.5-4.16,2.24-3.85-2.32-7.67-4.69-11.51-7a8,8,0,0,0-1.25-.68,1.66,1.66,0,0,0-2.4,1.52c-.06,2.51,0,5,0,7.52a1.59,1.59,0,0,0,1.7,1.72c.82,0,1.65,0,2.47,0h11.55c.34,0,.69,0,1,0a2.46,2.46,0,0,1,2.55,2.55c.05,3.2.18,6.4-.07,9.6a11.65,11.65,0,0,1-11.31,10.63c-2.64.06-5.27,0-7.91,0Z"/><path class="cls-11" d="M170.58,231.61c2.68,0,5.36,0,8,0,2,0,2.92,1,2.93,3s0,4,0,6c0,2.48-2.05,3.62-4.19,2.33-3.82-2.3-7.61-4.64-11.41-7a12.43,12.43,0,0,0-1.12-.64,1.75,1.75,0,0,0-2.66,1.58c0,.65,0,1.3,0,1.95v4.54c0,2.19.44,2.62,2.68,2.62h13.23a9.1,9.1,0,0,1,1.17,0,2.39,2.39,0,0,1,2.27,2.28c0,3.54.34,7.1-.16,10.62a11.54,11.54,0,0,1-11.08,9.85c-5.45.1-10.9,0-16.35,0a2.48,2.48,0,0,1-2.74-2.74c-.05-2.12,0-4.24,0-6.36a2.61,2.61,0,0,1,4.11-2.26c3.86,2.39,7.76,4.71,11.65,7.06a8.2,8.2,0,0,0,1.37.73,1.6,1.6,0,0,0,2.23-1.28,5.37,5.37,0,0,0,0-.9c0-2.08,0-4.16,0-6.23,0-1.85-.47-2.32-2.3-2.32H154.65a9.14,9.14,0,0,1-1.17,0,2.45,2.45,0,0,1-2.27-2.41c-.07-1.25,0-2.51,0-3.76,0-1.82,0-3.64,0-5.45a11.69,11.69,0,0,1,11.33-11.18c2.68-.05,5.36,0,8,0Z"/><path class="cls-11" d="M258.84,247.65c0,3.15,0,6.31,0,9.46,0,1.81.51,2.3,2.32,2.31H274a7.59,7.59,0,0,1,1.17,0,2.45,2.45,0,0,1,2.21,2.34q.09,2.26,0,4.53a2.47,2.47,0,0,1-2.29,2.4,9,9,0,0,1-1,0H262.38a18.6,18.6,0,0,1-3.64-36.87,16.87,16.87,0,0,1,2.84-.28h13.23a2.47,2.47,0,0,1,2.58,2.63c0,2.12-.06,4.24,0,6.36a2.63,2.63,0,0,1-4.06,2.37c-3.68-2.18-7.42-4.27-11.13-6.4a11.21,11.21,0,0,0-1-.55,1.61,1.61,0,0,0-2.33,1.26,6.4,6.4,0,0,0-.05,1.16Z"/><path class="cls-11" d="M47.09,247.7v8.82c0,.26,0,.52,0,.78,0,1.55.56,2.11,2.11,2.11,4.28,0,8.56,0,12.84,0a11.18,11.18,0,0,1,1.16,0A2.49,2.49,0,0,1,65.63,262c0,1.43,0,2.85,0,4.28a2.48,2.48,0,0,1-2.34,2.48c-.3,0-.6,0-.9,0H50.45a18.58,18.58,0,0,1-.31-37.15c4.15,0,8.3,0,12.45,0a5.54,5.54,0,0,1,1.29.12A2.38,2.38,0,0,1,65.62,234c0,2.29,0,4.58,0,6.87a2.46,2.46,0,0,1-3.69,2.18c-1.08-.53-2.11-1.18-3.16-1.78l-8.33-4.76c-.3-.17-.59-.37-.9-.51a1.63,1.63,0,0,0-2.43,1.42c0,.34,0,.69,0,1C47.09,241.57,47.09,244.63,47.09,247.7Z"/><path class="cls-11" d="M132.28,256.54c0-3,0-6,0-9a5.91,5.91,0,0,0,0-1,1.63,1.63,0,0,0-2.34-1.28,5.12,5.12,0,0,0-.69.37q-5.3,3-10.58,6c-1.68,1-1.86,1.66-.87,3.37,1.73,3,3.48,6,5.22,9,.19.34.41.67.57,1a2.5,2.5,0,0,1-2.2,3.71c-1.12.06-2.25,0-3.37,0-3.08,0-6.15-.09-9.21,0-2.81.11-3.61-2.47-2.52-4.33q9.34-16,18.53-32.13a2.77,2.77,0,0,1,4.89,0c6.09,10.71,12.29,21.36,18.46,32a3.53,3.53,0,0,1,.58,1.7,2.49,2.49,0,0,1-2.4,2.68c-.65.05-1.3,0-1.95,0h-9.08c-2.1,0-3-.92-3-3C132.27,262.68,132.28,259.61,132.28,256.54Z"/><path class="cls-12" d="M178.78,205.37a18.88,18.88,0,0,1-6.4.1,1,1,0,0,1-.86-.67q-1.82-3.87-3.65-7.74a.62.62,0,0,1,.29-.95,8.62,8.62,0,0,0,1-.66,3.34,3.34,0,0,0,1.24-2.06,2.3,2.3,0,0,0-2.9-2.85c-.33.07-.55.22-.55.59s0,.69,0,1v11.93c0,1.37,0,1.42-1.31,1.53a15.67,15.67,0,0,1-4.27-.09.74.74,0,0,1-.72-.87c0-.3,0-.6,0-.9V187.68c0-.3,0-.61,0-.91,0-.51.17-.8.72-.85,3.19-.24,6.36-.76,9.56-.23a13.41,13.41,0,0,1,1.4.3,6.29,6.29,0,0,1,3,10.58,1.08,1.08,0,0,0-.14,1.47c1.06,2,2.09,4,3.13,6A3.75,3.75,0,0,1,178.78,205.37Z"/><path class="cls-13" d="M84.41,195.59v-8c0-1.1,0-1.09,1.06-1.42a21.81,21.81,0,0,1,10-.69,6.8,6.8,0,0,1,6,6.24,49.4,49.4,0,0,1,.12,5.44c0,2.29,0,4.58,0,6.87,0,.63-.19.91-.86,1A18.09,18.09,0,0,1,96,205c-.69-.09-.83-.4-.82-1q0-4.54,0-9.07a9,9,0,0,0-.14-2.07,3,3,0,0,0-3.83-2.09c-.26.09-.46.22-.47.53s0,.61,0,.91v11.54c0,1.21,0,1.14-1.08,1.29a14.36,14.36,0,0,1-4.14,0c-1.1-.17-1.11-.17-1.12-1.26Z"/><path class="cls-14" d="M138.2,198.86a6.07,6.07,0,0,0,4,2.39,6.2,6.2,0,0,0,6.61-3.07c.75-1.47,2-2,3.2-2.78a.57.57,0,0,1,.12.57c-.19.61.07.92.63,1.19,1.58.77,1.57.8.84,2.34l-.06.12c-.3.57-.46,1.36-.93,1.65s-1.16-.35-1.73-.6-.73-.19-1,.2a.62.62,0,0,1-.18.18c-1.25.81-1.91,1.78-1,3.25.26.41,0,.61-.39.74-.85.29-1.71.59-2.56.9-.46.17-.79.05-.85-.45-.16-1.52-1.08-1.88-2.47-1.83-1.14,0-1.13-.06-1.64,1-.68,1.33-.39,1.4-2,.63l-.35-.16c-.57-.3-1.36-.47-1.66-.94s.35-1.15.59-1.73a.77.77,0,0,0-.2-1,8.82,8.82,0,0,1-.89-.94c-.67-.79-.67-.8-1.7-.43-1.54.54-1.54.54-2.1-1a.93.93,0,0,0,0-.13c-.22-.69-.84-1.43-.61-2.05s1.25-.61,1.9-.92c.08,0,.17-.05.24-.09.55-.33.53-2.92,0-3.25-.18-.11-.39-.19-.58-.29-1.46-.69-1.22-.5-.6-1.85.27-.59.56-1.17.83-1.76.17-.36.43-.62.8-.32,1.36,1.1,2.31.46,3.37-.57a1.21,1.21,0,0,0,.34-1.53c-.55-1.6-.85-1.35,1-2,.69-.24,1.41-.79,2.07-.61s.6,1.16.88,1.77c.14.32.29.51.65.48a1.83,1.83,0,0,1,.52,0c1.37.26,2.45.06,2.81-1.54.1-.46.42-.58.89-.34.8.42,1.62.81,2.45,1.18.49.22.52.54.24.91-.9,1.18-.65,2.11.47,3,.45.37.76.66,1.32.36s.84,0,1,.54c.32,1,.65,2,1,2.93a8.53,8.53,0,0,1-2.81,1.2c-3.68,1.37-7.38,2.68-11.07,4A3.39,3.39,0,0,0,138.2,198.86Z"/><path class="cls-15" d="M58.72,185.55a42.25,42.25,0,0,1,6-.05c.57,0,.79.44,1,.87q1.26,2.56,2.54,5.11c.19.38.4.74.65,1.2a2.47,2.47,0,0,0,.74-1.09c.85-1.7,1.73-3.39,2.53-5.11a1.56,1.56,0,0,1,1.6-1c1.38,0,2.77,0,4.15,0s1.27.13.63,1.26c-1.89,3.3-3.76,6.61-5.71,9.87a5.64,5.64,0,0,0-.86,3.31c.06,1.37,0,2.76,0,4.14a.81.81,0,0,1-.78,1,16.64,16.64,0,0,1-4.78,0c-.65-.09-.86-.41-.85-1,0-1.6,0-3.19,0-4.79a3.8,3.8,0,0,0-.55-2.08c-2-3.44-4-6.89-5.93-10.34A2.41,2.41,0,0,1,58.72,185.55Z"/><path class="cls-16" d="M124.2,205.24l-2.4-.12a1.56,1.56,0,0,1-1.4-1q-2-4.26-4.18-8.48a1.86,1.86,0,0,1,0-1.83c1.26-2.55,2.48-5.12,3.69-7.7a1.42,1.42,0,0,1,1.28-.92,29.76,29.76,0,0,1,5.17,0c.8.07.9.27.53,1-1.23,2.42-2.46,4.85-3.75,7.24a1.92,1.92,0,0,0,0,2c1.43,2.76,2.81,5.54,4.2,8.32.5,1,.42,1.16-.7,1.27C125.82,205.2,125,205.2,124.2,205.24Z"/><path class="cls-16" d="M108.75,195.15c0-2.81,0-5.62,0-8.43,0-1.38,0-1.41,1.46-1.54a19.58,19.58,0,0,1,3.75,0c1.18.12,1.22.15,1.22,1.35q0,6,0,12.06c0,1.77,0,3.54,0,5.32,0,.95-.07,1-1,1.17a18,18,0,0,1-4.4,0c-1-.12-1-.23-1-1.27C108.74,201,108.75,198.05,108.75,195.15Z"/><path class="cls-13" d="M346.46,286.34c0-1.77,0-3.54,0-5.32,0-1.14.26-1.39,1.36-1.4,2.69,0,5.37,0,8.05,0,1.14,0,1.36.25,1.4,1.37,0,.52,0,1,0,1.56,0,1.27-.64,1.64-1.75,1.05s-2-1.16-3-1.74c-1.84-1.06-2-1-2,1.12v.39c0,1.41.05,1.45,1.46,1.46s2.6,0,3.89,0c1.13,0,1.36.25,1.4,1.37,0,.57,0,1.13,0,1.69-.06,1.12-.64,1.48-1.63,1s-2.12-1.16-3.15-1.8c-2-1.22-2-.62-2,1.12,0,.18,0,.35,0,.52,0,1.26.06,1.31,1.33,1.32s2.68,0,4,0c1.16,0,1.39.29,1.4,1.51s-.24,1.59-1.45,1.6h-7.91c-1.18,0-1.44-.27-1.45-1.47C346.45,289.89,346.46,288.12,346.46,286.34Z"/><path class="cls-13" d="M360.3,286.34c0-1.73,0-3.46,0-5.19,0-1.35.18-1.52,1.48-1.53s2.77,0,4.15,0a6.76,6.76,0,0,1-.06,13.51c-1.34,0-2.68,0-4,0s-1.54-.21-1.55-1.61C360.29,289.79,360.3,288.06,360.3,286.34Z"/><path class="cls-13" d="M378.48,285.17c0,1.29,0,2.59,0,3.88s.32,1.51,1.55.82L383,288.2c1.18-.69,1.2-.74.54-1.88-.87-1.5-1.75-3-2.62-4.47-.13-.23-.28-.44-.39-.68-.42-.94-.09-1.51,1-1.54s2.16,0,3.24,0c.85,0,1.14.31,1.15,1.21,0,2.37.09,4.75,0,7.12a5.83,5.83,0,0,1-11.64-.27c0-2.2,0-4.4,0-6.6,0-1.3.18-1.45,1.53-1.47H377c1.3,0,1.46.18,1.47,1.53S378.48,283.83,378.48,285.17Z"/><path class="cls-13" d="M317.62,279.32a7,7,0,1,1-7.05,7.07A6.95,6.95,0,0,1,317.62,279.32Z"/><path class="cls-13" d="M443.77,286.27c0-1.73,0-3.46,0-5.18,0-1.24.23-1.46,1.43-1.47,2.42,0,4.84,0,7.26,0a3.07,3.07,0,0,1,1.05,6c-1,.36-1,.49-.52,1.4.73,1.32,1.5,2.63,2.25,3.94a4.3,4.3,0,0,1,.44.92.87.87,0,0,1-.81,1.2c-1.12.06-2.25,0-3.37,0a.93.93,0,0,1-1-1c0-.3,0-.61,0-.91v-8.68a6.91,6.91,0,0,0,0-.91c-.07-.65-.36-.83-.95-.61a5.63,5.63,0,0,0-.68.38l-2.82,1.6c-1.2.69-1.21.7-.53,1.86,1.17,2,2.36,4,3.53,6a6.18,6.18,0,0,1,.45.79c.33.78,0,1.4-.87,1.43-1.25.06-2.51.05-3.76,0-.81,0-1.08-.35-1.09-1.28C443.75,290,443.77,288.13,443.77,286.27Z"/><path class="cls-13" d="M434.73,279.32a7,7,0,0,1,0,14.09,7,7,0,1,1,0-14.09Z"/><path class="cls-13" d="M326.7,286.24c0-1.73,0-3.45,0-5.18,0-1.22.22-1.43,1.44-1.44,2.42,0,4.84,0,7.26,0a3.11,3.11,0,0,1,3.21,2.45,3.06,3.06,0,0,1-2.22,3.6c-.94.35-1,.48-.48,1.4.73,1.32,1.5,2.63,2.25,3.94a4.07,4.07,0,0,1,.42.8.9.9,0,0,1-.8,1.31c-1.12.06-2.25,0-3.37,0-.68,0-.93-.36-1-1.13s0-1.64,0-2.46v-7a9,9,0,0,0,0-.9c-.08-.65-.39-.86-1-.6s-1,.54-1.48.81l-2.13,1.22c-1,.61-1.07.68-.48,1.7,1.19,2.05,2.4,4.1,3.6,6.15a5.67,5.67,0,0,1,.48.91.88.88,0,0,1-.8,1.29q-2,.09-4,0c-.69,0-.92-.39-.93-1.29C326.68,290,326.7,288.1,326.7,286.24Z"/><path class="cls-13" d="M464.62,279.62c1,0,2,0,3,0s1.16.29,1.22,1.16a14,14,0,0,1,0,1.94c-.08,1.1-.72,1.47-1.68.92-1.24-.7-2.43-1.48-3.66-2.21-.43-.26-.86-.74-1.4-.4s-.29.86-.3,1.32,0,1,0,1.55.31.94,1,.93c1.47,0,2.94,0,4.41,0s1.66.21,1.68,1.63c0,.82,0,1.65,0,2.47a4.3,4.3,0,0,1-4.53,4.2h-5.06c-1.24,0-1.45-.22-1.47-1.41q0-.78,0-1.56c0-1.35.62-1.67,1.82-1s2.29,1.38,3.44,2.07a6.25,6.25,0,0,0,.79.46c.52.22.91.06.94-.47a24.68,24.68,0,0,0,0-2.72c0-.59-.54-.59-1-.59h-4.15c-.3,0-.61,0-.91,0a.94.94,0,0,1-1-1c0-1.21-.08-2.43,0-3.63a4.14,4.14,0,0,1,3.83-3.62c1-.07,2,0,3,0Z"/><path class="cls-13" d="M392.92,285.39c0,1,0,2,0,3,0,1.22.13,1.35,1.32,1.36s2.59,0,3.89,0,1.52.15,1.53,1.59c0,.21,0,.43,0,.65-.06.83-.28,1.12-1.08,1.14-1.72,0-3.46.11-5.18,0a6.75,6.75,0,0,1,.57-13.45c1.47,0,2.94,0,4.41,0,1.07,0,1.25.22,1.28,1.32,0,.6-.05,1.21,0,1.81a1,1,0,0,1-1.56.95L395.2,282c-.34-.19-.67-.4-1-.58-.86-.42-1.21-.24-1.25.71s0,2.16,0,3.24Z"/><path class="cls-13" d="M298.41,286.27c0-1.73,0-3.46,0-5.18,0-1.24.22-1.46,1.42-1.47h7.91c1.23,0,1.4.2,1.44,1.44,0,.56,0,1.13,0,1.69-.07,1.12-.63,1.44-1.65.9s-2-1.15-3-1.72c-.26-.15-.51-.32-.78-.45-.89-.45-1.19-.3-1.25.65,0,.52,0,1,0,1.56,0,1,.15,1.12,1.14,1.13,1.34,0,2.68,0,4,0s1.56.18,1.58,1.57a15.66,15.66,0,0,1,0,1.68c-.08,1-.63,1.3-1.51.85s-2-1.11-2.93-1.67c-.37-.21-.74-.44-1.13-.63-.8-.39-1.11-.22-1.14.69-.05,1.16,0,2.33,0,3.5,0,.34,0,.69,0,1-.05,1-.27,1.23-1.23,1.27a13.36,13.36,0,0,1-1.55,0c-.94,0-1.21-.3-1.23-1.27C298.39,290,298.41,288.13,298.41,286.27Z"/><path class="cls-13" d="M410.34,288.61c0-1,0-2.08,0-3.11s-.35-1.14-1.11-.73c-1.29.69-2.55,1.45-3.83,2.17a.74.74,0,0,0-.29,1.19c.53.88,1,1.78,1.56,2.68a7.75,7.75,0,0,1,.46.79c.4.86.08,1.48-.86,1.51-1.47.05-2.94.05-4.4,0-1.1,0-1.42-.66-.89-1.67s1-1.72,1.49-2.58q2.39-4.15,4.79-8.3a5.6,5.6,0,0,1,.54-.88.93.93,0,0,1,1.46,0,4.77,4.77,0,0,1,.49.77L415.83,291a5.09,5.09,0,0,1,.32.56c.42.94.08,1.54-.94,1.58-1.21,0-2.42,0-3.63,0-.93,0-1.2-.3-1.23-1.27s0-2.16,0-3.24Z"/><path class="cls-13" d="M420.89,279.62c1.73,0,3.46,0,5.19,0,1.17,0,1.35.2,1.39,1.35a13.53,13.53,0,0,1,0,1.56c-.08,1-.62,1.28-1.51.86-.7-.33-1.35-.76-2-1.12-1-.53-1.34-.35-1.36.78,0,2.63,0,5.27,0,7.91,0,.34,0,.69,0,1-.06.84-.28,1.08-1.09,1.13-.52,0-1,0-1.56,0-1,0-1.3-.28-1.31-1.32,0-2.07,0-4.15,0-6.22,0-.31,0-.61,0-.91a1.53,1.53,0,0,0-.93-1.67c-.89-.45-1.72-1-2.59-1.49-.48-.27-.88-.59-.72-1.21s.68-.7,1.23-.7Z"/><path class="cls-17" d="M51.56,186.92c0,.91,0,1.82,0,2.73,0,.58-.17.89-.8.88H45.19c-.53,0-.81-.19-.8-.76,0-1.86,0-3.72,0-5.58,0-.63.29-.82.87-.81,1.82,0,3.64,0,5.45,0,.72,0,.88.33.87,1C51.54,185.19,51.56,186.06,51.56,186.92Z"/><path class="cls-17" d="M48,198.7c.95,0,1.9,0,2.86,0,.47,0,.71.2.71.69,0,1.69,0,3.37,0,5.06,0,.42-.23.61-.62.68a17.42,17.42,0,0,1-5.94,0,.65.65,0,0,1-.59-.72c0-1.68,0-3.37,0-5,0-.52.29-.67.75-.66C46.09,198.71,47,198.7,48,198.7Z"/><path class="cls-17" d="M47.86,197.89c-.87,0-1.73,0-2.59,0-.58,0-.9-.15-.89-.8q0-2.46,0-4.92c0-.62.28-.83.86-.83,1.82,0,3.63,0,5.45,0,.56,0,.88.16.87.81q0,2.46,0,4.92c0,.62-.26.83-.85.82C49.76,197.87,48.81,197.89,47.86,197.89Z"/><path class="cls-17" d="M37.89,176.38h2.47c.52,0,.8.17.8.74,0,1.55,0,3.11,0,4.66,0,.53-.17.81-.74.81-1.82,0-3.63,0-5.45,0a.7.7,0,0,1-.77-.68,13.65,13.65,0,0,1,0-4.77c.1-.51.32-.76.85-.75C36,176.4,36.94,176.38,37.89,176.38Z"/><path class="cls-17" d="M47.92,179.57c0,.73,0,1.46,0,2.2,0,.5-.14.82-.72.81-1.51,0-3,0-4.52,0-.58,0-.74-.29-.74-.81q0-2.33,0-4.65c0-.56.24-.76.78-.75,1.47,0,2.93,0,4.4,0,.63,0,.82.3.8.87C47.91,178,47.92,178.79,47.92,179.57Z"/><path class="cls-17" d="M54.71,178.66c0,.78,0,1.55,0,2.33,0,.55-.24.77-.78.76-1.46,0-2.93,0-4.39,0-.64,0-.82-.3-.81-.88,0-1.5,0-3,0-4.52,0-.63.26-.84.85-.84,1.42,0,2.84,0,4.27,0,.69,0,.89.31.86.94s0,1.47,0,2.2Z"/><path class="cls-18" d="M90,218.36c0-1.46,0-2.91,0-4.36,0-.61.21-.84.83-.82s.77.19.77.75c0,2.08,0,4.15,0,6.22,0,.61-.24.8-.84.84a1.88,1.88,0,0,1-2.07-1.1,27.49,27.49,0,0,0-2.79-4.25v1.73c0,.91,0,1.81,0,2.72,0,.55-.09.9-.77.89s-.83-.24-.82-.84c0-2.07,0-4.15,0-6.22,0-.57.25-.71.77-.75a1.94,1.94,0,0,1,2.18,1.14c.73,1.41,1.64,2.73,2.47,4.09Z"/><path class="cls-17" d="M61.22,176.78c0,.69,0,1.39,0,2.08s-.14.89-.8.88c-1.38,0-2.76,0-4.15,0-.55,0-.77-.22-.77-.77q0-2.21,0-4.41c0-.57.27-.75.8-.75,1.38,0,2.77,0,4.15,0,.56,0,.78.24.77.78C61.21,175.31,61.22,176.05,61.22,176.78Z"/><path class="cls-18" d="M54.43,217a3.52,3.52,0,0,1,1.67-3.42,4.37,4.37,0,0,1,4.46,0c1.61.93,1.78,2.56,1.62,4.21a3.3,3.3,0,0,1-2.52,3.1,5.22,5.22,0,0,1-2.69,0C55.27,220.42,54.43,219.1,54.43,217Z"/><path class="cls-18" d="M126.83,217a3.92,3.92,0,0,1-6,3.6c-1.38-.72-2-2.28-1.77-4.39a3.27,3.27,0,0,1,2.58-3l.51-.12A3.71,3.71,0,0,1,126.83,217Z"/><path class="cls-19" d="M66.45,217.07c0-1,0-2.08,0-3.12,0-.54.21-.78.76-.77.91,0,1.82,0,2.73,0a3.44,3.44,0,0,1,3.32,3.48,3.59,3.59,0,0,1-2.83,4.06,14.58,14.58,0,0,1-3.23.2c-.58,0-.75-.27-.74-.79C66.46,219.14,66.45,218.1,66.45,217.07Z"/><path class="cls-18" d="M163.57,217.06c0-1,0-2.07,0-3.11,0-.53.19-.79.76-.77.91,0,1.82,0,2.72,0a3.49,3.49,0,0,1,3.33,3.49,3.62,3.62,0,0,1-2.85,4.05,14.58,14.58,0,0,1-3.23.2c-.59,0-.73-.3-.73-.8C163.57,219.13,163.57,218.1,163.57,217.06Z"/><path class="cls-18" d="M101.52,213.6c-.35,1.13-.35,1.13-1.41,1-2.45-.42-4,1.31-3.21,3.64a2,2,0,0,0,2,1.48c1,0,1.07-.43.94-1.37-.06-.4-.43-.36-.72-.35-.52,0-.81-.14-.79-.73s.43-.64.88-.64,1.13,0,1.69,0,.75.25.74.78c0,.86,0,1.72,0,2.59,0,.54-.25.74-.74.86a7.92,7.92,0,0,1-3.21.14,3.08,3.08,0,0,1-2.57-2.27,5.6,5.6,0,0,1-.19-2.3,3.52,3.52,0,0,1,2.93-3.19A5,5,0,0,1,101.52,213.6Z"/><path class="cls-18" d="M137.2,220.82c-1.31.38-2.11.07-2.63-1a14.53,14.53,0,0,0-1-1.52.66.66,0,0,0-.79-.3c-.33.09-.27.4-.28.64,0,.56,0,1.12,0,1.69s-.4.66-.86.65-.91.05-.9-.61v-6.62c0-.37.19-.54.56-.54a19,19,0,0,1,3.11.07,2.11,2.11,0,0,1,1.89,1.54,2,2,0,0,1-.73,2.31c-.63.45-.45.8-.1,1.27C136,219.15,136.57,219.93,137.2,220.82Z"/><path class="cls-19" d="M148.43,216.24c.6-.72,1.26-1.4,1.79-2.16a2.08,2.08,0,0,1,2.6-.75l-2,2.47c-.66.81-.66.81-.11,1.64.7,1.08,1.41,2.16,2.14,3.25-1.39.52-1.72.43-2.41-.6l-1.21-1.85c-.14-.22-.3-.44-.61-.31a.62.62,0,0,0-.44.58c0,.61,0,1.21,0,1.82s-.41.64-.87.64-.89,0-.89-.64q0-3.24,0-6.48c0-.75.52-.64,1-.67s.8.16.78.74,0,1.45,0,2.18Z"/><path class="cls-18" d="M176.11,221a4.94,4.94,0,0,1-1.53-.19.83.83,0,0,1-.72-.91c0-.71.11-.8.84-.6a4.43,4.43,0,0,0,1.9.32c.39-.06.77-.19.86-.65a.79.79,0,0,0-.48-.85c-.52-.29-1.08-.54-1.61-.83a2.39,2.39,0,0,1-1.26-1.4,2.07,2.07,0,0,1,1.39-2.68,4.69,4.69,0,0,1,3.05.12c.37.12.63.31.44.75s-.25.8-.79.64a4.62,4.62,0,0,0-1.27-.25c-.49,0-1,0-1.15.58s.29.77.68,1,.86.4,1.28.63c1.21.66,1.71,1.55,1.46,2.59a2.44,2.44,0,0,1-2.44,1.76Z"/><path class="cls-20" d="M64.35,175.78H62.8c-.45,0-.76-.14-.76-.65,0-1.16,0-2.33,0-3.49,0-.39.15-.66.6-.66h3.49c.48,0,.68.27.73.71a15.63,15.63,0,0,1,0,3.35.74.74,0,0,1-.85.75Z"/><path class="cls-19" d="M49.86,219.37c.46,1.39-.11,1.47-1,1.59-1.53.2-3.1.23-4.07-1.26a4.62,4.62,0,0,1-.16-4.92c1-1.83,3.43-2.13,5.25-1.35a.4.4,0,0,1,.24.62c-.16.32-.17.82-.72.73-.38-.06-.75-.23-1.13-.27A1.84,1.84,0,0,0,46.05,216a4,4,0,0,0-.14,1.54,2.07,2.07,0,0,0,2.72,2.09Z"/><path class="cls-19" d="M110.19,217c0-1,0-2,0-3,0-.56.11-.89.78-.86,1.07,0,2.15,0,3.23,0,.47,0,.7.18.69.69s-.27.66-.73.66h-1.55c-.73,0-.67.51-.67,1s-.06,1,.66,1H114c.4,0,.65.13.65.59s-.09.78-.63.75h-.13c-.62.08-1.42-.3-1.84.24s-.1,1.25-.14,1.89c0,.9-.12,1-1,1-.53,0-.79-.16-.78-.74C110.21,219.17,110.2,218.09,110.19,217Z"/><path class="cls-21" d="M159.22,217.09c0,1,0,2.07,0,3.1,0,.65-.31.8-.88.79s-.91-.08-.9-.76c0-2.11,0-4.22,0-6.33,0-.6.3-.73.81-.71s1-.06,1,.68c0,1.08,0,2.15,0,3.23Z"/><path class="cls-22" d="M319.1,356.66c0,2,.28,1.76-1.83,1.76s-1.81.24-1.81-1.88-.27-1.76,1.81-1.76S319.06,354.56,319.1,356.66Z"/><path class="cls-22" d="M205.61,319.22c0-2-.23-1.75,1.82-1.75s1.82-.29,1.83,1.87.18,1.76-1.82,1.76S205.63,321.4,205.61,319.22Z"/><path class="cls-23" d="M207.35,333.72c-1.94,0-1.74.24-1.73-1.72,0-2.14-.28-1.87,1.83-1.87s1.8-.26,1.8,1.78S209.5,333.68,207.35,333.72Z"/><path class="cls-22" d="M41.86,315c0,2.08.22,1.76-1.78,1.78s-1.88,0-1.87-1.93-.14-1.65,1.64-1.67H40C42.07,313.24,41.83,312.89,41.86,315Z"/><path class="cls-22" d="M351.12,354.18c-1.93,0-1.72.27-1.72-1.7,0-2.22-.24-1.89,1.92-1.9,1.87,0,1.72-.28,1.73,1.71S353.05,354.18,351.12,354.18Z"/><path class="cls-22" d="M297.75,354.18c-1.82,0-1.82,0-1.82-1.87s-.15-1.74,1.71-1.73c2.17,0,1.94-.33,1.94,1.88C299.57,354.48,299.82,354.15,297.75,354.18Z"/><path class="cls-23" d="M164.1,352.47c0,2,.22,1.73-1.71,1.74s-1.95,0-1.94-1.9-.19-1.66,1.64-1.68h.13C164.35,350.66,164.07,350.34,164.1,352.47Z"/><path class="cls-23" d="M351.21,371.08c-2,0-1.81.28-1.81-1.77s-.24-1.81,1.77-1.81,1.87-.29,1.87,1.84S353.27,371.05,351.21,371.08Z"/><path class="cls-22" d="M41.86,319.33c0,2.06.18,1.77-1.81,1.77s-1.84.31-1.84-1.86-.23-1.77,1.8-1.77S41.83,317.18,41.86,319.33Z"/><path class="cls-24" d="M207.34,329.53c-2,0-1.73.27-1.72-1.72,0-2.29-.25-1.91,1.91-1.91,1.88,0,1.72-.34,1.73,1.71S209.26,329.53,207.34,329.53Z"/><path class="cls-23" d="M93.24,369.23c0,2.14.26,1.85-1.85,1.85s-1.79.28-1.79-1.79-.25-1.77,1.79-1.8h.13C93.46,367.52,93.22,367.27,93.24,369.23Z"/><path class="cls-25" d="M207.54,325.31c-1.93,0-1.94,0-1.93-1.89,0-2-.16-1.7,1.72-1.72s1.94,0,1.93,1.89C209.25,325.64,209.41,325.27,207.54,325.31Z"/><path class="cls-24" d="M61.19,356.67c0,1.91.31,1.76-1.7,1.75-2.31,0-1.93.26-1.94-1.89,0-1.91-.32-1.75,1.69-1.75C61.55,354.79,61.14,354.52,61.19,356.67Z"/><path class="cls-25" d="M41.86,327.75c0,2.09.19,1.73-1.82,1.75-1.83,0-1.84,0-1.83-1.85,0-2.1-.16-1.73,1.81-1.76S41.86,325.89,41.86,327.75Z"/><path class="cls-25" d="M40,325.31c-1.83,0-1.83,0-1.82-1.87,0-2.09-.18-1.72,1.82-1.74,1.83,0,1.83,0,1.82,1.86C41.84,325.66,42,325.27,40,325.31Z"/><path class="cls-25" d="M351.16,362.68c-1.94,0-1.76.33-1.76-1.81s-.19-1.8,1.75-1.8c2.14,0,1.89-.37,1.89,1.93C353.05,363,353.22,362.64,351.16,362.68Z"/><path class="cls-25" d="M162.32,362.68c-1.87,0-1.88,0-1.87-1.83,0-2.12-.18-1.78,1.78-1.78s1.86-.35,1.87,1.82S164.27,362.64,162.32,362.68Z"/><path class="cls-26" d="M216,321.7c2,0,1.74-.29,1.75,1.8s.26,1.79-1.75,1.81-1.9,0-1.88-1.94S213.81,321.73,216,321.7Z"/><path class="cls-27" d="M221.89,323.6c0,2,.22,1.71-1.7,1.7-2.19,0-1.9.32-1.9-1.9,0-2-.21-1.69,1.71-1.7S221.89,321.7,221.89,323.6Z"/><path class="cls-27" d="M228.89,323.58c0,2,.24,1.73-1.67,1.72-2.2,0-1.92.33-1.93-1.87,0-2-.2-1.72,1.69-1.73S228.89,321.7,228.89,323.58Z"/><path class="cls-27" d="M101.67,356.68c0,2,.27,1.79-1.78,1.79s-1.85.25-1.85-1.85-.31-1.77,1.78-1.78C101.67,354.82,101.68,354.83,101.67,356.68Z"/><path class="cls-27" d="M155.64,356.71c0,2,.27,1.76-1.81,1.76s-1.79.25-1.81-1.76,0-1.89,1.93-1.87S155.6,354.63,155.64,356.71Z"/><path class="cls-28" d="M59.25,316.79c-2,0-1.71.27-1.72-1.68s0-1.95,1.88-1.93,1.72-.25,1.73,1.69S61.14,316.79,59.25,316.79Z"/><path class="cls-28" d="M65.34,315c0,2,.28,1.74-1.8,1.74s-1.81.29-1.81-1.85-.27-1.73,1.79-1.75C65.34,313.16,65.34,313.17,65.34,315Z"/><path class="cls-28" d="M239.86,325.31c-1.89,0-1.9,0-1.89-1.92s-.23-1.68,1.74-1.69,1.89,0,1.88,1.92S241.81,325.28,239.86,325.31Z"/><path class="cls-27" d="M251.93,356.74c0,1.92.27,1.74-1.72,1.73-2.23,0-1.91.3-1.91-1.91,0-1.95-.3-1.72,1.7-1.72C252.28,354.84,251.88,354.56,251.93,356.74Z"/><path class="cls-24" d="M252.45,323.6c0,1.94.22,1.69-1.75,1.68-2.13,0-1.84.29-1.84-1.83s-.27-1.74,1.67-1.75S252.45,321.69,252.45,323.6Z"/><path class="cls-23" d="M254.77,325.29c-2,0-1.75.24-1.74-1.71,0-2.19-.32-1.87,1.94-1.88,1.9,0,1.65-.25,1.67,1.63v.13C256.61,325.6,256.92,325.25,254.77,325.29Z"/><path class="cls-27" d="M278.86,323.44c0-2.06-.23-1.73,1.81-1.74s1.82-.3,1.82,1.86.22,1.75-1.81,1.74S278.89,325.64,278.86,323.44Z"/><path class="cls-28" d="M108.61,316.79c-2,0-1.74.28-1.74-1.8s-.27-1.78,1.79-1.78,1.81-.25,1.81,1.88S110.75,316.76,108.61,316.79Z"/><path class="cls-28" d="M286.65,325.3c-.91,0-1.81,0-2.72,0-.58,0-.89-.14-.85-.79a20.42,20.42,0,0,0,0-2.07c0-.54.16-.79.74-.77.95,0,1.9,0,2.85,0A3.27,3.27,0,0,1,286.65,325.3Z"/><path class="cls-27" d="M278.27,354.83c2,0,1.71-.24,1.73,1.7s0,2-1.89,1.94-1.75.2-1.74-1.71C276.38,354.56,276,354.87,278.27,354.83Z"/><path class="cls-26" d="M287.3,321.72c.95,0,1.89,0,2.83,0,.52,0,.8.12.78.71,0,.77,0,1.54,0,2.31,0,.44-.2.61-.62.6h-3A4.27,4.27,0,0,1,287.3,321.72Z"/><path class="cls-27" d="M342.79,354.83c2.1,0,1.79-.21,1.79,1.79s.31,1.85-1.85,1.85-1.77.25-1.78-1.79C340.93,354.83,341,354.83,342.79,354.83Z"/><path class="cls-26" d="M59.32,362.66c-2,0-1.76.27-1.77-1.8,0-1.82,0-1.83,1.86-1.81,2.07,0,1.77-.28,1.77,1.78S61.46,362.62,59.32,362.66Z"/><path class="cls-23" d="M87.25,359.06c2,0,1.71-.26,1.73,1.71s0,1.9-1.94,1.89-1.67.21-1.68-1.65S85.36,359.06,87.25,359.06Z"/><path class="cls-23" d="M99.78,362.66c-2,0-1.74.26-1.74-1.81s-.28-1.76,1.76-1.78c1.88,0,1.89,0,1.87,1.93S101.9,362.62,99.78,362.66Z"/><path class="cls-26" d="M110.77,359.06c2.07,0,1.78-.26,1.78,1.78s.28,1.83-1.85,1.83-1.78.3-1.78-1.77S108.62,359.1,110.77,359.06Z"/><path class="cls-28" d="M57.52,327.59c0-2-.23-1.72,1.7-1.71,2.24,0,1.91-.31,1.92,1.88,0,1.95.24,1.71-1.7,1.72S57.52,329.49,57.52,327.59Z"/><path class="cls-28" d="M93.09,327.77c0,2,.26,1.72-1.68,1.73s-2,0-1.94-2c0-1.85-.21-1.6,1.68-1.62S93.09,325.89,93.09,327.77Z"/><path class="cls-28" d="M116.75,360.84c0,2.14.28,1.83-1.84,1.83s-1.77.27-1.77-1.77-.3-1.83,1.84-1.83S116.72,358.77,116.75,360.84Z"/><path class="cls-28" d="M126.14,362.68c-2.13,0-1.84.29-1.84-1.83s-.29-1.78,1.77-1.78,1.83-.31,1.83,1.82S128.17,362.65,126.14,362.68Z"/><path class="cls-28" d="M252.45,315c0,2,.29,1.77-1.79,1.76s-1.79.29-1.8-1.86c0-1.9-.27-1.71,1.71-1.71C252.74,313.22,252.42,313,252.45,315Z"/><path class="cls-28" d="M134.48,325.89c2,0,1.72-.26,1.73,1.69s0,1.94-1.87,1.92-1.72.25-1.74-1.68S132.6,325.89,134.48,325.89Z"/><path class="cls-26" d="M143.18,327.75c0,2,.31,1.76-1.79,1.77-1.83,0-1.84,0-1.83-1.84,0-2.07-.25-1.78,1.79-1.78S143.15,325.61,143.18,327.75Z"/><path class="cls-28" d="M155.64,360.94c0,2,.24,1.72-1.69,1.74s-1.94,0-1.93-1.88-.25-1.74,1.68-1.73C156,359.08,155.6,358.76,155.64,360.94Z"/><path class="cls-26" d="M154,329.53c-2,0-1.69.25-1.71-1.71s0-1.94,1.9-1.93,1.7-.23,1.71,1.72S155.88,329.53,154,329.53Z"/><path class="cls-28" d="M157.94,362.68c-1.89,0-1.69.24-1.69-1.76,0-2.16-.25-1.85,1.84-1.85s1.73-.27,1.74,1.68S159.84,362.68,157.94,362.68Z"/><path class="cls-28" d="M188,329.51c-2,0-1.72.23-1.71-1.71,0-2.22-.32-1.9,1.9-1.9,1.94,0,1.7-.27,1.71,1.7S189.94,329.51,188,329.51Z"/><path class="cls-28" d="M177.08,362.66c-2,0-1.71.25-1.72-1.71s0-1.92,1.89-1.91,1.71-.24,1.72,1.7S179,362.66,177.08,362.66Z"/><path class="cls-23" d="M179.57,360.79c0-2-.26-1.73,1.7-1.75s1.91,0,1.9,1.93.21,1.67-1.63,1.69h-.13C179.29,362.63,179.61,362.94,179.57,360.79Z"/><path class="cls-28" d="M213.49,360.93c0,2,.26,1.73-1.81,1.75-1.8,0-1.82,0-1.8-1.87,0-2-.28-1.74,1.8-1.74S213.46,358.79,213.49,360.93Z"/><path class="cls-26" d="M241.59,327.7c0,1.83,0,1.84-1.85,1.82-2.08,0-1.76.25-1.76-1.78s-.29-1.84,1.85-1.84S241.56,325.61,241.59,327.7Z"/><path class="cls-28" d="M232.7,360.9c0,2,.26,1.74-1.8,1.75-1.82,0-1.82,0-1.82-1.86s0-1.76,1.79-1.75C233,359.06,232.66,358.77,232.7,360.9Z"/><path class="cls-28" d="M233.3,360.8c0-2-.28-1.74,1.8-1.76,1.82,0,1.83,0,1.82,1.85,0,2.06.24,1.76-1.79,1.76S233.33,362.93,233.3,360.8Z"/><path class="cls-26" d="M289.16,329.51c-1.9,0-1.91,0-1.89-1.93s-.23-1.67,1.74-1.69,1.91,0,1.89,1.93S291.16,329.47,289.16,329.51Z"/><path class="cls-26" d="M251.93,360.9c0,2,.27,1.78-1.79,1.77s-1.84.32-1.84-1.84-.29-1.76,1.78-1.76S251.89,358.77,251.93,360.9Z"/><path class="cls-28" d="M256.13,360.94c0,2,.24,1.74-1.69,1.73-2.24,0-1.92.31-1.93-1.87,0-2-.25-1.72,1.69-1.73S256.13,359.06,256.13,360.94Z"/><path class="cls-27" d="M262.85,359.06c1.94,0,1.74-.25,1.73,1.69,0,2.25.29,1.92-1.88,1.92-1.93,0-1.7.29-1.71-1.68S261,359.06,262.85,359.06Z"/><path class="cls-26" d="M276.36,360.78c0-2-.26-1.72,1.7-1.74s1.95,0,1.94,2c0,1.83.19,1.59-1.56,1.62h-.26C276.06,362.62,276.4,362.94,276.36,360.78Z"/><path class="cls-28" d="M302,362.66c-2.06,0-1.79.29-1.81-1.75,0-1.87,0-1.88,1.93-1.87s1.66-.21,1.69,1.74v.13C303.79,362.91,304.07,362.63,302,362.66Z"/><path class="cls-26" d="M61.14,331.94c0,1.95.29,1.72-1.69,1.74s-1.94,0-1.92-1.88-.24-1.74,1.68-1.75S61.14,330,61.14,331.94Z"/><path class="cls-26" d="M65.34,331.94c0,2,.29,1.72-1.69,1.74s-1.94,0-1.93-1.89-.25-1.73,1.69-1.74S65.34,330,65.34,331.94Z"/><path class="cls-28" d="M323.47,362.68c-2,0-1.72.26-1.73-1.69s0-1.94,1.88-1.92,1.72-.25,1.74,1.68S325.36,362.68,323.47,362.68Z"/><path class="cls-27" d="M139.56,319.24c0-2-.3-1.77,1.78-1.77s1.83-.26,1.83,1.85.28,1.77-1.77,1.78C139.56,321.11,139.56,321.1,139.56,319.24Z"/><path class="cls-27" d="M336.32,359.06c1.92,0,1.72-.26,1.72,1.7,0,2.23.28,1.91-1.9,1.91-1.93,0-1.69.29-1.7-1.69S334.44,359.06,336.32,359.06Z"/><path class="cls-26" d="M344.59,360.9c0,2.05.26,1.78-1.8,1.77S341,363,341,360.83s-.28-1.76,1.78-1.76S344.55,358.77,344.59,360.9Z"/><path class="cls-29" d="M59.28,366.85c-2,0-1.71.25-1.73-1.7s0-1.92,1.9-1.91,1.72-.25,1.73,1.7S61.18,366.85,59.28,366.85Z"/><path class="cls-24" d="M78.26,366.88c-2,0-1.74.24-1.74-1.71,0-2.24-.32-1.89,1.92-1.91,1.89,0,1.65-.22,1.67,1.64V365C80.11,366.88,80.11,366.88,78.26,366.88Z"/><path class="cls-28" d="M87.11,366.87c-2,0-1.74.26-1.74-1.8s-.26-1.81,1.74-1.8S89,363,89,365.07C89,366.87,89,366.87,87.11,366.87Z"/><path class="cls-26" d="M101.68,365.14c0,2,.26,1.72-1.7,1.73s-2,0-1.94-2c0-1.8-.2-1.59,1.56-1.61h.13C101.68,363.26,101.68,363.26,101.68,365.14Z"/><path class="cls-28" d="M126,366.87c-2,0-1.71.24-1.72-1.7s0-1.92,1.9-1.91,1.7-.26,1.71,1.71S127.91,366.87,126,366.87Z"/><path class="cls-26" d="M155.64,365.16c0,2,.28,1.72-1.7,1.73S152,366.9,152,365s-.25-1.74,1.7-1.73C156,363.27,155.6,362.94,155.64,365.16Z"/><path class="cls-28" d="M211.63,366.87c-1.75,0-1.77,0-1.75-1.78,0-2.14-.28-1.82,1.85-1.82s1.75-.28,1.76,1.79C213.51,366.87,213.49,366.87,211.63,366.87Z"/><path class="cls-28" d="M230.79,366.87c-2,0-1.7.26-1.7-1.7,0-2.24-.31-1.89,1.9-1.9,1.94,0,1.71-.24,1.7,1.7C232.68,367.17,233,366.84,230.79,366.87Z"/><path class="cls-27" d="M250.06,366.9c-1.77,0-1.77,0-1.77-1.77s0-1.88,1.93-1.87,1.69-.23,1.71,1.71S251.93,366.9,250.06,366.9Z"/><path class="cls-27" d="M289.16,317.47c2,0,1.72-.25,1.74,1.68s0,2-2,2c-1.83,0-1.61.15-1.63-1.57v-.13C287.31,317.19,286.91,317.5,289.16,317.47Z"/><path class="cls-26" d="M278.09,366.87c-2,0-1.71.24-1.72-1.7s0-1.92,1.91-1.91S280,363,280,365,280,366.87,278.09,366.87Z"/><path class="cls-28" d="M302,366.87c-2.08,0-1.78.29-1.8-1.74,0-1.87,0-1.88,1.93-1.87s1.67-.21,1.69,1.62V365C303.78,367.14,304.12,366.84,302,366.87Z"/><path class="cls-27" d="M61.72,323.36c0-1.93-.28-1.69,1.7-1.7s1.93,0,1.92,1.87.26,1.73-1.7,1.72C61.41,325.24,61.76,325.54,61.72,323.36Z"/><path class="cls-27" d="M317.28,363.24c2,0,1.81-.28,1.81,1.75s.26,1.86-1.83,1.85-1.8.33-1.8-1.74S315.21,363.28,317.28,363.24Z"/><path class="cls-26" d="M342.7,366.87c-1.75,0-1.77,0-1.75-1.79,0-2.13-.28-1.81,1.87-1.81s1.75-.28,1.76,1.79C344.6,366.87,344.59,366.87,342.7,366.87Z"/><path class="cls-27" d="M59.43,367.44c2,0,1.74-.21,1.75,1.81,0,1.8,0,1.8-1.75,1.8s-1.89,0-1.88-1.92S57.3,367.47,59.43,367.44Z"/><path class="cls-26" d="M325.36,365.13c0,2,.3,1.75-1.8,1.76-1.82,0-1.83,0-1.82-1.85,0-2.07-.25-1.77,1.78-1.77S325.32,363,325.36,365.13Z"/><path class="cls-26" d="M61.19,352.41c0,2,.28,1.74-1.81,1.74s-1.82.3-1.83-1.85-.26-1.75,1.81-1.75S61.15,350.26,61.19,352.41Z"/><path class="cls-27" d="M101.67,352.45c0,2,.29,1.71-1.68,1.73s-2,0-1.95-2c0-1.77-.22-1.61,1.55-1.62h.26C102,350.61,101.64,350.32,101.67,352.45Z"/><path class="cls-27" d="M216,350.58c2,0,1.73-.23,1.74,1.69s0,1.92-1.89,1.91-1.74.24-1.74-1.67C214.08,350.3,213.75,350.61,216,350.58Z"/><path class="cls-30" d="M108.67,325.29c-2.07,0-1.81.28-1.8-1.77s-.3-1.81,1.86-1.82c2,0,1.72-.25,1.75,1.69v.13C110.45,325.56,110.75,325.26,108.67,325.29Z"/><path class="cls-27" d="M121.69,325.31c-2,0-1.77.27-1.77-1.79s-.26-1.82,1.87-1.82,1.76-.31,1.76,1.78S123.8,325.27,121.69,325.31Z"/><path class="cls-28" d="M134.36,325.31c-2,0-1.76.27-1.76-1.8s-.29-1.81,1.86-1.81,1.75-.29,1.75,1.79S136.49,325.27,134.36,325.31Z"/><path class="cls-28" d="M141.36,325.31c-2.07,0-1.79.28-1.79-1.76s-.3-1.84,1.81-1.85,1.8-.26,1.79,1.75S143.47,325.28,141.36,325.31Z"/><path class="cls-27" d="M306.11,354.18c-2,0-1.71.23-1.71-1.69,0-2.19-.32-1.9,1.9-1.91,2,0,1.7-.2,1.71,1.71S308,354.18,306.11,354.18Z"/><path class="cls-28" d="M155.88,323.56c0,2,.25,1.73-1.81,1.75-1.81,0-1.83,0-1.81-1.87,0-2-.28-1.74,1.8-1.74S155.84,321.42,155.88,323.56Z"/><path class="cls-26" d="M40.13,350.74c2.09,0,1.8-.25,1.8,1.76s.29,1.85-1.84,1.85-1.77.31-1.79-1.77C38.29,350.74,38.3,350.74,40.13,350.74Z"/><path class="cls-28" d="M171.46,323.4c0-2-.23-1.7,1.72-1.7,2.23,0,1.88-.31,1.9,1.91,0,1.94.23,1.69-1.72,1.7S171.46,325.31,171.46,323.4Z"/><path class="cls-28" d="M177.39,325.31c-1.95,0-1.72.24-1.73-1.7s0-1.93,1.89-1.91,1.71-.26,1.73,1.69S179.28,325.31,177.39,325.31Z"/><path class="cls-31" d="M38.3,356.69c0-2.08-.26-1.75,1.75-1.77s1.9,0,1.88,1.91.25,1.69-1.69,1.72h-.13C38.3,358.55,38.3,358.55,38.3,356.69Z"/><path class="cls-28" d="M188.18,321.7c2,0,1.75-.3,1.75,1.78s.29,1.82-1.83,1.82-1.77.27-1.77-1.77S186,321.73,188.18,321.7Z"/><path class="cls-28" d="M213.49,323.46c0,2.13.29,1.85-1.83,1.84s-1.76.31-1.78-1.75c0-1.85,0-1.87,1.82-1.85C213.76,321.71,213.46,321.44,213.49,323.46Z"/><path class="cls-27" d="M230.78,354.18c-2,0-1.69.25-1.69-1.7,0-2.2-.31-1.89,1.9-1.9,2,0,1.69-.17,1.71,1.72S232.7,354.18,230.78,354.18Z"/><path class="cls-28" d="M221.92,352.41c0,1.77,0,1.77-1.78,1.77s-1.81,0-1.81-1.88-.15-1.72,1.72-1.72C222.17,350.59,221.9,350.28,221.92,352.41Z"/><path class="cls-26" d="M181.44,354.18c-1.87,0-1.88,0-1.86-1.83,0-2-.29-1.77,1.8-1.77s1.76-.25,1.79,1.78v.13C183.14,354.43,183.46,354.15,181.44,354.18Z"/><path class="cls-31" d="M293.25,333.71c-1.92,0-1.73.24-1.72-1.7,0-2.18-.3-1.84,1.93-1.88h.12c1.71,0,1.52-.12,1.53,1.52v.25C295.11,333.71,295.11,333.71,293.25,333.71Z"/><path class="cls-27" d="M179,352.47c0,1.93.27,1.69-1.7,1.71s-1.93,0-1.92-1.87-.24-1.73,1.69-1.73C179.3,350.59,178.94,350.31,179,352.47Z"/><path class="cls-27" d="M69.53,315.05c0,1.74,0,1.75-1.79,1.74-2.08,0-1.8.28-1.81-1.87,0-2-.19-1.73,1.68-1.74S69.53,313.17,69.53,315.05Z"/><path class="cls-27" d="M72.15,313.18c1.82,0,1.67-.24,1.68,1.63s0,2-2,2-1.66.27-1.67-1.62S70.18,313.17,72.15,313.18Z"/><path class="cls-28" d="M172.79,354.18c-1.88,0-1.62.26-1.64-1.64s0-2,2-2c1.67,0,1.59-.24,1.59,1.6C174.74,354.18,174.74,354.18,172.79,354.18Z"/><path class="cls-27" d="M126,354.18c-2.06,0-1.74.24-1.74-1.79s-.29-1.81,1.74-1.81,1.85-.27,1.87,1.81C127.92,354.18,127.91,354.18,126,354.18Z"/><path class="cls-24" d="M104.39,316.79c-2,0-1.72.28-1.72-1.69,0-2.21-.3-1.87,1.92-1.89,1.86,0,1.69-.18,1.68,1.64C106.25,317.1,106.58,316.76,104.39,316.79Z"/><path class="cls-28" d="M127.81,315.07c0,2,.25,1.73-1.68,1.74s-1.93,0-1.92-2c0-1.74-.23-1.55,1.59-1.57h.26C128.1,313.27,127.78,313.08,127.81,315.07Z"/><path class="cls-26" d="M73.92,362.66c-1.81,0-1.61.25-1.62-1.68s0-1.93,1.89-1.91,1.71-.26,1.71,1.73C75.89,363,76.16,362.62,73.92,362.66Z"/><path class="cls-28" d="M54.57,361.1c0,1.91.18,1.63-1.66,1.64s-1.94,0-1.93-1.87-.18-1.73,1.72-1.72C54.82,359.15,54.54,358.81,54.57,361.1Z"/><path class="cls-27" d="M41.94,361c0,1.93.28,1.69-1.72,1.7s-1.93,0-1.92-1.87-.23-1.73,1.7-1.72C42.26,359.15,41.9,358.87,41.94,361Z"/><path class="cls-31" d="M167.26,314.89c0-1.81-.21-1.63,1.67-1.62,2.21,0,1.9-.31,1.91,1.9,0,1.89.18,1.66-1.62,1.67C167.25,316.85,167.25,316.85,167.26,314.89Z"/><path class="cls-23" d="M338,356.64c0,2.05.23,1.82-1.74,1.83s-1.87,0-1.87-1.82,0-1.83,1.85-1.82C338.31,354.84,338,354.63,338,356.64Z"/><path class="cls-27" d="M325.36,356.7c0,2,.28,1.77-1.8,1.77s-1.81.28-1.81-1.87-.32-1.76,1.78-1.76S325.32,354.59,325.36,356.7Z"/><path class="cls-27" d="M189.94,315.13c0,1.94.28,1.66-1.71,1.68s-1.92,0-1.9-1.9-.26-1.71,1.72-1.7C190.25,313.23,189.9,312.92,189.94,315.13Z"/><path class="cls-23" d="M312.21,356.69c0,2.05.25,1.77-1.77,1.78s-1.83.24-1.83-1.86-.27-1.76,1.79-1.78C312.21,354.82,312.21,354.83,312.21,356.69Z"/><path class="cls-27" d="M303.82,356.73c0,1.91.27,1.75-1.71,1.74-2.22,0-1.9.3-1.9-1.91,0-1.95-.3-1.72,1.68-1.72C304.16,354.84,303.77,354.57,303.82,356.73Z"/><path class="cls-28" d="M228.89,315.12c0,2,.28,1.72-1.69,1.72-2.22,0-1.9.27-1.91-1.91,0-1.8-.24-1.66,1.65-1.67h.13C229.21,313.29,228.86,313,228.89,315.12Z"/><path class="cls-24" d="M293.44,358.47c-1.92,0-1.71.19-1.7-1.75,0-2.14-.3-1.89,1.82-1.88s1.74-.27,1.75,1.8S295.61,358.44,293.44,358.47Z"/><path class="cls-28" d="M256.64,315.07c0,2,.26,1.7-1.71,1.72s-1.91,0-1.9-1.91v-.13c0-1.64-.2-1.54,1.52-1.54h.26C256.94,313.24,256.61,312.93,256.64,315.07Z"/><path class="cls-27" d="M286.69,316.75c-1,0-2,0-2.94.06-.5,0-.68-.2-.66-.69,0-.76,0-1.53,0-2.3,0-.44.21-.61.63-.61l2.69,0A2.93,2.93,0,0,1,286.69,316.75Z"/><path class="cls-23" d="M286.6,354.83c2.16,0,1.86-.24,1.86,1.84s.24,1.8-1.77,1.8-1.86.3-1.86-1.85S284.54,354.87,286.6,354.83Z"/><path class="cls-23" d="M245.39,356.67c0,2,.22,1.8-1.78,1.8s-1.81.3-1.83-1.85c0-1.79,0-1.8,1.74-1.79C245.68,354.85,245.35,354.6,245.39,356.67Z"/><path class="cls-24" d="M75.9,352.35c0,2.06.27,1.79-1.75,1.81-1.85,0-1.86,0-1.85-1.82,0-2-.24-1.75,1.79-1.76S75.88,350.35,75.9,352.35Z"/><path class="cls-27" d="M89,356.73c0,2,.24,1.74-1.7,1.74-2.24,0-1.91.28-1.91-1.91,0-1.91-.29-1.71,1.7-1.72S89,354.83,89,356.73Z"/><path class="cls-28" d="M280.6,333.72c-2,0-1.74.25-1.73-1.7,0-2.17-.32-1.88,1.94-1.89,1.93,0,1.69-.15,1.68,1.64C282.48,334,282.81,333.69,280.6,333.72Z"/><path class="cls-28" d="M338,369.34c0,1.93.25,1.73-1.7,1.74s-1.91,0-1.9-1.9c0-1.69,0-1.69,1.74-1.68C338.35,367.51,338,367.29,338,369.34Z"/><path class="cls-23" d="M317.22,371.05c-2.05,0-1.75.3-1.76-1.78s-.25-1.81,1.86-1.82,1.78-.24,1.77,1.79S319.39,371,317.22,371.05Z"/><path class="cls-28" d="M312.21,369.29c0,1.79,0,1.8-1.76,1.79-2.15,0-1.84.24-1.84-1.85,0-1.89-.28-1.72,1.71-1.74h.13C312.21,367.49,312.21,367.49,312.21,369.29Z"/><path class="cls-28" d="M288.47,369.22c0,2.1.3,1.86-1.86,1.86s-1.77.3-1.78-1.78-.28-1.78,1.78-1.81h.13C288.74,367.51,288.44,367.34,288.47,369.22Z"/><path class="cls-31" d="M269.92,367.5c1.82,0,1.62-.21,1.63,1.67s0,1.92-1.91,1.91-1.68.25-1.67-1.73C268,367.21,267.66,367.53,269.92,367.5Z"/><path class="cls-28" d="M261,369.22c0-1.94-.27-1.72,1.71-1.72,2.22,0,1.86-.25,1.9,1.93v.38c0,1.26,0,1.26-1.27,1.27h-.52C261,371.08,261,371.08,261,369.22Z"/><path class="cls-27" d="M89,352.46c0,2,.28,1.7-1.68,1.72s-2,0-1.94-2c0-1.72-.24-1.61,1.56-1.61h.13C89.28,350.61,88.94,350.27,89,352.46Z"/><path class="cls-28" d="M243.53,367.49c2.17,0,1.84-.21,1.85,1.86,0,1.92.26,1.72-1.71,1.73s-1.91,0-1.89-1.91S241.5,367.52,243.53,367.49Z"/><path class="cls-31" d="M221.92,369.32c0,2.05.28,1.75-1.77,1.75s-1.81.29-1.81-1.86c0-1.94-.22-1.71,1.71-1.71C222.2,367.51,221.89,367.23,221.92,369.32Z"/><path class="cls-27" d="M57.53,319.15c0-2-.27-1.78,1.77-1.78s1.83-.24,1.84,1.85.3,1.77-1.78,1.78C57.52,321,57.52,321,57.53,319.15Z"/><path class="cls-28" d="M106.54,354.83c1.95,0,1.76-.25,1.75,1.7,0,2.27.26,1.93-1.9,1.94-1.83,0-1.68.23-1.69-1.64v-.13C104.74,354.53,104.4,354.87,106.54,354.83Z"/><path class="cls-31" d="M102,319.26c0,1.79,0,1.8-1.78,1.79-2,0-1.77.26-1.77-1.8s-.23-1.76,1.79-1.78C102,317.45,102,317.47,102,319.26Z"/><path class="cls-23" d="M121.8,317.46c2,0,1.74-.28,1.75,1.81s.25,1.82-1.87,1.83-1.77.23-1.76-1.81S119.63,317.49,121.8,317.46Z"/><path class="cls-27" d="M134.5,317.47c2,0,1.71-.24,1.71,1.7,0,2.23.32,1.92-1.88,1.93-2,0-1.73.18-1.72-1.71C132.62,317.21,132.25,317.5,134.5,317.47Z"/><path class="cls-28" d="M185.55,371.08c-2.05,0-1.78.22-1.78-1.8s-.29-1.78,1.79-1.78,1.84-.26,1.84,1.87S187.67,371.05,185.55,371.08Z"/><path class="cls-27" d="M154.13,317.47c2,0,1.74-.19,1.74,1.69,0,2.24.35,1.93-2,1.94-1.79,0-1.59.18-1.6-1.57v-.26C152.26,317.47,152.26,317.47,154.13,317.47Z"/><path class="cls-28" d="M169.12,317.46c1.94,0,1.72-.23,1.72,1.74,0,2.23.25,1.89-1.94,1.9-1.82,0-1.63.22-1.65-1.68v-.13C167.25,317.46,167.25,317.46,169.12,317.46Z"/><path class="cls-23" d="M181.77,317.46c2,0,1.72-.25,1.74,1.69s0,2-2,2c-1.75,0-1.63.19-1.63-1.56v-.13C179.9,317.2,179.55,317.49,181.77,317.46Z"/><path class="cls-27" d="M189.94,319.34c0,2,.25,1.76-1.8,1.76s-1.81.24-1.81-1.88-.3-1.76,1.8-1.75S189.9,317.19,189.94,319.34Z"/><path class="cls-23" d="M220.17,317.46c2,0,1.7-.25,1.71,1.7s0,1.95-2,1.94c-1.74,0-1.6.16-1.61-1.58v-.12C218.32,317.21,218,317.49,220.17,317.46Z"/><path class="cls-23" d="M227.16,317.46c1.73,0,1.73,0,1.73,1.68,0,2,0,2-2,2-1.73,0-1.62.19-1.62-1.56v-.26C225.32,317.23,225,317.49,227.16,317.46Z"/><path class="cls-31" d="M172.77,371.08c-1.85,0-1.6.24-1.62-1.66s0-1.93,1.89-1.92,1.7-.22,1.69,1.73C174.73,371.39,175,371,172.77,371.08Z"/><path class="cls-27" d="M241.59,319.25c0,1.85,0,1.86-1.84,1.85-2.06,0-1.78.22-1.77-1.79s-.33-1.84,1.84-1.84S241.55,317.21,241.59,319.25Z"/><path class="cls-28" d="M248.24,319.25c0,2,.28,1.81-1.78,1.8s-1.82.27-1.82-1.86-.28-1.69,1.68-1.73h.13C248.5,317.48,248.21,317.25,248.24,319.25Z"/><path class="cls-23" d="M280.69,321.11c-2.07,0-1.83.28-1.83-1.88s-.29-1.75,1.79-1.76,1.84-.25,1.84,1.85S282.74,321.08,280.69,321.11Z"/><path class="cls-28" d="M134.53,371.08c-1.76,0-1.76,0-1.76-1.79s0-1.8,1.76-1.79c2.16,0,1.83-.22,1.84,1.86S136.64,371.06,134.53,371.08Z"/><path class="cls-27" d="M61.14,323.44c0,2.06.29,1.81-1.87,1.81-2,0-1.73.23-1.74-1.68s0-1.93,1.86-1.91C61.45,321.67,61.1,321.41,61.14,323.44Z"/><path class="cls-23" d="M65.93,323.29c0-1.85-.21-1.63,1.68-1.64s1.94,0,1.92,1.89.24,1.71-1.72,1.71C65.65,325.25,66,325.53,65.93,323.29Z"/><path class="cls-28" d="M132.12,369.34c0,2,.26,1.74-1.69,1.74-2.26,0-1.94.29-2-1.89,0-1.81-.26-1.69,1.64-1.7h.13C132.4,367.53,132.09,367.23,132.12,369.34Z"/><path class="cls-28" d="M119.21,354.83c2,0,1.74-.26,1.74,1.69,0,2.26.29,1.94-1.89,2-1.81,0-1.69.26-1.69-1.64v-.13C117.4,354.55,117.1,354.87,119.21,354.83Z"/><path class="cls-27" d="M126.05,358.47c-2,0-1.75.21-1.75-1.81s-.34-1.81,1.86-1.82c1.75,0,1.76,0,1.75,1.79C127.89,358.74,128.21,358.44,126.05,358.47Z"/><path class="cls-31" d="M117.37,369.15v-.39c0-1.25,0-1.25,1.27-1.26,2.33,0,2.33,0,2.32,2.26,0,.22,0,.43,0,.65,0,.49-.19.69-.68.67a20.24,20.24,0,0,0-2.06,0c-.71.05-.91-.28-.85-.91C117.39,369.84,117.37,369.49,117.37,369.15Z"/><path class="cls-31" d="M106.61,367.5c1.87,0,1.69-.21,1.68,1.62,0,2.29.31,1.94-2,1.95-1.8,0-1.58.22-1.6-1.54v-.12C104.71,367.5,104.71,367.5,106.61,367.5Z"/><path class="cls-26" d="M102.66,323.43c0-2-.24-1.73,1.7-1.73,2.2,0,1.89-.32,1.9,1.92,0,1.9.18,1.65-1.64,1.67h-.13C102.66,325.29,102.66,325.29,102.66,323.43Z"/><path class="cls-27" d="M353.64,365c0-2-.22-1.72,1.69-1.71,2.19,0,1.91-.33,1.91,1.89,0,2,.22,1.7-1.7,1.71S353.64,366.87,353.64,365Z"/><path class="cls-28" d="M271.55,356.64c0,2.15.21,1.82-1.89,1.83-1.89,0-1.69.24-1.7-1.75s0-1.9,1.81-1.88C271.77,354.85,271.52,354.56,271.55,356.64Z"/><path class="cls-27" d="M336.24,366.9c-1.8,0-1.81,0-1.8-1.87,0-2.08-.24-1.76,1.78-1.76s1.82-.3,1.81,1.86S338.3,366.87,336.24,366.9Z"/><path class="cls-27" d="M312.21,365.08c0,2.1.28,1.79-1.74,1.79-2.18,0-1.85.31-1.86-1.93,0-1.92-.17-1.66,1.62-1.68h.12C312.47,363.3,312.18,362.94,312.21,365.08Z"/><path class="cls-28" d="M295.32,365.15c0,2,.26,1.72-1.7,1.72-2.2,0-1.87.31-1.88-1.94,0-1.9-.18-1.66,1.64-1.67S295.32,363.26,295.32,365.15Z"/><path class="cls-27" d="M288.47,365.06c0,2.1.28,1.81-1.88,1.81-2,0-1.75.31-1.76-1.78s-.24-1.82,1.87-1.82S288.44,363,288.47,365.06Z"/><path class="cls-27" d="M262.79,366.9c-1.8,0-1.82,0-1.8-1.87,0-2.08-.24-1.76,1.78-1.76s1.82-.3,1.81,1.86S264.85,366.87,262.79,366.9Z"/><path class="cls-27" d="M224.37,363.26c2,0,1.81-.28,1.8,1.76s.28,1.83-1.83,1.85c-1.8,0-1.81,0-1.8-1.74C222.56,362.93,222.3,363.3,224.37,363.26Z"/><path class="cls-27" d="M347,354.18c-2.08,0-1.78.24-1.78-1.75s-.31-1.85,1.83-1.85,1.76-.25,1.78,1.77C348.79,354.18,348.78,354.18,347,354.18Z"/><path class="cls-26" d="M121,365.14c0,1.76,0,1.76-1.78,1.76s-1.82,0-1.81-1.87c0-2.11-.17-1.76,1.79-1.76S120.93,362.94,121,365.14Z"/><path class="cls-26" d="M108.3,365.08c0,2.1.24,1.79-1.74,1.81s-1.87,0-1.85-1.8c0-2.15-.24-1.82,1.85-1.82C108.48,363.27,108.28,362.93,108.3,365.08Z"/><path class="cls-28" d="M336.22,354.22c-2.09,0-1.76.28-1.78-1.77,0-1.82,0-1.83,1.86-1.82s1.74-.16,1.74,1.7C338,354.46,338.33,354.19,336.22,354.22Z"/><path class="cls-28" d="M112.82,329.51c-2,0-1.73.25-1.72-1.72,0-2.22-.28-1.88,1.92-1.89,1.85,0,1.63-.25,1.65,1.65v.13C114.67,329.51,114.67,329.51,112.82,329.51Z"/><path class="cls-27" d="M121.72,329.51c-2,0-1.8.26-1.8-1.76s-.24-1.85,1.84-1.85,1.78-.31,1.79,1.76C123.56,329.51,123.56,329.51,121.72,329.51Z"/><path class="cls-27" d="M317.23,354.16c-2,0-1.77.31-1.77-1.77s-.25-1.83,1.84-1.84,1.78-.28,1.79,1.77C319.1,354.16,319.09,354.16,317.23,354.16Z"/><path class="cls-26" d="M169,329.53c-2,0-1.71.27-1.72-1.69s0-2,2-1.95c1.67,0,1.59-.3,1.6,1.57v.26C170.81,329.85,171.1,329.49,169,329.53Z"/><path class="cls-27" d="M221.89,327.75c0,1.78,0,1.78-1.76,1.78s-1.86,0-1.85-1.85c0-2.07-.22-1.77,1.78-1.79C221.89,325.88,221.89,325.89,221.89,327.75Z"/><path class="cls-27" d="M225.29,327.67c0-2.06-.22-1.76,1.79-1.78,1.81,0,1.81,0,1.81,1.87s0,1.77-1.76,1.77S225.29,329.53,225.29,327.67Z"/><path class="cls-28" d="M284.18,352.37c0,1.81,0,1.82-1.85,1.81s-1.7.27-1.7-1.71c0-2.18-.23-1.89,1.79-1.89S284.15,350.32,284.18,352.37Z"/><path class="cls-27" d="M272.17,352.31c0-2-.24-1.73,1.69-1.73,2.25,0,1.91-.27,1.92,1.89,0,1.93.28,1.69-1.7,1.71S272.17,354.18,272.17,352.31Z"/><path class="cls-27" d="M168.33,356.71c0,2,.29,1.76-1.81,1.76s-1.79.26-1.8-1.76,0-1.89,1.93-1.87S168.3,354.64,168.33,356.71Z"/><path class="cls-27" d="M317.19,362.66c-1.92,0-1.72.28-1.73-1.7s0-1.93,1.89-1.92,1.74-.24,1.74,1.69C319.08,363,319.37,362.62,317.19,362.66Z"/><path class="cls-27" d="M312.21,360.92c0,2,.22,1.73-1.68,1.73-2.19,0-1.92.32-1.92-1.88,0-2-.23-1.71,1.69-1.73S312.21,359,312.21,360.92Z"/><path class="cls-28" d="M44.18,330.13c2.18,0,1.87-.22,1.87,1.83s.26,1.76-1.81,1.75-1.75.29-1.79-1.75v-.13C42.48,329.91,42.18,330.15,44.18,330.13Z"/><path class="cls-28" d="M171.15,356.58c0-2-.28-1.74,1.81-1.74s1.77-.28,1.77,1.8.23,1.82-1.88,1.83C170.92,358.47,171.17,358.72,171.15,356.58Z"/><path class="cls-28" d="M54.48,332.08c0,1.87.26,1.62-1.65,1.63s-2,0-1.95-2c0-1.68-.23-1.58,1.61-1.58S54.48,330.12,54.48,332.08Z"/><path class="cls-27" d="M69.53,331.94c0,1.74,0,1.75-1.79,1.74-2.07,0-1.8.26-1.8-1.75,0-2.18-.25-1.88,1.81-1.88s1.76-.32,1.78,1.76Z"/><path class="cls-27" d="M72,330c2.08,0,1.83-.29,1.83,1.88,0,2,.27,1.74-1.81,1.76-1.82,0-1.83,0-1.82-1.87C70.2,329.73,70,330.08,72,330Z"/><path class="cls-31" d="M260.39,352.39c0,2.11.24,1.82-1.87,1.82s-1.72.26-1.71-1.68c0-2.17-.33-1.89,1.91-1.89C260.62,350.63,260.36,350.42,260.39,352.39Z"/><path class="cls-28" d="M125.94,330.13c2.18,0,1.86-.21,1.87,1.84s.25,1.73-1.7,1.74-1.92,0-1.9-1.89S123.93,330.15,125.94,330.13Z"/><path class="cls-23" d="M187.4,356.6c0,2.16.24,1.86-1.83,1.87s-1.81.23-1.8-1.78-.31-1.86,1.84-1.85S187.37,354.55,187.4,356.6Z"/><path class="cls-28" d="M295.32,360.92c0,2,.24,1.72-1.7,1.73s-1.9,0-1.89-1.94-.2-1.66,1.65-1.67S295.32,359,295.32,360.92Z"/><path class="cls-28" d="M190.35,356.47c0-1.88-.23-1.62,1.68-1.63s1.92,0,1.91,1.92.16,1.71-1.74,1.71c-2.09,0-1.82.3-1.85-1.87Z"/><path class="cls-28" d="M206.61,356.7c0,2,.2,1.77-1.81,1.77s-1.78.28-1.78-1.81-.25-1.82,1.89-1.82C206.89,354.84,206.57,354.56,206.61,356.7Z"/><path class="cls-31" d="M169,333.71c-2,0-1.73.28-1.74-1.79s-.28-1.79,1.76-1.79,1.81-.26,1.82,1.87S171.06,333.68,169,333.71Z"/><path class="cls-27" d="M286.72,359c2,0,1.74-.25,1.74,1.82s.23,1.79-1.76,1.79-1.87.33-1.87-1.82S284.55,359.08,286.72,359Z"/><path class="cls-31" d="M194.15,332c0,2.05.28,1.75-1.78,1.76s-1.8.29-1.8-1.87c0-1.94-.22-1.71,1.71-1.71C194.43,330.14,194.12,329.86,194.15,332Z"/><path class="cls-26" d="M196.64,330.13c2.13,0,1.79-.19,1.79,1.75s.34,1.83-1.84,1.83-1.76.29-1.78-1.74C194.79,330.13,194.8,330.13,196.64,330.13Z"/><path class="cls-27" d="M213.49,356.68c0,2,.28,1.78-1.77,1.79-1.84,0-1.86,0-1.84-1.85,0-2-.31-1.78,1.77-1.78S213.45,354.59,213.49,356.68Z"/><path class="cls-28" d="M221.89,331.85c0,1.87,0,1.87-1.81,1.86-2.06,0-1.8.22-1.79-1.77s-.29-1.8,1.76-1.81h.13C222.16,330.15,221.86,329.91,221.89,331.85Z"/><path class="cls-28" d="M228.89,331.93c0,1.79,0,1.8-1.76,1.78-2.14,0-1.83.25-1.84-1.85,0-1.88-.28-1.72,1.72-1.73h.13C228.89,330.13,228.89,330.13,228.89,331.93Z"/><path class="cls-27" d="M232.7,356.72c0,2,.28,1.75-1.82,1.75s-1.78.26-1.79-1.76,0-1.89,1.93-1.87S232.66,354.64,232.7,356.72Z"/><path class="cls-28" d="M239.37,350.58c2,0,1.76-.26,1.75,1.81s.29,1.76-1.75,1.79c-1.83,0-1.84,0-1.83-1.86C237.55,350.28,237.37,350.61,239.37,350.58Z"/><path class="cls-23" d="M262.74,354.83c2.15,0,1.84-.23,1.85,1.85s.23,1.79-1.78,1.79-1.8.3-1.82-1.85C261,354.83,261,354.83,262.74,354.83Z"/><path class="cls-27" d="M235.2,354.18c-1.9,0-1.91,0-1.9-1.9s-.26-1.71,1.73-1.7c2.2,0,1.88-.3,1.88,1.91C236.91,354.44,237.2,354.15,235.2,354.18Z"/><path class="cls-26" d="M215.86,371.08c-2.09,0-1.76.21-1.78-1.76,0-1.82,0-1.83,1.85-1.82,2.1,0,1.76-.21,1.78,1.76S217.71,371.08,215.86,371.08Z"/><path class="cls-28" d="M232.7,369.44c0,1.8.26,1.63-1.68,1.64s-2,0-1.93-1.88-.3-1.69,1.73-1.7C232.7,367.49,232.7,367.49,232.7,369.44Z"/><path class="cls-26" d="M250.07,371.08c-2.08,0-1.76.25-1.78-1.76,0-1.82,0-1.83,1.85-1.82,2.12,0,1.78-.18,1.78,1.76S252.26,371.05,250.07,371.08Z"/><path class="cls-26" d="M278.1,371.08c-2,0-1.74.19-1.73-1.68,0-2.14-.37-1.9,1.9-1.9,2,0,1.71-.19,1.73,1.69S280,371.08,278.1,371.08Z"/><path class="cls-31" d="M295.31,369.22c0,2.14.33,1.83-1.8,1.86H293c-1.26,0-1.26,0-1.27-1.26,0-2.34,0-2.34,2.27-2.32h.39c.9,0,.9,0,.92.95C295.32,368.7,295.31,369,295.31,369.22Z"/><path class="cls-23" d="M82.75,316.79c-1.9,0-1.71.29-1.71-1.71,0-2.17-.22-1.86,1.81-1.87s1.78-.26,1.77,1.79S84.9,316.75,82.75,316.79Z"/><path class="cls-23" d="M88.83,315.16c0,1.93.14,1.61-1.68,1.63s-1.88,0-1.87-1.93-.2-1.65,1.66-1.65C89.08,313.22,88.8,312.88,88.83,315.16Z"/><path class="cls-26" d="M132,315.2c0,1.79.25,1.6-1.55,1.61-2.09,0-2.1,0-2.09-2.11,0-1.48-.24-1.44,1.49-1.44h.26C132,313.26,132,313.26,132,315.2Z"/><path class="cls-28" d="M143.18,315.1c0,1.93.29,1.74-1.7,1.75s-1.93,0-1.91-1.91-.32-1.67,1.62-1.68h.13C143.18,313.26,143.18,313.26,143.18,315.1Z"/><path class="cls-28" d="M155.88,315.05c0,2,.3,1.78-1.78,1.8-1.84,0-1.86,0-1.84-1.85s-.3-1.72,1.7-1.74h.13C156.21,313.28,155.84,313.08,155.88,315.05Z"/><path class="cls-28" d="M173.28,316.85c-1.82,0-1.83,0-1.81-1.87s-.3-1.72,1.72-1.72c2.25,0,1.88-.21,1.88,1.81S175.38,316.83,173.28,316.85Z"/><path class="cls-28" d="M179.28,315.14c0,1.92.28,1.71-1.73,1.7-2.25,0-1.87.28-1.88-1.93,0-1.77-.31-1.64,1.65-1.65h.13C179.62,313.29,179.23,313,179.28,315.14Z"/><path class="cls-28" d="M213.49,315c0,2.08.34,1.82-1.86,1.84-1.75,0-1.77,0-1.75-1.81,0-2-.32-1.76,1.79-1.78h.12C213.82,313.28,213.45,313.11,213.49,315Z"/><path class="cls-26" d="M215.81,316.85c-2,0-1.74.19-1.73-1.69,0-2.14-.38-1.89,1.9-1.89,2,0,1.71-.2,1.73,1.68S217.71,316.85,215.81,316.85Z"/><path class="cls-28" d="M241.59,315.13c0,1.95.29,1.71-1.71,1.71-2.26,0-1.89.27-1.9-1.92,0-1.77-.31-1.65,1.65-1.66h.13C241.93,313.29,241.55,313,241.59,315.13Z"/><path class="cls-28" d="M303.82,369.23c0,2.1.32,1.85-1.86,1.85s-1.75.26-1.75-1.79-.33-1.77,1.77-1.8h.13C304.14,367.51,303.78,367.34,303.82,369.23Z"/><path class="cls-28" d="M325.36,369.25c0,2.07.33,1.83-1.88,1.83-2,0-1.72.25-1.74-1.68s0-1.91,1.93-1.9S325.32,367.34,325.36,369.25Z"/><path class="cls-28" d="M347,371.08c-2.2,0-1.86.25-1.86-1.84,0-1.9-.33-1.73,1.69-1.74s1.94,0,1.92,1.91S349.07,371.05,347,371.08Z"/><path class="cls-28" d="M172.91,359c1.83,0,1.83,0,1.83,1.88,0,2.07.14,1.73-1.71,1.73-2.15,0-1.87.35-1.88-1.94C171.15,358.75,170.93,359.08,172.91,359Z"/><path class="cls-28" d="M202.4,352.47c0,2,.28,1.69-1.7,1.71s-1.93,0-1.92-1.89-.31-1.65,1.64-1.66h.13C202.4,350.63,202.4,350.63,202.4,352.47Z"/><path class="cls-23" d="M76.8,319.23c0-2-.3-1.76,1.79-1.76s1.78-.24,1.8,1.75c0,1.83,0,1.84-1.85,1.83C76.44,321,76.84,321.21,76.8,319.23Z"/><path class="cls-23" d="M84.62,323.6c0,2,.17,1.67-1.75,1.69s-1.85,0-1.84-1.85c0-2.06-.15-1.74,1.69-1.74C84.91,321.71,84.59,321.35,84.62,323.6Z"/><path class="cls-23" d="M85.27,323.42c0-2-.24-1.7,1.71-1.72s1.86,0,1.85,1.86c0,2.06.15,1.71-1.72,1.73S85.27,325.29,85.27,323.42Z"/><path class="cls-28" d="M169.2,321.7c1.77,0,1.64-.29,1.65,1.66s0,2-2,1.95c-1.72,0-1.56.25-1.58-1.6v-.13C167.25,321.69,167.25,321.69,169.2,321.7Z"/><path class="cls-28" d="M278.21,327.79c0,2,.25,1.71-1.7,1.71s-1.85.34-1.85-1.82-.18-1.78,1.77-1.78S278.17,325.57,278.21,327.79Z"/><path class="cls-26" d="M48.43,333.71c-2.09,0-1.76.23-1.78-1.76,0-1.82,0-1.83,1.85-1.82,2.11,0,1.76-.19,1.78,1.77S50.29,333.72,48.43,333.71Z"/><path class="cls-26" d="M130.12,333.71c-2,0-1.72.22-1.71-1.69,0-2.14-.37-1.88,1.91-1.89,2,0,1.7-.17,1.72,1.7S132,333.72,130.12,333.71Z"/><path class="cls-28" d="M143.18,332c0,1.93.29,1.73-1.69,1.74s-1.94,0-1.92-1.89-.33-1.68,1.75-1.69C143.18,330.12,143.18,330.13,143.18,332Z"/><path class="cls-28" d="M155.88,332c0,1.92.28,1.73-1.7,1.74s-1.94,0-1.92-1.89-.3-1.68,1.75-1.69C155.88,330.12,155.88,330.13,155.88,332Z"/><path class="cls-28" d="M202.64,332c0,1.94.29,1.75-1.69,1.74-2.28,0-1.92.28-1.92-1.9,0-1.79-.33-1.67,1.62-1.68h.13C202.64,330.13,202.64,330.13,202.64,332Z"/><path class="cls-28" d="M239.81,330.13c2.11,0,1.77-.21,1.77,1.79s.33,1.77-1.75,1.79c-1.86,0-1.86,0-1.86-1.85S238,330.13,239.81,330.13Z"/><path class="cls-26" d="M51,356.68c0-2.08-.23-1.74,1.78-1.76,1.81,0,1.82,0,1.81,1.86,0,2.1.18,1.76-1.79,1.76S51,358.88,51,356.68Z"/><path class="cls-28" d="M67.44,356.59c0,1.83,0,1.84-1.88,1.83-2.07,0-1.72.14-1.74-1.7s0-1.9,1.95-1.88S67.4,354.61,67.44,356.59Z"/><path class="cls-26" d="M138.7,371.08c-2,0-1.71.22-1.73-1.68s0-1.91,1.9-1.9,1.73-.16,1.73,1.68C140.59,371.36,141,371.05,138.7,371.08Z"/><path class="cls-26" d="M112.55,352.5c0,1.9.29,1.7-1.7,1.71s-1.95,0-1.93-2c0-1.72-.26-1.59,1.56-1.6h.26C112.55,350.63,112.55,350.63,112.55,352.5Z"/><path class="cls-28" d="M115,350.63c2.11,0,1.77-.21,1.77,1.79s.33,1.77-1.75,1.79c-1.86,0-1.86,0-1.86-1.85S113.13,350.63,115,350.63Z"/><path class="cls-28" d="M106.48,359.06c1.82,0,1.82,0,1.81,1.89,0,2.05.16,1.72-1.71,1.72-2.12,0-1.87.34-1.87-1.81S104.47,359.1,106.48,359.06Z"/><path class="cls-28" d="M153.78,354.22c-2.08,0-1.75.23-1.75-1.81s-.34-1.77,1.78-1.78c1.83,0,1.84,0,1.82,1.88S155.94,354.19,153.78,354.22Z"/><path class="cls-31" d="M159.83,352.44c0,2,.31,1.76-1.76,1.77s-1.81.25-1.81-1.86c0-1.86-.29-1.71,1.71-1.72S159.83,350.63,159.83,352.44Z"/><path class="cls-28" d="M119.11,362.68c-1.9,0-1.73.32-1.74-1.71s0-1.92,1.92-1.9,1.65-.28,1.67,1.63v.13C121,362.68,121,362.68,119.11,362.68Z"/><path class="cls-26" d="M196.31,354.18c-1.75,0-1.76,0-1.74-1.81s-.3-1.73,1.69-1.74,2,0,1.94,1.89.28,1.64-1.63,1.66Z"/><path class="cls-28" d="M192.12,362.68c-2,0-1.76.3-1.76-1.8s-.26-1.8,1.87-1.81c1.88,0,1.71-.32,1.71,1.73C193.94,363,194.15,362.63,192.12,362.68Z"/><path class="cls-28" d="M204.75,362.68c-1.89,0-1.72.32-1.73-1.72s0-1.91,1.93-1.89,1.64-.28,1.66,1.64v.13C206.58,363,206.86,362.64,204.75,362.68Z"/><path class="cls-28" d="M220.06,362.68c-1.89,0-1.72.32-1.73-1.72s0-1.91,1.93-1.89,1.64-.28,1.66,1.64v.13C221.89,363,222.17,362.64,220.06,362.68Z"/><path class="cls-28" d="M239.42,359c1.94,0,1.7-.28,1.7,1.72,0,2.25.27,1.88-1.93,1.89-1.77,0-1.64.3-1.65-1.66v-.13C237.56,358.7,237.3,359.08,239.42,359Z"/><path class="cls-28" d="M260.39,360.81c0,1.87,0,1.88-1.84,1.87s-1.75.3-1.75-1.82-.23-1.76,1.76-1.8h.13C260.55,359.1,260.37,358.75,260.39,360.81Z"/><path class="cls-28" d="M271.55,360.84c0,2.15.19,1.81-1.76,1.81S268,363,268,360.78c0-2-.24-1.7,1.69-1.74h.12C271.75,359.08,271.53,358.72,271.55,360.84Z"/><path class="cls-28" d="M252.51,352.36c0-1.88-.33-1.72,1.71-1.73s1.92,0,1.9,1.93.27,1.63-1.64,1.66h-.13C252.18,354.19,252.55,354.46,252.51,352.36Z"/><path class="cls-28" d="M321.74,352.35c0-1.92-.29-1.71,1.72-1.72s1.91,0,1.89,1.94.27,1.63-1.66,1.65h-.13C321.74,354.22,321.74,354.22,321.74,352.35Z"/><path class="cls-28" d="M173,366.87c-1.82,0-1.83,0-1.82-1.87,0-2-.18-1.72,1.7-1.74s1.9,0,1.89,1.94S174.9,366.84,173,366.87Z"/><path class="cls-28" d="M194,365c0,1.84,0,1.86-1.86,1.84s-1.73.29-1.73-1.69c0-2.26-.27-1.91,1.91-1.91C194.09,363.26,193.93,363,194,365Z"/><path class="cls-28" d="M206.61,365.15c0,2,.23,1.72-1.71,1.72-2.11,0-1.87.34-1.88-1.82s-.18-1.78,1.78-1.78S206.58,362.94,206.61,365.15Z"/><path class="cls-28" d="M54.57,352.53c0,1.82,0,1.84-1.88,1.82s-1.7.29-1.71-1.73,0-1.9,1.81-1.88C54.77,350.76,54.55,350.42,54.57,352.53Z"/><path class="cls-28" d="M269.7,366.87c-2,0-1.74.29-1.74-1.68,0-2.27-.27-1.92,1.9-1.92,1.78,0,1.68-.33,1.69,1.62V365C271.55,366.87,271.55,366.87,269.7,366.87Z"/><path class="cls-28" d="M286.71,333.63a21,21,0,0,1-3,.08c-.51,0-.68-.22-.66-.7.1-3.55-.65-2.78,2.75-2.88a1.77,1.77,0,0,1,.88.13A3.33,3.33,0,0,1,286.71,333.63Z"/><path class="cls-31" d="M95.65,371.08c-2.09,0-1.76.25-1.78-1.74,0-1.84,0-1.85,1.83-1.84,2,0,1.72-.17,1.74,1.68v.13C97.42,371.3,97.7,371.06,95.65,371.08Z"/><path class="cls-28" d="M155.64,369.33c0,2,.3,1.75-1.82,1.75s-1.78.24-1.8-1.76c0-1.83,0-1.83,1.88-1.82C156,367.51,155.59,367.32,155.64,369.33Z"/><path class="cls-26" d="M198.2,369.25c0,1.83,0,1.85-1.85,1.83-2.09,0-1.76.25-1.78-1.75,0-1.83,0-1.84,1.84-1.83C198.53,367.51,198.16,367.31,198.2,369.25Z"/><path class="cls-28" d="M202.4,369.37c0,1.94.28,1.71-1.71,1.71-2.26,0-1.89.26-1.9-1.93,0-1.77-.31-1.65,1.65-1.66h.13C202.73,367.52,202.36,367.25,202.4,369.37Z"/><path class="cls-32" d="M72.3,369.32c0-2.06-.31-1.76,1.78-1.76s1.82-.24,1.82,1.76.26,1.76-1.82,1.75S72.34,371.37,72.3,369.32Z"/><path class="cls-31" d="M71.65,352.35c0,1.81,0,1.82-1.87,1.8s-1.65.28-1.67-1.61,0-2,2-2C71.84,350.59,71.63,350.41,71.65,352.35Z"/><path class="cls-33" d="M254.81,333.71c-2.09,0-1.77.21-1.78-1.8s-.29-1.71,1.72-1.73,1.91,0,1.89,1.8C256.62,334,256.94,333.68,254.81,333.71Z"/><path class="cls-31" d="M82.87,333.71c-2.1,0-1.82.29-1.83-1.86,0-1.89-.18-1.65,1.64-1.67s2,0,1.94,2C84.61,334,84.84,333.68,82.87,333.71Z"/><path class="cls-32" d="M69.88,359.06c2,0,1.76-.3,1.76,1.8s.21,1.79-1.76,1.79-1.77.3-1.76-1.79S67.88,359.1,69.88,359.06Z"/><path class="cls-32" d="M248.85,332c0-2-.3-1.76,1.8-1.76s1.79-.22,1.79,1.76.31,1.76-1.79,1.76S248.89,333.93,248.85,332Z"/><path class="cls-33" d="M260.85,327.77c0,2,.24,1.71-1.7,1.73s-1.84,0-1.83-1.86c0-2-.19-1.75,1.7-1.74C261.09,325.91,260.82,325.56,260.85,327.77Z"/><path class="cls-32" d="M104.47,330.18c2.06,0,1.79-.22,1.79,1.79s.27,1.73-1.83,1.74c-1.76,0-1.78,0-1.76-1.78C102.69,329.9,102.37,330.22,104.47,330.18Z"/><path class="cls-33" d="M108.59,333.71c-2,0-1.71.22-1.73-1.71s0-1.83,1.88-1.82c2,0,1.73-.2,1.73,1.71C110.46,334,110.81,333.68,108.59,333.71Z"/><path class="cls-31" d="M88.83,331.93c0,2.06.22,1.78-1.78,1.78S85.3,334,85.28,332c0-1.78,0-1.79,1.74-1.78C89.06,330.2,88.8,329.91,88.83,331.93Z"/><path class="cls-34" d="M79.16,217c0,1.08,0,2.16,0,3.23,0,.7-.41.73-.93.74s-.79-.2-.78-.75c0-2.11,0-4.22,0-6.33,0-.71.43-.71.94-.72s.79.16.78.73C79.15,215,79.16,216,79.16,217Z"/><path class="cls-29" d="M71.64,369.33c0,2,.28,1.74-1.81,1.74s-1.71.27-1.71-1.71-.29-1.78,1.74-1.8C71.64,367.54,71.64,367.55,71.64,369.33Z"/><path class="cls-35" d="M181.37,187c1.11-.22,1.12-.23,1.56.71.27.58.53,1.17.84,1.83.58-.35.61-1,.87-1.4s.35-.8.6-1.14a.41.41,0,0,1,.75.22c0,1.11,0,2.23,0,3.35a.28.28,0,0,1-.32.31.34.34,0,0,1-.33-.33c0-.51-.06-1-.1-1.74a8.64,8.64,0,0,0-1,1.77c-.25.42-.53.43-.77,0s-.56-1.13-.84-1.69l-.25,0c0,.45,0,.89,0,1.34,0,.24,0,.59-.34.57s-.32-.36-.33-.62c0-.6,0-1.2,0-1.8,0-.42.09-.88-.35-1.18A.18.18,0,0,1,181.37,187Z"/><path class="cls-36" d="M206.26,367.49,203,370.73v-2.68a.49.49,0,0,1,.55-.56Z"/><path class="cls-36" d="M41.86,333.67l-3.38-3.43a11.83,11.83,0,0,1,2.91-.11c.39,0,.47.29.47.62C41.87,331.64,41.86,332.52,41.86,333.67Z"/><path class="cls-36" d="M194,370.87l-3.38-3.38c1,0,2,0,2.93,0,.31,0,.45.23.45.52Z"/><path class="cls-37" d="M234.1,325.88c.86,0,1.72,0,2.58,0,.48,0,.71.17.7.67a11.48,11.48,0,0,1-.25,2.79L234,326.15Z"/><path class="cls-37" d="M80,362.41c-.15.16-.18.21-.21.21-4,0-3.21.8-3.19-3.31.8.25,1.17,1,1.71,1.45S79.37,361.83,80,362.41Z"/><path class="cls-38" d="M183.17,366.69l-3.36-3.28a11.14,11.14,0,0,1,2.92-.14c.32,0,.44.22.44.51Z"/><path class="cls-39" d="M353.64,370.64c0-.74,0-1.63,0-2.52,0-.42.16-.63.6-.63h2.65Z"/><path class="cls-40" d="M50.23,367.6l-3.42,3.46a12.61,12.61,0,0,1-.09-3.11c0-.33.34-.34.6-.34Z"/><path class="cls-40" d="M312,354.18h-2.8c-.35,0-.59-.12-.59-.51v-2.74Z"/><path class="cls-38" d="M244.81,321.7h2.88c.38,0,.55.19.55.55V325A11.56,11.56,0,0,1,244.81,321.7Z"/><path class="cls-41" d="M233.78,321.94l3.43,3.2a10.51,10.51,0,0,1-3,.16c-.32,0-.45-.21-.45-.51C233.77,323.86,233.78,322.93,233.78,321.94Z"/><path class="cls-42" d="M194,350.94c0,.9,0,1.79,0,2.68,0,.47-.27.57-.67.57h-2.83a15.49,15.49,0,0,1,1.66-1.78l1.51-1.58Z"/><path class="cls-41" d="M108.1,350.8c.13.28.19.35.19.43.19,3.14,0,3.32-3.45,2.86C105.93,352.92,107,351.91,108.1,350.8Z"/><path class="cls-38" d="M229.89,321.69c.88,0,1.75,0,2.61,0,.49,0,.7.19.69.68,0,.86,0,1.71,0,2.6A9.26,9.26,0,0,1,229.89,321.69Z"/><path class="cls-39" d="M180.11,313.51l3,3.22a9.6,9.6,0,0,1-2.85.09c-.31,0-.39-.28-.39-.56v-2.67Z"/><path class="cls-43" d="M210.15,354.17l3.33-3.3c0,1,0,1.93,0,2.89a.39.39,0,0,1-.4.41Z"/><path class="cls-42" d="M206.28,354.18H203.5a.43.43,0,0,1-.47-.48c0-.92,0-1.84,0-3a45.33,45.33,0,0,1,3.34,3.17Z"/><path class="cls-38" d="M183.38,321.7l-3.44,3.13a11.72,11.72,0,0,1-.06-2.68c0-.32.22-.45.52-.45Z"/><path class="cls-38" d="M278.21,333.49l-3.28-3.25a11.38,11.38,0,0,1,2.74-.11c.37,0,.54.18.54.55C278.2,331.6,278.21,332.52,278.21,333.49Z"/><path class="cls-38" d="M47.08,367l3.22-3.22c0,.87,0,1.82,0,2.77,0,.31-.2.45-.5.45Z"/><path class="cls-39" d="M183.77,363.7l3.1,3.12a13.64,13.64,0,0,1-2.74,0c-.25,0-.36-.22-.36-.45C183.76,365.46,183.77,364.53,183.77,363.7Z"/><path class="cls-40" d="M187.08,354.18h-2.8c-.39,0-.52-.23-.52-.59v-3A24.64,24.64,0,0,1,187.08,354.18Z"/><path class="cls-38" d="M120.28,330.12h2.66c.43,0,.63.19.62.63,0,.88,0,1.77,0,2.89A17.82,17.82,0,0,1,120.28,330.12Z"/><path class="cls-41" d="M120.63,354.21h-2.78a.44.44,0,0,1-.47-.49c0-.92,0-1.85,0-3,1.34,1.06,2.26,2.19,3.33,3.16Z"/><path class="cls-44" d="M89.47,321.83l3.34,3.46H90c-.47,0-.57-.28-.57-.67C89.47,323.75,89.47,322.89,89.47,321.83Z"/><path class="cls-39" d="M295.11,318c0,.75,0,1.65,0,2.54,0,.42-.2.62-.63.62h-2.62Z"/><path class="cls-40" d="M229.55,317.86c1.12,1.11,2.18,2.14,3.3,3.24h-2.76a.49.49,0,0,1-.54-.56Z"/><path class="cls-45" d="M147.28,321.11h-2.76c-.46,0-.75-.14-.74-.66,0-.89,0-1.78,0-2.72A13.64,13.64,0,0,1,147.28,321.11Z"/><path class="cls-39" d="M271.54,350.87c0,1,0,1.9,0,2.83a.43.43,0,0,1-.48.48h-3Z"/><path class="cls-38" d="M226,367.5c-1.19,1.23-2.19,2.27-3.29,3.39a10.42,10.42,0,0,1-.13-3c0-.23.23-.34.46-.35Z"/><path class="cls-40" d="M282.45,313.54a3.25,3.25,0,0,1,.05.51,8.55,8.55,0,0,1-.16,2.67,13,13,0,0,1-3.11,0Z"/><path class="cls-39" d="M244.67,316.78a39.48,39.48,0,0,1,3.43-3.42,12.38,12.38,0,0,1,.12,3,.39.39,0,0,1-.41.41C246.85,316.79,245.88,316.78,244.67,316.78Z"/><path class="cls-39" d="M218.28,313.53l3.33,3.31c-.93,0-1.86,0-2.78,0-.46,0-.56-.29-.55-.68Z"/><path class="cls-38" d="M205.88,316.85l3.37-3.25c0,.88,0,1.81,0,2.73,0,.39-.23.52-.58.52Z"/><path class="cls-39" d="M187.3,359l-3.46,3.22a12.86,12.86,0,0,1-.06-2.79c0-.43.36-.43.66-.43Z"/><path class="cls-38" d="M326,354.9l3.42,3.57c-1,0-2,0-2.95,0-.39,0-.48-.29-.48-.62C326,357,326,356.05,326,354.9Z"/><path class="cls-44" d="M114.36,316.79c-.85,0-1.71,0-2.56,0-.47,0-.73-.15-.72-.66,0-.85,0-1.7,0-2.85,1.36,1.1,2.31,2.22,3.38,3.23Z"/><path class="cls-44" d="M294.84,329.51H292.1c-.36,0-.57-.15-.57-.53,0-.92,0-1.85,0-2.86Z"/><path class="cls-37" d="M45.79,367H43.13c-.42,0-.63-.18-.62-.62,0-.88,0-1.77,0-2.87,1.36,1,2.29,2.19,3.38,3.17Z"/><path class="cls-37" d="M151.64,329.36l-3.41-3.47h2.94a.44.44,0,0,1,.46.5C151.64,327.32,151.64,328.25,151.64,329.36Z"/><path class="cls-37" d="M213.5,370.73l-3.28-3.23H213c.38,0,.5.25.5.6C213.49,369,213.5,369.89,213.5,370.73Z"/><path class="cls-44" d="M89,371l-3.28-3.41a10,10,0,0,1,3-.09c.24,0,.33.24.33.47Z"/><path class="cls-46" d="M287.25,330.26a12.89,12.89,0,0,1,3.61-.08,34.2,34.2,0,0,1-3.57,3.43A4.33,4.33,0,0,1,287.25,330.26Z"/><path class="cls-37" d="M333.42,362.69c-.81,0-1.62,0-2.44,0-.52,0-.81-.12-.8-.71,0-.84,0-1.69,0-2.89,1.33,1.2,2.33,2.3,3.39,3.33Z"/><path class="cls-47" d="M114.39,325.29h-2.66c-.41,0-.64-.16-.64-.6v-2.64l.25-.14,1.61,1.55c.52.49,1.06,1,1.6,1.47Z"/><path class="cls-44" d="M189.94,333.5l-3.22-3.37h2.72c.38,0,.51.24.5.59Z"/><path class="cls-37" d="M136,330.13l-3.35,3.31c0-.91,0-1.83,0-2.76,0-.39.2-.55.56-.55Z"/><path class="cls-44" d="M291.52,324.94v-2.68c0-.34.14-.57.54-.56h3a40.47,40.47,0,0,1-3.29,3.35Z"/><path class="cls-44" d="M101.47,367.51l-3.31,3.32a11.27,11.27,0,0,1-.1-3c0-.25.22-.36.45-.36Z"/><path class="cls-46" d="M344.59,370.84l-3.24-3.25a10.9,10.9,0,0,1,2.81-.07c.42,0,.43.34.43.65Z"/><path class="cls-44" d="M127.91,371l-3.28-3.41a10,10,0,0,1,2.94-.09c.25,0,.34.24.34.47Z"/><path class="cls-44" d="M77.1,321.7h2.78c.38,0,.52.21.51.57v3C79.06,324.1,78.05,323,77,322Z"/><path class="cls-22" d="M333.7,366.66l-3.2-3.28c.13-.24.43-.13.66-.11a6.74,6.74,0,0,1,2.53.17A12,12,0,0,1,333.7,366.66Z"/><path class="cls-22" d="M136.14,316.66c-.34.09-.46.16-.57.14-1-.09-2.25.48-2.81-.25s-.14-2-.16-3.18C134,314.39,134.87,315.57,136.14,316.66Z"/><path class="cls-22" d="M79.88,354.16c-1,0-1.86,0-2.75,0-.43,0-.63-.17-.62-.62,0-.86,0-1.72,0-2.6A10.76,10.76,0,0,1,79.88,354.16Z"/><path class="cls-25" d="M38.49,363.4h2.89a.49.49,0,0,1,.56.56c0,.89,0,1.79,0,2.73A12.88,12.88,0,0,1,38.49,363.4Z"/><path class="cls-27" d="M295.31,351c0,.84,0,1.65,0,2.47,0,.53-.14.79-.72.77-.84,0-1.69,0-2.62,0A11.47,11.47,0,0,1,295.31,351Z"/><path class="cls-24" d="M64.05,359.06c1,0,1.79,0,2.6,0,.51,0,.82.1.79.7,0,.85,0,1.7,0,2.58A11.75,11.75,0,0,1,64.05,359.06Z"/><path class="cls-24" d="M329.57,362.4l-3.3-3.33H329c.48,0,.54.3.54.67C329.57,360.6,329.57,361.45,329.57,362.4Z"/><path class="cls-27" d="M245,359.23l-3.07,3.09a1.43,1.43,0,0,1-.1-.94c.06-.75-.24-1.56.2-2.26A7.61,7.61,0,0,1,245,359.23Z"/><path class="cls-23" d="M222.54,359.26l3.29,3.3a10.85,10.85,0,0,1-3,.08c-.32,0-.33-.36-.33-.61Z"/><path class="cls-23" d="M356.75,362.67h-2.62a.43.43,0,0,1-.48-.47v-2.79Z"/><path class="cls-28" d="M278.2,322.06c0,.89,0,1.78,0,2.67,0,.46-.23.59-.65.58H274.7c1.11-1.32,2.23-2.28,3.23-3.35Z"/><path class="cls-24" d="M148.06,322.16l3.54,3.14h-3.06a.44.44,0,0,1-.48-.48C148.05,323.9,148.06,323,148.06,322.16Z"/><path class="cls-23" d="M92.92,330.19c-1.22,1.22-2.23,2.24-3.43,3.46,0-1.15,0-2.1,0-3.06,0-.34.27-.4.54-.4Z"/><path class="cls-27" d="M284.89,350.91l3.19,3.19c-.05.13-.25.08-.4.07-.93-.08-1.88.22-2.79-.18Z"/><path class="cls-48" d="M111.2,333.53a3.55,3.55,0,0,1-.11-.48c-.11-3.1,0-3.19,3.21-2.77A12.61,12.61,0,0,1,111.2,333.53Z"/><path class="cls-23" d="M257.32,333.43v-2.62c0-.33,0-.62.46-.62h2.81Z"/><path class="cls-23" d="M260.53,316.79c-.85,0-1.7,0-2.55,0-.4,0-.67-.09-.66-.56,0-.88,0-1.77,0-2.88,1.33,1,2.26,2.18,3.33,3.17Z"/><path class="cls-32" d="M353.76,350.94l3.14,3.13c0,.15-.25.1-.41.1C353.35,354.26,353.3,354.2,353.76,350.94Z"/><path class="cls-28" d="M102,333.7l-3.25-3.37a9.46,9.46,0,0,1,3-.11c.26,0,.29.28.29.49Z"/><path class="cls-22" d="M257.32,321.77l3.42,3.5h-3c-.33,0-.41-.26-.41-.53C257.32,323.85,257.32,323,257.32,321.77Z"/><path class="cls-23" d="M63.92,354.16l3.39-3.26a9.63,9.63,0,0,1,.08,2.94c0,.34-.35.31-.6.31Z"/><path class="cls-27" d="M261,350.72l3.42,3.42a22,22,0,0,1-3,.06c-.34,0-.41-.25-.41-.53Z"/><path class="cls-23" d="M287.51,313.38l3.3,3.37h-3.53C287,315.6,286.51,314.44,287.51,313.38Z"/><path class="cls-27" d="M245,366.87h-2.71c-.33,0-.46-.19-.46-.49v-2.8Z"/><path class="cls-23" d="M77.16,330.19h2.65c.46,0,.59.23.58.65,0,.85,0,1.7,0,2.79A12.49,12.49,0,0,1,78.61,332L77,330.57Z"/><path class="cls-26" d="M168,354.21H165.3c-.46,0-.59-.22-.59-.64,0-.86,0-1.72,0-2.74a7.55,7.55,0,0,1,1.78,1.54c.55.48,1.09,1,1.64,1.47Z"/><path class="cls-24" d="M168.22,359.07c-1.1,1.34-2.21,2.31-3.47,3.6,0-1.25,0-2.2,0-3.15,0-.32.2-.45.5-.45Z"/><path class="cls-27" d="M144,321.7c1,0,1.79,0,2.6,0,.51,0,.81.11.78.7,0,.85,0,1.7,0,2.58A12.09,12.09,0,0,1,144,321.7Z"/><path class="cls-23" d="M248.61,354.09l3.13-3.17c.21.07.18.25.19.42C252,354.48,251.91,354.57,248.61,354.09Z"/><path class="cls-23" d="M341.15,354.17l3.28-3.39a11.27,11.27,0,0,1,.13,3.05c0,.26-.24.34-.46.34Z"/><path class="cls-26" d="M303.42,354.18h-2.57c-.4,0-.66-.09-.65-.56,0-.89,0-1.78,0-2.63Z"/><path class="cls-24" d="M77.11,316.78l3.28-3.51v3c0,.3-.14.49-.46.49C79,316.79,78.07,316.78,77.11,316.78Z"/><path class="cls-24" d="M92.73,316.79c-.89,0-1.78,0-2.67,0-.46,0-.6-.23-.59-.64,0-.86,0-1.72,0-2.88,1.3,1.14,2.33,2.19,3.35,3.25Z"/><path class="cls-27" d="M123.55,313.6c0,.88,0,1.77,0,2.65,0,.48-.26.57-.65.56h-2.83c1.05-1.31,2.19-2.23,3.19-3.28Z"/><path class="cls-26" d="M102,313.6c0,.84,0,1.66,0,2.48,0,.44-.09.74-.64.72-.85,0-1.71,0-2.61,0A9.78,9.78,0,0,1,102,313.6Z"/><path class="cls-28" d="M98.46,322c.33-.26.36-.31.39-.31,3.75,0,3.15-.83,3,3.38a22.31,22.31,0,0,1-1.7-1.6C99.64,323,99.08,322.57,98.46,322Z"/><path class="cls-28" d="M54.3,363.41,51,366.76v-2.87a.42.42,0,0,1,.46-.48C52.38,363.4,53.3,363.41,54.3,363.41Z"/><path class="cls-48" d="M248.24,333.4a18,18,0,0,1-3.47-3.15,21.24,21.24,0,0,1,3.06-.05c.31,0,.41.27.41.55Z"/><path class="cls-24" d="M42.86,367.61c.89,0,1.77,0,2.65,0,.43,0,.63.16.62.61,0,.88,0,1.77,0,3-1.32-1.17-2.3-2.26-3.36-3.27Z"/><path class="cls-27" d="M226.1,354.18h-2.9c-.39,0-.67-.08-.66-.56,0-.89,0-1.78,0-2.91A38.64,38.64,0,0,1,226.1,354.18Z"/><path class="cls-23" d="M67.43,371l-3.27-3.37a11.27,11.27,0,0,1,2.84-.1c.42,0,.43.32.43.63Z"/><path class="cls-25" d="M241.12,366.52l-3.5-3.26h3c.39,0,.51.24.51.59Z"/><path class="cls-23" d="M276.37,350.61l3.31,3.44a10.86,10.86,0,0,1-3,.1c-.26,0-.35-.22-.35-.45Z"/><path class="cls-24" d="M76.52,370.75c0-.86,0-1.71,0-2.57,0-.42.17-.63.6-.63h2.68Z"/><path class="cls-32" d="M241.78,350.81l3.25,3.26a11.07,11.07,0,0,1-2.94.07c-.34,0-.3-.36-.31-.61Z"/><path class="cls-49" d="M181.37,187l0,.26a1,1,0,0,1-.36.12c-.78,0-.94.42-.9,1.08a15.5,15.5,0,0,1,0,1.67c0,.27.09.72-.33.69s-.28-.46-.29-.74c0-.52,0-1,0-1.55,0-.7-.1-1.2-1-1.16-.1,0-.22-.1-.4-.2.48-.61,1.11-.33,1.64-.35A2.45,2.45,0,0,1,181.37,187Z"/><path class="cls-50" d="M287.51,313.38c-.43.43-.2,1-.23,1.45,0,.64,0,1.28,0,1.92h-.59c0-.89,0-1.78,0-2.67,0-.33,0-.68-.29-.92A1.43,1.43,0,0,1,287.51,313.38Z"/><path class="cls-51" d="M287.3,321.72l0,3.58h-.67c0-1.19,0-2.39,0-3.58Z"/><path class="cls-51" d="M287.25,330.26c0,1.12,0,2.24,0,3.35l-.58,0v-3.37Z"/><path class="cls-9" d="M290.88,250.1v-11a7.09,7.09,0,0,1,0-1,1.65,1.65,0,0,1,2.33-1.32,7.28,7.28,0,0,1,.9.5l18.61,11.09c2.1,1.25,2.11,2.45,0,3.69q-9.41,5.64-18.82,11.25a6.16,6.16,0,0,1-.8.43,1.63,1.63,0,0,1-2.25-1.26,6.43,6.43,0,0,1,0-1.16Z"/><path class="cls-52" d="M148.22,190.68l-11.28,4.11c-.4-2.13,1.17-4.71,3.47-5.83A6.4,6.4,0,0,1,148.22,190.68Z"/><path class="cls-52" d="M367.68,286.47v4a3.82,3.82,0,0,1-.06.9.55.55,0,0,1-1,.25,3.16,3.16,0,0,1-.44-.64c-1.19-2.05-2.39-4.09-3.57-6.14-.61-1.07-.58-1.18.5-1.8s2.16-1.26,3.26-1.85c.91-.48,1.27-.27,1.29.75C367.7,283.45,367.68,285,367.68,286.47Z"/><path class="cls-9" d="M314.63,286.38c0-1.3,0-2.59,0-3.89,0-1.05.39-1.26,1.28-.74q3.3,1.92,6.56,3.91c.83.5.84.9,0,1.41q-3.32,2-6.68,4c-.77.45-1.13.25-1.16-.65,0-1.34,0-2.68,0-4Z"/><path class="cls-9" d="M431.73,286.34c0-1.26,0-2.51,0-3.76s.34-1.37,1.3-.81c2.17,1.26,4.31,2.54,6.46,3.84.9.55.91.95,0,1.48q-3.25,2-6.56,3.92c-.89.52-1.21.31-1.23-.79C431.71,288.93,431.73,287.63,431.73,286.34Z"/><path class="cls-53" d="M60.38,217.05c0,1.63-.75,2.59-2,2.6s-2.07-.92-2.08-2.55a4.34,4.34,0,0,1,.14-1.14,1.78,1.78,0,0,1,2-1.5,1.75,1.75,0,0,1,1.86,1.45A3.38,3.38,0,0,1,60.38,217.05Z"/><path class="cls-53" d="M120.88,217.24a4.07,4.07,0,0,1,.21-1.56,1.78,1.78,0,0,1,1.91-1.22,1.73,1.73,0,0,1,1.8,1.35,3.87,3.87,0,0,1,.08,2.16,1.9,1.9,0,0,1-2,1.68,2,2,0,0,1-2-1.81C120.89,217.59,120.89,217.33,120.88,217.24Z"/><path class="cls-54" d="M68.21,217.05c0-.57,0-1.13,0-1.69s.18-.84.81-.84c1.59,0,2.42.86,2.4,2.54a2.21,2.21,0,0,1-2.48,2.47c-.47,0-.74-.16-.73-.67s0-1.21,0-1.81Z"/><path class="cls-55" d="M165.3,217c0-.55,0-1.11,0-1.67s.27-.79.85-.79a2.51,2.51,0,1,1-.21,5c-.41,0-.64-.18-.63-.62V217Z"/><path class="cls-56" d="M132.51,215.58c0-1,.05-1.06.7-1.05.87,0,1.4.4,1.4,1s-.53,1-1.37,1C132.57,216.61,132.51,216.54,132.51,215.58Z"/></g><g class="cls-57"><rect class="cls-58" x="457.59" y="46.01" width="11.43" height="2.93" transform="translate(474.96 -418.11) rotate(85.58)"/><rect class="cls-58" x="464.18" y="46.53" width="9.52" height="2.93" transform="translate(480.68 -423.25) rotate(85.58)"/><rect class="cls-58" x="468.72" y="45.15" width="11.43" height="2.93" transform="matrix(0.08, 1, -1, 0.08, 484.37, -429.99)"/><circle class="cls-59" cx="467.57" cy="30.3" r="12.41"/><path class="cls-60" d="M468.58,43.3a13,13,0,1,1,12-14A13,13,0,0,1,468.58,43.3Zm-1.92-24.75a11.78,11.78,0,1,0,12.66,10.84A11.8,11.8,0,0,0,466.66,18.55Z"/><path class="cls-60" d="M469.67,39.26l-.6-7.81.89-.07a4,4,0,0,1,4.49,3.44l0,.29a4,4,0,0,1-3.91,4.08Z"/><rect class="cls-60" x="466.64" y="35.35" width="2.88" height="4.03" transform="matrix(1, -0.08, 0.08, 1, -1.49, 36.16)"/><rect class="cls-60" x="465.55" y="21.22" width="2.88" height="4.03" transform="translate(-0.4 36.03) rotate(-4.42)"/><path class="cls-60" d="M465.14,29.25a4,4,0,0,1-4.45-3.47l0-.29a4,4,0,0,1,3.87-4.08l.86-.07.61,7.84Z"/></g><g class="cls-61"><path class="cls-62" d="M8.74,434.57C4.84,446.62,0,488.86,0,488.86V0H500.51C500.51,543.68,94.14,170.56,8.74,434.57Z"/></g><text class="cls-63"><tspan class="cls-64" x="139.89" y="444.78">T</tspan><tspan x="152.38" y="444.78">yn</tspan><tspan class="cls-65" x="178.76" y="444.78">k</tspan><tspan class="cls-66" x="191.25" y="444.78">e</tspan><tspan class="cls-67" x="204.11" y="444.78">r</tspan><tspan x="212.67" y="444.78"> </tspan><tspan class="cls-68" x="218.37" y="444.78">C</tspan><tspan class="cls-69" x="234.16" y="444.78">r</tspan><tspan x="243.06" y="444.78">ash </tspan><tspan class="cls-70" x="285.28" y="444.78">C</tspan><tspan x="300.83" y="444.78">ou</tspan><tspan class="cls-68" x="328.29" y="444.78">r</tspan><tspan x="337.31" y="444.78">se</tspan><tspan class="cls-71"><tspan class="cls-72" x="177.58" y="468.78">I</tspan><tspan x="182.12" y="468.78">nstructional</tspan><tspan class="cls-73" x="273.7" y="468.78"> </tspan><tspan x="277.95" y="468.78">Video </tspan></tspan></text></g></g></svg>