<svg xmlns="http://www.w3.org/2000/svg" viewBox="0 0 405.41 570.55"><defs><style>.cls-1{fill:#212121;}.cls-2{opacity:0.1;}.cls-3,.cls-4{fill:#89b8e3;}.cls-3{stroke:#00597f;stroke-miterlimit:10;}.cls-5{fill:#00597f;}.cls-6{fill:#e6c0c0;}</style></defs><g id="Layer_2" data-name="Layer 2"><g id="Layer_1-2" data-name="Layer 1"><rect class="cls-1" x="0.5" y="0.5" width="404.41" height="569.55"/><path d="M404.41,1V569.55H1V1H404.41m1-1H0V570.55H405.41V0Z"/><g class="cls-2"><rect class="cls-3" x="63.07" y="430.69" width="153.49" height="39.29" transform="translate(578.05 276.26) rotate(85.58)"/><rect class="cls-3" x="151.58" y="437.67" width="127.91" height="39.29" transform="translate(654.89 207.21) rotate(85.58)"/><rect class="cls-3" x="212.53" y="419.15" width="153.49" height="39.29" transform="translate(704.49 116.59) rotate(85.58)"/><circle class="cls-4" cx="197.16" cy="219.58" r="166.74"/><path class="cls-5" d="M210.65,394.27c-96.32,7.44-180.75-64.88-188.19-161.2S87.34,52.31,183.67,44.87s180.76,64.87,188.2,161.21S307,386.83,210.65,394.27ZM185,61.78c-87,6.72-152.32,83-145.6,170s83,152.31,170,145.59,152.33-83,145.61-170S272,55.06,185,61.78Z"/><path class="cls-5" d="M225.36,340l-8.1-104.86,12.05-.93c31.33-2.42,58.13,18.27,60.28,46.12l.3,3.92c2.16,27.84-21.16,52.4-52.48,54.82Z"/><rect class="cls-5" x="184.67" y="287.41" width="38.67" height="54.11" transform="translate(-23.61 16.64) rotate(-4.42)"/><rect class="cls-5" x="170.02" y="97.71" width="38.67" height="54.11" transform="translate(-9.05 14.95) rotate(-4.42)"/><path class="cls-5" d="M164.56,205.46c-30.84,2.39-57.68-18.74-59.83-46.58l-.3-3.92c-2.16-27.85,21.16-52.41,52-54.79L168,99.28l8.14,105.29Z"/></g><rect class="cls-5" x="34.58" y="219.57" width="336.25" height="20.47"/><rect class="cls-5" x="34.58" y="350.41" width="336.25" height="20.47"/><rect class="cls-5" x="34.58" y="481.24" width="336.25" height="20.47"/><path class="cls-6" d="M33.22,146.64v27.67H21.9V105H41.47q13.41,0,19.85,5t6.44,15.16q0,12.94-13.45,18.44l19.57,30.65H61L44.41,146.64Zm0-9.38h7.87q7.9,0,11.47-2.94t3.55-8.72q0-5.86-3.84-8.43t-11.56-2.56H33.22Z"/><path class="cls-6" d="M105.62,175.26q-12.23,0-19.12-7.13t-6.89-19.64q0-12.84,6.4-20.19T103.58,121q10.38,0,16.4,6.3t6,17.34v6H91.08c.15,5.09,1.53,9,4.12,11.73s6.24,4.1,10.94,4.1a40.68,40.68,0,0,0,8.65-.88,45.54,45.54,0,0,0,8.6-2.92v9a33.84,33.84,0,0,1-8.24,2.75A50.35,50.35,0,0,1,105.62,175.26Zm-2-45.87a11.2,11.2,0,0,0-8.5,3.37q-3.19,3.36-3.81,9.81h23.78q-.09-6.49-3.13-9.84A10.72,10.72,0,0,0,103.58,129.39Z"/><path class="cls-6" d="M173.85,159.39q0,7.67-5.59,11.77t-16,4.1q-10.47,0-16.82-3.18v-9.61a41.36,41.36,0,0,0,17.2,4.26q10.29,0,10.28-6.21a4.89,4.89,0,0,0-1.13-3.31,13.43,13.43,0,0,0-3.75-2.75,63.56,63.56,0,0,0-7.24-3.22q-9.06-3.51-12.25-7a13,13,0,0,1-3.2-9.09,12,12,0,0,1,5.42-10.45q5.43-3.72,14.76-3.72A41.92,41.92,0,0,1,173,124.7l-3.6,8.39q-8.49-3.51-14.27-3.51-8.81,0-8.81,5a5.07,5.07,0,0,0,2.3,4.17q2.3,1.69,10,4.69a45.62,45.62,0,0,1,9.43,4.59,13.72,13.72,0,0,1,4.36,4.81A13.91,13.91,0,0,1,173.85,159.39Z"/><path class="cls-6" d="M222.84,174.31l-1.56-6.87h-.57a15.81,15.81,0,0,1-6.61,5.73,22.1,22.1,0,0,1-9.78,2.09q-9.52,0-14.22-4.74t-4.69-14.36V121.91h11.23v32.31q0,6,2.46,9c1.65,2,4.22,3,7.73,3q7,0,10.3-4.2T220.42,148v-26.1h11.19v52.4Z"/><path class="cls-6" d="M291.64,174.31H280.46V142c0-4-.76-7-2.28-9s-3.88-3-7.11-3q-6.44,0-9.45,4.19t-3,13.95v26.11H247.48v-52.4h8.72l1.56,6.87h.57a14.49,14.49,0,0,1,6.32-5.78,20.41,20.41,0,0,1,9.12-2q12.09,0,16,8.24h.76a15.85,15.85,0,0,1,6.54-6.06,20.77,20.77,0,0,1,9.66-2.18q9.39,0,13.67,4.74t4.29,14.45v34.16H313.57V142c0-4-.76-7-2.29-9s-3.91-3-7.13-3q-6.5,0-9.5,4.05t-3,12.44Z"/><path class="cls-6" d="M363.13,175.26q-12.21,0-19.11-7.13t-6.9-19.64q0-12.84,6.4-20.19T361.1,121q10.36,0,16.39,6.3t6,17.34v6H348.59c.16,5.09,1.53,9,4.12,11.73s6.24,4.1,11,4.1a40.66,40.66,0,0,0,8.64-.88,45.54,45.54,0,0,0,8.6-2.92v9a33.56,33.56,0,0,1-8.24,2.75A50.35,50.35,0,0,1,363.13,175.26Zm-2-45.87a11.21,11.21,0,0,0-8.51,3.37q-3.19,3.36-3.81,9.81h23.78q-.09-6.49-3.12-9.84A10.74,10.74,0,0,0,361.1,129.39Z"/></g></g></svg>